<svg width="32" height="32" viewBox="0 0 32 32" fill="none" xmlns="http://www.w3.org/2000/svg">
<circle cx="16" cy="16" r="12" stroke="#152827"/>
<path d="M19.4985 11.3556L20.9977 11.4067L19.4985 11.3556ZM11 11.3556C11 12.184 11.6716 12.8556 12.5 12.8556C13.3284 12.8556 14 12.184 14 11.3556H11ZM18.6237 13.2565L19.5802 14.412L19.6389 14.3634L19.6923 14.3091L18.6237 13.2565ZM13.6245 18.6875C13.6245 19.5159 14.296 20.1875 15.1245 20.1875C15.9529 20.1875 16.6245 19.5159 16.6245 18.6875H13.6245ZM14 11.3556C14 10.5712 14.7513 9.6875 15.9993 9.6875V6.6875C13.382 6.6875 11 8.64065 11 11.3556H14ZM15.9993 9.6875C17.274 9.6875 18.0215 10.6558 17.9994 11.3045L20.9977 11.4067C21.0898 8.70399 18.5897 6.6875 15.9993 6.6875V9.6875ZM17.9994 11.3045C17.9884 11.6282 17.957 11.6992 17.9449 11.7265C17.926 11.7691 17.8606 11.8937 17.5551 12.2038L19.6923 14.3091C20.0938 13.9015 20.4523 13.4726 20.6873 12.9428C20.9291 12.3976 20.9816 11.8771 20.9977 11.4067L17.9994 11.3045ZM17.6672 12.101C17.1382 12.5389 15.9128 13.7164 14.7848 15.2727L17.2138 17.0333C18.1853 15.693 19.2344 14.6982 19.5802 14.412L17.6672 12.101ZM14.7848 15.2727C14.1662 16.1261 13.8421 16.8584 13.7016 17.5126C13.5696 18.1276 13.6245 18.7188 13.6245 18.6875H16.6245C16.6245 18.2941 16.5919 18.3423 16.6347 18.1426C16.6692 17.9821 16.7826 17.6283 17.2138 17.0333L14.7848 15.2727Z" fill="#152827"/>
<path d="M19.4985 11.3556L19.9982 11.3726L19.4985 11.3556ZM12 11.3556C12 11.6317 12.2239 11.8556 12.5 11.8556C12.7761 11.8556 13 11.6317 13 11.3556H12ZM18.6237 13.2565L18.9425 13.6416L18.9621 13.6254L18.9799 13.6073L18.6237 13.2565ZM14.6245 18.6875C14.6245 18.9636 14.8483 19.1875 15.1245 19.1875C15.4006 19.1875 15.6245 18.9636 15.6245 18.6875H14.6245ZM13 11.3556C13 9.92766 14.2949 8.6875 15.9993 8.6875V7.6875C13.8385 7.6875 12 9.28416 12 11.3556H13ZM15.9993 8.6875C17.7126 8.6875 19.0443 10.0052 18.9988 11.3386L19.9982 11.3726C20.0671 9.35459 18.1511 7.6875 15.9993 7.6875V8.6875ZM18.9988 11.3386C18.9861 11.7111 18.9477 11.932 18.859 12.1319C18.7681 12.337 18.605 12.5629 18.2675 12.9056L18.9799 13.6073C19.3494 13.2322 19.6102 12.9048 19.7732 12.5373C19.9384 12.1648 19.9839 11.7941 19.9982 11.3726L18.9988 11.3386ZM18.3049 12.8713C17.837 13.2586 16.6703 14.3753 15.5944 15.8596L16.4041 16.4465C17.4278 15.0342 18.5357 13.9784 18.9425 13.6416L18.3049 12.8713ZM15.5944 15.8596C15.0383 16.6268 14.7845 17.233 14.6793 17.7226C14.577 18.1991 14.6245 18.5772 14.6245 18.6875H15.6245C15.6245 18.4357 15.5844 18.2707 15.657 17.9326C15.7269 17.6076 15.9104 17.1275 16.4041 16.4465L15.5944 15.8596Z" fill="#F0A337"/>
<circle cx="15" cy="23.1" r="1.5" fill="#F0A337" stroke="#152827"/>
</svg>
