<svg width="32" height="32" viewBox="0 0 32 32" fill="none" xmlns="http://www.w3.org/2000/svg">
<path d="M22 15H28V16C28 17.6569 26.6569 19 25 19C23.3431 19 22 17.6569 22 16V15Z" fill="#F0A337"/>
<path d="M4 15H10V16C10 17.6569 8.65685 19 7 19C5.34315 19 4 17.6569 4 16V15Z" fill="#F0A337"/>
<path d="M16 3L16 24" stroke="#152827" stroke-linecap="round"/>
<path d="M24.9997 7.5L6.99969 7.5M24.9997 7.5L21.9997 15M24.9997 7.5L27.9997 15M6.99969 7.5L3.99969 15M6.99969 7.5L9.99969 15M3.99969 15L9.99969 15M3.99969 15C3.99969 15 3.49969 19 6.99969 19C10.4997 19 9.99969 15 9.99969 15M21.9997 15C21.9997 15 21.4994 19 24.9997 19C28.5 19 27.9997 15 27.9997 15M21.9997 15L27.9997 15" stroke="#152827" stroke-linejoin="round"/>
<circle cx="16" cy="7.5" r="1.5" fill="#152827"/>
<path d="M9 28.5714C9 27.1513 10.1513 26 11.5714 26H20.4286C21.8487 26 23 27.1513 23 28.5714V28.5714C23 28.8081 22.8081 29 22.5714 29H9.42857C9.19188 29 9 28.8081 9 28.5714V28.5714Z" stroke="#152827"/>
<path d="M13 25.7143C13 24.7675 13.7675 24 14.7143 24H17.2857C18.2325 24 19 24.7675 19 25.7143V25.7143C19 25.8721 18.8721 26 18.7143 26H13.2857C13.1279 26 13 25.8721 13 25.7143V25.7143Z" stroke="#152827"/>
</svg>
