<svg width="32" height="32" viewBox="0 0 32 32" fill="none" xmlns="http://www.w3.org/2000/svg">
<path d="M11.7697 25.5475L14 21.625L11.6637 21.0409C11.5575 21.0144 11.463 20.9537 11.3946 20.8682L9.99971 19.125L7.50103 23.0364C7.28638 23.3724 7.53213 23.8122 7.93081 23.8055L9.61482 23.7772C9.79945 23.7741 9.97076 23.873 10.0604 24.0344L10.8979 25.5431C11.0872 25.8842 11.5769 25.8867 11.7697 25.5475Z" fill="#F0A337"/>
<path d="M22.012 27.4983L22.723 25.6766C22.818 25.4347 23.068 25.2906 23.324 25.3297L25.258 25.6242C25.718 25.6943 26.055 25.2009 25.822 24.7977L22.723 19L20.5 21L18 21.8169L21.014 27.5738C21.247 27.977 21.842 27.9319 22.012 27.4983Z" fill="#F0A337"/>
<path d="M14 10.5079V11.124H14.7148H15.314V17.3839V18H16.0276H17.2863H18V17.3839V9.61613V9H17.2863H14.7148H14V9.61613V10.5079Z" fill="#F0A337" stroke="#152827"/>
<path fill-rule="evenodd" clip-rule="evenodd" d="M16 4.5C11.3056 4.5 7.5 8.30558 7.5 13C7.5 17.6944 11.3056 21.5 16 21.5C20.6944 21.5 24.5 17.6944 24.5 13C24.5 8.30558 20.6944 4.5 16 4.5ZM6.5 13C6.5 7.7533 10.7533 3.5 16 3.5C21.2467 3.5 25.5 7.75329 25.5 13C25.5 15.335 24.6576 17.4732 23.2601 19.1273L26.2596 24.7389C26.6932 25.5036 26.0542 26.4344 25.1827 26.3016L25.1827 26.3016L23.2487 26.0071L23.2485 26.0071C23.2242 26.0034 23.1984 26.0173 23.1885 26.0423L23.1884 26.0425L22.4778 27.8632L22.4775 27.8639C22.1548 28.6869 21.0239 28.7735 20.5811 28.0071L20.5758 27.9981L20.571 27.9888L17.6249 22.3616C17.0969 22.4526 16.554 22.5 16 22.5C15.4442 22.5 14.8996 22.4523 14.3701 22.3607L12.2044 26.1697C11.8187 26.8479 10.8394 26.8429 10.4607 26.1608L9.62323 24.6521L7.93922 24.6804C7.14186 24.6938 6.65036 23.8143 7.07967 23.1422L9.27331 19.7083C7.55954 17.9899 6.5 15.6187 6.5 13ZM10.0263 20.3872L7.9224 23.6806L9.60641 23.6522C9.97567 23.646 10.3183 23.8438 10.4975 24.1667L11.3351 25.6754L13.353 22.1263C12.123 21.7702 10.9958 21.1722 10.0263 20.3872ZM18.6327 22.1305C20.1144 21.704 21.4474 20.9266 22.5361 19.8941L25.3811 25.2165L25.385 25.2238L25.3891 25.231C25.3977 25.2458 25.3981 25.2548 25.3977 25.2604C25.3973 25.2682 25.3943 25.2788 25.3869 25.2896C25.3795 25.3005 25.3707 25.3071 25.3637 25.3104C25.3586 25.3127 25.3501 25.3156 25.3333 25.313L25.3333 25.313L23.3995 25.0185L23.3992 25.0185C22.9117 24.9441 22.4377 25.2184 22.2576 25.6769L22.2572 25.6779L21.5465 27.4989L21.5464 27.4991C21.5401 27.5151 21.5332 27.5212 21.5285 27.5245C21.522 27.5291 21.5119 27.5334 21.4989 27.5344C21.4859 27.5354 21.4753 27.5327 21.4683 27.5292C21.4639 27.5269 21.4574 27.5229 21.4501 27.5119L18.6327 22.1305Z" fill="#152827"/>
</svg>
