<svg width="32" height="32" viewBox="0 0 32 32" fill="none" xmlns="http://www.w3.org/2000/svg">
<path d="M7 5C7 4.44772 7.448 4 8 4H18.66C18.88 4 19.095 4.07291 19.27 4.20738L24.61 8.31516C24.856 8.50446 25 8.79732 25 9.10779V27C25 27.5523 24.552 28 24 28H8C7.448 28 7 27.5523 7 27V5Z" stroke="#152827"/>
<path d="M21.0791 14.8741C21.6403 14.3194 21.6403 13.4203 21.0791 12.8657C20.5188 12.3111 19.6089 12.3111 19.0476 12.8657L14.9838 16.8825C14.797 17.0674 14.4944 17.0674 14.3067 16.8825L12.9524 15.5435C12.3911 14.9889 11.4822 14.9889 10.9209 15.5435C10.3597 16.0982 10.3597 16.9973 10.9209 17.5519L13.2914 19.8951C13.2943 19.898 13.2972 19.9009 13.3 19.9037C14.049 20.6345 15.2549 20.6317 16 19.8951L21.0791 14.8741Z" fill="#F0A337" stroke="#152827"/>
</svg>
