<svg width="24" height="24" viewBox="0 0 24 24" fill="none" xmlns="http://www.w3.org/2000/svg">
<path fill-rule="evenodd" clip-rule="evenodd" d="M6 4C4.89543 4 4 4.89543 4 6V18C4 19.1046 4.89543 20 6 20H18C19.1046 20 20 19.1046 20 18V6C20 4.89543 19.1046 4 18 4H6ZM16.7399 10.1727C17.1114 9.76402 17.0813 9.13157 16.6727 8.76006C16.264 8.38855 15.6316 8.41867 15.2601 8.82733L10.9044 13.6186L8.64018 11.7318C8.21591 11.3782 7.58534 11.4355 7.23178 11.8598C6.87821 12.2841 6.93554 12.9147 7.35982 13.2682L10.3598 15.7682C10.7712 16.1111 11.3797 16.0689 11.7399 15.6727L16.7399 10.1727Z" fill="#F0A337"/>
<rect x="4.5" y="4.5" width="15" height="15" rx="1.5" stroke="#152827" stroke-linejoin="round"/>
</svg>
