<svg width="32" height="32" viewBox="0 0 32 32" fill="none" xmlns="http://www.w3.org/2000/svg">
<path d="M18.482 11.2837C20.1936 12.9953 20.1936 15.7704 18.482 17.482C16.7704 19.1936 13.9953 19.1936 12.2837 17.482C10.5721 15.7704 10.5721 12.9953 12.2837 11.2837C13.9953 9.5721 16.7704 9.5721 18.482 11.2837Z" fill="#F0A337"/>
<path d="M18.482 17.482C20.1936 15.7704 20.1936 12.9953 18.482 11.2837C16.7704 9.5721 13.9953 9.5721 12.2837 11.2837C10.5721 12.9953 10.5721 15.7704 12.2837 17.482C13.9953 19.1936 16.7704 19.1936 18.482 17.482ZM18.482 17.482L21 20" stroke="#152827" stroke-linecap="round" stroke-linejoin="round"/>
<path d="M7 5C7 4.44772 7.448 4 8 4H18.66C18.88 4 19.095 4.07291 19.27 4.20738L24.61 8.31516C24.856 8.50446 25 8.79732 25 9.10779V18.0539V27C25 27.5523 24.552 28 24 28H8C7.448 28 7 27.5523 7 27V5Z" stroke="#152827"/>
</svg>
