<svg width="24" height="24" viewBox="0 0 24 24" fill="none" xmlns="http://www.w3.org/2000/svg">
<path fill-rule="evenodd" clip-rule="evenodd" d="M5.70711 4.29289C5.31658 3.90237 4.68342 3.90237 4.29289 4.29289C3.90237 4.68342 3.90237 5.31658 4.29289 5.70711L10.5877 12.0019L4.29335 18.2963C3.90283 18.6868 3.90283 19.32 4.29335 19.7105C4.68388 20.101 5.31704 20.101 5.70756 19.7105L12.0019 13.4162L18.2963 19.7105C18.6868 20.101 19.32 20.101 19.7105 19.7105C20.101 19.32 20.101 18.6868 19.7105 18.2963L13.4161 12.0019L19.711 5.70711C20.1015 5.31658 20.1015 4.68342 19.711 4.29289C19.3205 3.90237 18.6873 3.90237 18.2968 4.29289L12.0019 10.5877L5.70711 4.29289Z" fill="#EB5757"/>
</svg>
