<svg width="32" height="32" viewBox="0 0 32 32" fill="none" xmlns="http://www.w3.org/2000/svg">
<path d="M24 17C25.1046 17 26 16.1046 26 15C26 13.8954 25.1046 13 24 13C22.8954 13 22 13.8954 22 15C22 16.1046 22.8954 17 24 17Z" fill="#F0A337" stroke="#152827"/>
<path d="M10 11C12.2091 11 14 9.20914 14 7C14 4.79086 12.2091 3 10 3C7.79086 3 6 4.79086 6 7C6 9.20914 7.79086 11 10 11Z" fill="#F0A337" stroke="#152827"/>
<path d="M10 13.5C6.68629 13.5 4 16.8374 4 20.9543V28.9295C4 29.2451 4.22372 29.5 4.49972 29.5H15.5003C15.7763 29.5 16 29.2442 16 28.9286V20.9543C16 16.8374 13.3137 13.5 10 13.5Z" stroke="#152827"/>
<path d="M24.0005 19.5C21.7916 19.5 20 21.7026 20 24.4198V28.8752C20 29.2205 20.2566 29.5 20.572 29.5H27.4289C27.7443 29.5 28 29.2203 28 28.875V24.4198C28 21.7026 26.2094 19.5 24.0005 19.5Z" stroke="#152827"/>
</svg>
