<svg width="32" height="32" viewBox="0 0 32 32" fill="none" xmlns="http://www.w3.org/2000/svg">
<path d="M20.5375 10H11.4626C11.2071 10 11 10.2293 11 10.5122V11.4878C11 11.7707 11.2071 12 11.4626 12H20.5375C20.7929 12 21 11.7707 21 11.4878V10.5122C21 10.2293 20.7929 10 20.5375 10Z" fill="#F0A337" stroke="#152827"/>
<path d="M20.5375 15H11.4626C11.2071 15 11 15.2293 11 15.5122V16.4878C11 16.7707 11.2071 17 11.4626 17H20.5375C20.7929 17 21 16.7707 21 16.4878V15.5122C21 15.2293 20.7929 15 20.5375 15Z" fill="#F0A337" stroke="#152827"/>
<path d="M20.5375 20H11.4626C11.2071 20 11 20.2293 11 20.5122V21.4878C11 21.7707 11.2071 22 11.4626 22H20.5375C20.7929 22 21 21.7707 21 21.4878V20.5122C21 20.2293 20.7929 20 20.5375 20Z" fill="#F0A337" stroke="#152827"/>
<path d="M7 5C7 4.44772 7.448 4 8 4H18.66C18.88 4 19.095 4.07291 19.27 4.20738L24.61 8.31516C24.856 8.50446 25 8.79732 25 9.10779V27C25 27.5523 24.552 28 24 28H8C7.448 28 7 27.5523 7 27V5Z" stroke="#152827"/>
</svg>
