<svg width="24" height="24" viewBox="0 0 24 24" fill="none" xmlns="http://www.w3.org/2000/svg">
<path fill-rule="evenodd" clip-rule="evenodd" d="M12 21C16.9706 21 21 16.9706 21 12C21 7.02944 16.9706 3 12 3C7.02944 3 3 7.02944 3 12C3 16.9706 7.02944 21 12 21ZM16.7079 7.29217C16.3174 6.90164 15.6842 6.90164 15.2937 7.29217L12 10.5858L8.70711 7.29289C8.31658 6.90237 7.68342 6.90237 7.29289 7.29289C6.90237 7.68342 6.90237 8.31658 7.29289 8.70711L10.5858 12L7.29248 15.2934C6.90196 15.6839 6.90196 16.317 7.29248 16.7076C7.683 17.0981 8.31617 17.0981 8.70669 16.7076L12 13.4142L15.2941 16.7083C15.6846 17.0988 16.3178 17.0988 16.7083 16.7083C17.0988 16.3178 17.0988 15.6846 16.7083 15.2941L13.4142 12L16.7079 8.70638C17.0984 8.31586 17.0984 7.68269 16.7079 7.29217Z" fill="#EB5757"/>
</svg>
