<svg width="24" height="24" viewBox="0 0 24 24" fill="none" xmlns="http://www.w3.org/2000/svg">
<path d="M20.052 12.9091C21.1257 12.9091 22 11.9676 22 10.8112V4.09789C22 2.94154 21.1257 2 20.052 2H17.7143C17.2756 2 16.872 2.15943 16.5455 2.42463V12.9091H20.052Z" fill="#152827"/>
<path d="M2.00012 10.0682C2.00012 10.5897 2.20295 11.0757 2.55495 11.4341C2.15693 11.8775 1.9541 12.4719 2.00951 13.0906C2.10923 14.1936 3.08509 15.0579 4.23223 15.0579H9.49672C9.23592 15.864 8.81832 17.3418 8.81832 18.5289C8.81832 20.4111 10.389 22 11.3751 22C12.2606 22 12.893 21.4924 12.9203 21.4715C13.0208 21.3891 13.0797 21.2641 13.0797 21.1322V18.1897L15.5342 12.7756L15.6365 12.7227V3.42194C14.9427 3.08872 14.0649 2.90909 13.5058 2.90909H5.68278C4.75466 2.90909 3.94243 3.54605 3.75154 4.42507C3.65355 4.87719 3.71063 5.33277 3.90579 5.72847C3.27598 6.05128 2.85238 6.71167 2.85238 7.46488C2.85238 7.77207 2.92142 8.06624 3.05265 8.33263C2.42284 8.65544 2.00012 9.31583 2.00012 10.0682Z" fill="#152827"/>
</svg>
