<svg width="24" height="24" viewBox="0 0 24 24" fill="none" xmlns="http://www.w3.org/2000/svg">
<path d="M4 9.32361C4 9.17493 4.15646 9.07823 4.28944 9.14472L11.8211 12.9106C11.9337 12.9669 12.0663 12.9669 12.1789 12.9106L19.7106 9.14472C19.8435 9.07823 20 9.17493 20 9.32361V18.2C20 18.6418 19.6418 19 19.2 19H4.8C4.35817 19 4 18.6418 4 18.2V9.32361Z" fill="#152827"/>
<path d="M4 5.8C4 5.35817 4.35817 5 4.8 5H19.2C19.6418 5 20 5.35817 20 5.8V7.87639C20 7.95215 19.9572 8.0214 19.8894 8.05528L12.1789 11.9106C12.0663 11.9669 11.9337 11.9669 11.8211 11.9106L4.11056 8.05528C4.0428 8.0214 4 7.95215 4 7.87639V5.8Z" fill="#152827"/>
</svg>
