<svg width="24" height="24" viewBox="0 0 24 24" fill="none" xmlns="http://www.w3.org/2000/svg">
<path d="M2.3009 10.9356L11.6201 3.31086C11.8411 3.13003 12.1589 3.13003 12.3799 3.31086L21.6991 10.9356C22.1355 11.2927 21.883 12 21.3192 12H19.6C19.2686 12 19 12.2686 19 12.6V20.4C19 20.7314 18.7314 21 18.4 21H15.1C14.7686 21 14.5 20.7314 14.5 20.4V18C14.5 18 14.5 16 12 16C9.5 16 9.5 18 9.5 18V20.4C9.5 20.7314 9.23137 21 8.9 21H5.6C5.26863 21 5 20.7314 5 20.4V12.6C5 12.2686 4.73137 12 4.4 12H2.68084C2.11697 12 1.86449 11.2927 2.3009 10.9356Z" fill="#356F6C" stroke="#384747"/>
</svg>
