<svg width="32" height="32" viewBox="0 0 32 32" fill="none" xmlns="http://www.w3.org/2000/svg">
<path d="M20.7866 19.0252C20.0554 19.5244 19.5 20.3437 19.5 21.3039V23V23.5H12.5V23V21.3039C12.5 20.3437 11.9446 19.5244 11.2134 19.0252C8.97056 17.4939 7.5 14.9186 7.5 12C7.5 7.30558 11.3056 3.5 16 3.5C20.6944 3.5 24.5 7.30558 24.5 12C24.5 14.9186 23.0294 17.4939 20.7866 19.0252Z" stroke="#152827"/>
<path d="M12.5 27V23.5H19.5V27C19.5 28.3807 18.3807 29.5 17 29.5H15C13.6193 29.5 12.5 28.3807 12.5 27Z" stroke="#152827"/>
<path d="M13.5991 13.5905L14.5 23.5H17.5L18.4009 13.5905C18.4541 13.0049 17.993 12.5 17.405 12.5H14.595C14.007 12.5 13.5459 13.0049 13.5991 13.5905Z" fill="#FCB945" stroke="#152827"/>
<rect x="25" y="5.12132" width="3" height="1" transform="rotate(-45 25 5.12132)" fill="#F0A337"/>
<rect width="3" height="1" transform="matrix(-0.707107 -0.707107 -0.707107 0.707107 7 5.12132)" fill="#F0A337"/>
<rect width="3" height="1" transform="matrix(-0.866025 -0.5 -0.5 0.866025 28.9633 16.7312)" fill="#F0A337"/>
<rect x="3.03674" y="16.7312" width="3" height="1" transform="rotate(-30 3.03674 16.7312)" fill="#F0A337"/>
<rect x="27" y="10" width="3" height="1" fill="#F0A337"/>
<rect width="3" height="1" transform="matrix(-1 0 0 1 5 10)" fill="#F0A337"/>
</svg>
