<svg width="32" height="32" viewBox="0 0 32 32" fill="none" xmlns="http://www.w3.org/2000/svg">
<rect x="9.65698" y="12.6066" width="7" height="7" transform="rotate(-45 9.65698 12.6066)" fill="#F0A337" stroke="#152827"/>
<mask id="path-2-inside-1" fill="white">
<path fill-rule="evenodd" clip-rule="evenodd" d="M5.06043 15.7886C4.47465 15.2028 4.47465 14.253 5.06043 13.6673L7.18175 11.5459C7.76754 10.9602 8.71729 10.9602 9.30307 11.5459L15.667 17.9099C16.2528 18.4957 16.2528 19.4454 15.667 20.0312L13.5457 22.1525C12.9599 22.7383 12.0102 22.7383 11.4244 22.1525L5.06043 15.7886ZM5.76754 14.3744C5.57228 14.5696 5.57228 14.8862 5.76754 15.0815L12.1315 21.4454C12.3268 21.6407 12.6433 21.6407 12.8386 21.4454L14.9599 19.3241C15.1552 19.1289 15.1552 18.8123 14.9599 18.617L8.59597 12.253C8.40071 12.0578 8.08412 12.0578 7.88886 12.253L5.76754 14.3744Z"/>
<path fill-rule="evenodd" clip-rule="evenodd" d="M13.5457 7.3033C12.9599 6.71752 12.9599 5.76777 13.5457 5.18198L15.667 3.06066C16.2528 2.47488 17.2026 2.47488 17.7884 3.06066L24.1523 9.42462C24.7381 10.0104 24.7381 10.9602 24.1523 11.5459L22.031 13.6673C21.4452 14.2531 20.4955 14.2531 19.9097 13.6673L13.5457 7.3033ZM14.2528 5.88909C14.0576 6.08435 14.0576 6.40093 14.2528 6.5962L20.6168 12.9602C20.812 13.1554 21.1286 13.1554 21.3239 12.9602L23.4452 10.8388C23.6405 10.6436 23.6405 10.327 23.4452 10.1317L17.0812 3.76777C16.886 3.57251 16.5694 3.57251 16.3741 3.76777L14.2528 5.88909Z"/>
<path fill-rule="evenodd" clip-rule="evenodd" d="M15.3135 16.1421L18.1419 13.3137L27.2435 20.7605C28.6172 21.8844 28.7202 23.9487 27.4651 25.2037L27.2035 25.4654C25.9484 26.7204 23.8842 26.6174 22.7603 25.2438L15.3135 16.1421ZM23.5342 24.6105L16.6605 16.2093L18.2091 14.6607L26.6103 21.5344C27.5261 22.2837 27.5947 23.6599 26.758 24.4966L26.4963 24.7583C25.6597 25.5949 24.2835 25.5263 23.5342 24.6105Z"/>
</mask>
<path d="M5.06043 13.6673L5.76754 14.3744H5.76754L5.06043 13.6673ZM5.06043 15.7886L5.76754 15.0815L5.06043 15.7886ZM7.18175 11.5459L6.47465 10.8388L7.18175 11.5459ZM9.30307 11.5459L10.0102 10.8388L9.30307 11.5459ZM15.667 17.9099L14.9599 18.617L15.667 17.9099ZM15.667 20.0312L14.9599 19.3241L15.667 20.0312ZM13.5457 22.1525L14.2528 22.8597L13.5457 22.1525ZM11.4244 22.1525L10.7173 22.8597H10.7173L11.4244 22.1525ZM5.76754 15.0815L6.47465 14.3744L5.76754 15.0815ZM5.76754 14.3744L6.47465 15.0815L5.76754 14.3744ZM12.1315 21.4454L11.4244 22.1525L12.1315 21.4454ZM14.9599 18.617L14.2528 19.3241L14.9599 18.617ZM8.59597 12.253L9.30307 11.5459L8.59597 12.253ZM7.88886 12.253L7.18175 11.5459L7.88886 12.253ZM13.5457 5.18198L14.2528 5.88909V5.88909L13.5457 5.18198ZM15.667 3.06066L14.9599 2.35356V2.35356L15.667 3.06066ZM17.7884 3.06066L17.0812 3.76777L17.7884 3.06066ZM24.1523 9.42462L24.8594 8.71752L24.1523 9.42462ZM14.2528 6.5962L14.9599 5.88909L14.2528 6.5962ZM14.2528 5.88909L14.9599 6.5962V6.5962L14.2528 5.88909ZM20.6168 12.9602L19.9097 13.6673L20.6168 12.9602ZM23.4452 10.1317L24.1523 9.42462L23.4452 10.1317ZM17.0812 3.76777L16.3741 4.47488L17.0812 3.76777ZM16.3741 3.76777L15.667 3.06066V3.06066L16.3741 3.76777ZM16.6605 16.2093L15.9534 15.5022L15.3135 16.1421L15.8866 16.8426L16.6605 16.2093ZM23.5342 24.6105L22.7603 25.2438H22.7603L23.5342 24.6105ZM18.2091 14.6607L18.8423 13.8868L18.1419 13.3137L17.502 13.9536L18.2091 14.6607ZM26.6103 21.5344L27.2435 20.7605V20.7605L26.6103 21.5344ZM18.1419 13.3137L18.7751 12.5398L18.0747 11.9667L17.4348 12.6066L18.1419 13.3137ZM15.3135 16.1421L14.6064 15.435L13.9665 16.075L14.5395 16.7754L15.3135 16.1421ZM27.2435 20.7605L27.8768 19.9865V19.9865L27.2435 20.7605ZM22.7603 25.2438L21.9863 25.877L22.7603 25.2438ZM4.35333 12.9602C3.37702 13.9365 3.37702 15.5194 4.35333 16.4957L5.76754 15.0815C5.57228 14.8862 5.57228 14.5696 5.76754 14.3744L4.35333 12.9602ZM6.47465 10.8388L4.35333 12.9602L5.76754 14.3744L7.88886 12.253L6.47465 10.8388ZM10.0102 10.8388C9.03387 9.86253 7.45096 9.86253 6.47465 10.8388L7.88886 12.253C8.08412 12.0578 8.40071 12.0578 8.59597 12.253L10.0102 10.8388ZM16.3741 17.2028L10.0102 10.8388L8.59597 12.253L14.9599 18.617L16.3741 17.2028ZM16.3741 20.7383C17.3505 19.762 17.3505 18.1791 16.3741 17.2028L14.9599 18.617C15.1552 18.8123 15.1552 19.1289 14.9599 19.3241L16.3741 20.7383ZM14.2528 22.8597L16.3741 20.7383L14.9599 19.3241L12.8386 21.4454L14.2528 22.8597ZM10.7173 22.8597C11.6936 23.836 13.2765 23.836 14.2528 22.8597L12.8386 21.4454C12.6433 21.6407 12.3268 21.6407 12.1315 21.4454L10.7173 22.8597ZM4.35333 16.4957L10.7173 22.8597L12.1315 21.4454L5.76754 15.0815L4.35333 16.4957ZM6.47465 14.3744C6.66991 14.5696 6.66991 14.8862 6.47465 15.0815L5.06043 13.6673C4.47465 14.253 4.47465 15.2028 5.06043 15.7886L6.47465 14.3744ZM12.8386 20.7383L6.47465 14.3744L5.06043 15.7886L11.4244 22.1525L12.8386 20.7383ZM12.1315 20.7383C12.3268 20.5431 12.6433 20.5431 12.8386 20.7383L11.4244 22.1525C12.0102 22.7383 12.9599 22.7383 13.5457 22.1525L12.1315 20.7383ZM14.2528 18.617L12.1315 20.7383L13.5457 22.1525L15.667 20.0312L14.2528 18.617ZM14.2528 19.3241C14.0576 19.1289 14.0576 18.8123 14.2528 18.617L15.667 20.0312C16.2528 19.4454 16.2528 18.4957 15.667 17.9099L14.2528 19.3241ZM7.88886 12.9602L14.2528 19.3241L15.667 17.9099L9.30307 11.5459L7.88886 12.9602ZM8.59597 12.9602C8.40071 13.1554 8.08412 13.1554 7.88886 12.9602L9.30307 11.5459C8.71729 10.9602 7.76754 10.9602 7.18175 11.5459L8.59597 12.9602ZM6.47465 15.0815L8.59597 12.9602L7.18175 11.5459L5.06043 13.6673L6.47465 15.0815ZM12.8386 4.47488C11.8623 5.45119 11.8623 7.0341 12.8386 8.01041L14.2528 6.5962C14.0576 6.40093 14.0576 6.08435 14.2528 5.88909L12.8386 4.47488ZM14.9599 2.35356L12.8386 4.47488L14.2528 5.88909L16.3741 3.76777L14.9599 2.35356ZM18.4955 2.35356C17.5192 1.37724 15.9362 1.37725 14.9599 2.35356L16.3741 3.76777C16.5694 3.57251 16.886 3.57251 17.0812 3.76777L18.4955 2.35356ZM24.8594 8.71752L18.4955 2.35356L17.0812 3.76777L23.4452 10.1317L24.8594 8.71752ZM24.8594 12.253C25.8357 11.2767 25.8357 9.69383 24.8594 8.71752L23.4452 10.1317C23.6405 10.327 23.6405 10.6436 23.4452 10.8388L24.8594 12.253ZM22.7381 14.3744L24.8594 12.253L23.4452 10.8388L21.3239 12.9602L22.7381 14.3744ZM19.2026 14.3744C20.1789 15.3507 21.7618 15.3507 22.7381 14.3744L21.3239 12.9602C21.1286 13.1554 20.812 13.1554 20.6168 12.9602L19.2026 14.3744ZM12.8386 8.01041L19.2026 14.3744L20.6168 12.9602L14.2528 6.5962L12.8386 8.01041ZM14.9599 5.88909C15.1552 6.08435 15.1552 6.40093 14.9599 6.5962L13.5457 5.18198C12.9599 5.76777 12.9599 6.71752 13.5457 7.3033L14.9599 5.88909ZM21.3239 12.2531L14.9599 5.88909L13.5457 7.3033L19.9097 13.6673L21.3239 12.2531ZM20.6168 12.2531C20.812 12.0578 21.1286 12.0578 21.3239 12.2531L19.9097 13.6673C20.4955 14.2531 21.4452 14.2531 22.031 13.6673L20.6168 12.2531ZM22.7381 10.1317L20.6168 12.2531L22.031 13.6673L24.1523 11.5459L22.7381 10.1317ZM22.7381 10.8388C22.5428 10.6436 22.5428 10.327 22.7381 10.1317L24.1523 11.5459C24.7381 10.9602 24.7381 10.0104 24.1523 9.42462L22.7381 10.8388ZM16.3741 4.47488L22.7381 10.8388L24.1523 9.42462L17.7884 3.06066L16.3741 4.47488ZM17.0812 4.47488C16.886 4.67014 16.5694 4.67014 16.3741 4.47488L17.7884 3.06066C17.2026 2.47488 16.2528 2.47488 15.667 3.06066L17.0812 4.47488ZM14.9599 6.5962L17.0812 4.47488L15.667 3.06066L13.5457 5.18198L14.9599 6.5962ZM15.8866 16.8426L22.7603 25.2438L24.3082 23.9773L17.4345 15.5761L15.8866 16.8426ZM17.502 13.9536L15.9534 15.5022L17.3676 16.9164L18.9162 15.3678L17.502 13.9536ZM27.2435 20.7605L18.8423 13.8868L17.5759 15.4347L25.9771 22.3084L27.2435 20.7605ZM27.4651 25.2037C28.7202 23.9487 28.6172 21.8844 27.2435 20.7605L25.9771 22.3084C26.4349 22.683 26.4693 23.3711 26.0509 23.7895L27.4651 25.2037ZM27.2035 25.4654L27.4651 25.2037L26.0509 23.7895L25.7892 24.0512L27.2035 25.4654ZM22.7603 25.2438C23.8842 26.6174 25.9484 26.7204 27.2035 25.4654L25.7892 24.0512C25.3709 24.4695 24.6828 24.4352 24.3082 23.9773L22.7603 25.2438ZM17.4348 12.6066L14.6064 15.435L16.0206 16.8492L18.849 14.0208L17.4348 12.6066ZM27.8768 19.9865L18.7751 12.5398L17.5087 14.0877L26.6103 21.5344L27.8768 19.9865ZM28.1722 25.9108C29.8456 24.2374 29.7083 21.4851 27.8768 19.9865L26.6103 21.5344C27.5261 22.2837 27.5947 23.6599 26.758 24.4966L28.1722 25.9108ZM27.9106 26.1725L28.1722 25.9108L26.758 24.4966L26.4963 24.7583L27.9106 26.1725ZM21.9863 25.877C23.4849 27.7086 26.2372 27.8458 27.9106 26.1725L26.4963 24.7583C25.6597 25.5949 24.2835 25.5263 23.5342 24.6105L21.9863 25.877ZM14.5395 16.7754L21.9863 25.877L23.5342 24.6105L16.0874 15.5089L14.5395 16.7754Z" fill="#152827" mask="url(#path-2-inside-1)"/>
<path d="M3 28.5714C3 27.1513 4.15127 26 5.57143 26H12.4286C13.8487 26 15 27.1513 15 28.5714C15 28.8081 14.8081 29 14.5714 29H3.42857C3.19188 29 3 28.8081 3 28.5714Z" fill="#F0A337" stroke="#152827"/>
</svg>
