<svg width="32" height="32" viewBox="0 0 32 32" fill="none" xmlns="http://www.w3.org/2000/svg">
<path d="M15.0275 13.5972L13.916 11.0377L16.016 9.4881L18.0946 11.0163L17.0099 13.5972H15.0275Z" fill="#F0A337"/>
<path d="M12.3506 23.3545L15.0277 13.5972H17.0101L19.6872 23.3545L16.0162 28.3774L12.3506 23.3545Z" fill="#F0A337"/>
<path d="M29.4656 7.6918H22.7542L23.2885 6.8903C23.348 6.8018 23.3797 6.6976 23.3794 6.591V3.5292C23.3799 3.3205 23.2589 3.1306 23.0695 3.0429C22.9986 3.0127 22.922 2.9981 22.845 3.0002H9.17099C9.09398 2.9981 9.01743 3.0127 8.94656 3.0429C8.75714 3.1306 8.63611 3.3205 8.63664 3.5292V6.5857C8.63637 6.6923 8.66803 6.7965 8.72748 6.8849L9.26183 7.6865H2.53435C2.23926 7.6865 2 7.9257 2 8.2208C2 8.5159 2.23926 8.7552 2.53435 8.7552H10.0153L12.3076 12.1162C12.3899 12.2359 12.5172 12.3168 12.6603 12.3407H12.7511C12.8668 12.3407 12.9792 12.3032 13.0718 12.2338L13.7023 11.7689L14.4718 13.5376L11.8374 23.1239C11.7939 23.282 11.8254 23.4515 11.9229 23.5834L15.5885 28.6063C15.7616 28.8454 16.0957 28.8989 16.3347 28.7258C16.3806 28.6925 16.4209 28.6523 16.4542 28.6063L20.1198 23.5834C20.2174 23.4515 20.2489 23.282 20.2053 23.1239L17.571 13.5483L18.3191 11.7636L18.9763 12.2498C19.0674 12.3181 19.1778 12.3555 19.2916 12.3567H19.3824C19.5256 12.3328 19.6529 12.2519 19.7351 12.1323L22.0275 8.7712H29.4656C29.7607 8.7712 30 8.5319 30 8.2368C30 7.9417 29.7607 7.7025 29.4656 7.7025V7.6918ZM21.4183 4.0636L19.4786 5.7254H12.5321L10.6191 4.0636H21.4183ZM16 8.6964L13.7878 6.7994H18.2176L16 8.6964ZM16.4489 10.3956L17.4374 11.101L16.6519 12.9658H15.3802L14.5733 11.117L16.016 10.0483L16.4489 10.3956ZM13.5794 10.5239L12.858 11.0582L9.69466 6.42V4.6887L15.1504 9.3643L13.5794 10.5239ZM19.0832 23.1613L16 27.3826L12.9168 23.1559L15.4176 14.0452H16.5824L19.0832 23.1613ZM22.2893 6.4254L19.126 11.0636L18.3725 10.5292L16.8389 9.3964L22.3267 4.6887L22.2893 6.4254Z" fill="#152827"/>
</svg>
