<svg width="32" height="32" viewBox="0 0 32 32" fill="none" xmlns="http://www.w3.org/2000/svg">
<path d="M6.55138 8.77404L15.5513 4.22672C15.8349 4.08344 16.1651 4.08344 16.4487 4.22672L25.4486 8.77404C25.7853 8.94417 26.0016 9.29038 25.9923 9.66753C25.8379 15.911 23.3366 25.2726 16.3189 27.8869C16.1141 27.9632 15.8859 27.9632 15.6811 27.8869C8.66339 25.2726 6.16208 15.911 6.0077 9.66753C5.99837 9.29038 6.21466 8.94417 6.55138 8.77404Z" stroke="#152827"/>
<path fill-rule="evenodd" clip-rule="evenodd" d="M14.8997 10H17.0997V13.5947L20.2128 11.7974L21.3128 13.7026L18.1997 15.5L21.3128 17.2974L20.2128 19.2026L17.0997 17.4053V21H14.8997V17.4052L11.7865 19.2026L10.6865 17.2974L13.7997 15.5L10.6865 13.7026L11.7865 11.7974L14.8997 13.5948V10Z" fill="#F0A337"/>
<path d="M17.0997 10H17.5997C17.5997 9.72386 17.3759 9.5 17.0997 9.5V10ZM14.8997 10V9.5C14.6236 9.5 14.3997 9.72386 14.3997 10H14.8997ZM17.0997 13.5947H16.5997C16.5997 13.7733 16.695 13.9384 16.8497 14.0277C17.0044 14.117 17.195 14.117 17.3497 14.0277L17.0997 13.5947ZM20.2128 11.7974L20.6458 11.5474C20.5077 11.3082 20.202 11.2263 19.9628 11.3644L20.2128 11.7974ZM21.3128 13.7026L21.5628 14.1356C21.6776 14.0693 21.7614 13.9601 21.7958 13.832C21.8301 13.7039 21.8121 13.5675 21.7458 13.4526L21.3128 13.7026ZM18.1997 15.5L17.9497 15.067C17.795 15.1563 17.6997 15.3214 17.6997 15.5C17.6997 15.6786 17.795 15.8437 17.9497 15.933L18.1997 15.5ZM21.3128 17.2974L21.7458 17.5474C21.8121 17.4325 21.8301 17.296 21.7958 17.168C21.7614 17.0399 21.6776 16.9307 21.5628 16.8644L21.3128 17.2974ZM20.2128 19.2026L19.9628 19.6356C20.2019 19.7737 20.5077 19.6918 20.6458 19.4526L20.2128 19.2026ZM17.0997 17.4053L17.3497 16.9723C17.195 16.883 17.0044 16.883 16.8497 16.9723C16.695 17.0616 16.5997 17.2267 16.5997 17.4053H17.0997ZM17.0997 21V21.5C17.3759 21.5 17.5997 21.2761 17.5997 21H17.0997ZM14.8997 21H14.3997C14.3997 21.2761 14.6236 21.5 14.8997 21.5V21ZM14.8997 17.4052H15.3997C15.3997 17.2266 15.3044 17.0615 15.1497 16.9722C14.995 16.8829 14.8044 16.8829 14.6497 16.9722L14.8997 17.4052ZM11.7865 19.2026L11.3535 19.4526C11.4916 19.6918 11.7974 19.7737 12.0365 19.6356L11.7865 19.2026ZM10.6865 17.2974L10.4365 16.8644C10.3217 16.9307 10.2379 17.0399 10.2036 17.168C10.1692 17.296 10.1872 17.4325 10.2535 17.5474L10.6865 17.2974ZM13.7997 15.5L14.0497 15.933C14.2044 15.8437 14.2997 15.6786 14.2997 15.5C14.2997 15.3214 14.2044 15.1563 14.0497 15.067L13.7997 15.5ZM10.6865 13.7026L10.2535 13.4526C10.1872 13.5675 10.1692 13.7039 10.2036 13.832C10.2379 13.9601 10.3217 14.0693 10.4365 14.1356L10.6865 13.7026ZM11.7865 11.7974L12.0365 11.3644C11.7974 11.2263 11.4916 11.3082 11.3535 11.5474L11.7865 11.7974ZM14.8997 13.5948L14.6497 14.0278C14.8044 14.1171 14.995 14.1171 15.1497 14.0278C15.3044 13.9385 15.3997 13.7734 15.3997 13.5948H14.8997ZM17.0997 9.5H14.8997V10.5H17.0997V9.5ZM17.5997 13.5947V10H16.5997V13.5947H17.5997ZM19.9628 11.3644L16.8497 13.1617L17.3497 14.0277L20.4628 12.2304L19.9628 11.3644ZM21.7458 13.4526L20.6458 11.5474L19.7798 12.0474L20.8798 13.9526L21.7458 13.4526ZM18.4497 15.933L21.5628 14.1356L21.0628 13.2696L17.9497 15.067L18.4497 15.933ZM17.9497 15.933L21.0628 17.7304L21.5628 16.8644L18.4497 15.067L17.9497 15.933ZM20.8798 17.0474L19.7798 18.9526L20.6458 19.4526L21.7458 17.5474L20.8798 17.0474ZM20.4628 18.7696L17.3497 16.9723L16.8497 17.8383L19.9628 19.6356L20.4628 18.7696ZM17.5997 21V17.4053H16.5997V21H17.5997ZM14.8997 21.5H17.0997V20.5H14.8997V21.5ZM14.3997 17.4052V21H15.3997V17.4052H14.3997ZM12.0365 19.6356L15.1497 17.8382L14.6497 16.9722L11.5365 18.7696L12.0365 19.6356ZM10.2535 17.5474L11.3535 19.4526L12.2195 18.9526L11.1195 17.0474L10.2535 17.5474ZM13.5497 15.067L10.4365 16.8644L10.9365 17.7304L14.0497 15.933L13.5497 15.067ZM14.0497 15.067L10.9365 13.2696L10.4365 14.1356L13.5497 15.933L14.0497 15.067ZM11.1195 13.9526L12.2195 12.0474L11.3535 11.5474L10.2535 13.4526L11.1195 13.9526ZM11.5365 12.2304L14.6497 14.0278L15.1497 13.1618L12.0365 11.3644L11.5365 12.2304ZM14.3997 10V13.5948H15.3997V10H14.3997Z" fill="#152827"/>
</svg>
