<svg width="24" height="24" viewBox="0 0 24 24" fill="none" xmlns="http://www.w3.org/2000/svg">
<path d="M4.91353 6.58053L11.6635 3.17004C11.8761 3.06258 12.1239 3.06258 12.3365 3.17004L19.0865 6.58053C19.339 6.70813 19.5012 6.96779 19.4942 7.25065C19.3784 11.9333 17.5025 18.9544 12.2392 20.9152C12.0856 20.9724 11.9144 20.9724 11.7608 20.9152C6.49754 18.9544 4.62156 11.9333 4.50577 7.25064C4.49878 6.96779 4.66099 6.70813 4.91353 6.58053Z" stroke="#152827"/>
<path fill-rule="evenodd" clip-rule="evenodd" d="M11.1746 7.5H12.8246V10.1961L15.1595 8.84803L15.9845 10.277L13.6496 11.625L15.9844 12.973L15.1594 14.402L12.8246 13.054V15.75H11.1746V13.054L8.83975 14.402L8.01475 12.973L10.3496 11.625L8.01465 10.277L8.83965 8.84803L11.1746 10.1961V7.5Z" fill="#F0A337"/>
<path d="M12.8246 7.5H13.1996C13.1996 7.29289 13.0317 7.125 12.8246 7.125V7.5ZM11.1746 7.5V7.125C10.9675 7.125 10.7996 7.29289 10.7996 7.5H11.1746ZM12.8246 10.1961H12.4496C12.4496 10.3301 12.521 10.4538 12.6371 10.5208C12.7531 10.5878 12.896 10.5878 13.0121 10.5208L12.8246 10.1961ZM15.1595 8.84803L15.4842 8.66053C15.3807 8.48117 15.1513 8.41972 14.972 8.52327L15.1595 8.84803ZM15.9845 10.277L16.172 10.6017C16.3513 10.4982 16.4128 10.2688 16.3092 10.0895L15.9845 10.277ZM13.6496 11.625L13.4621 11.3003C13.346 11.3673 13.2746 11.4911 13.2746 11.625C13.2746 11.759 13.346 11.8828 13.4621 11.9498L13.6496 11.625ZM15.9844 12.973L16.3091 13.1605C16.4127 12.9812 16.3512 12.7518 16.1719 12.6483L15.9844 12.973ZM15.1594 14.402L14.9719 14.7267C15.1512 14.8303 15.3806 14.7688 15.4841 14.5895L15.1594 14.402ZM12.8246 13.054L13.0121 12.7292C12.8961 12.6622 12.7531 12.6622 12.6371 12.7292C12.5211 12.7962 12.4496 12.92 12.4496 13.054H12.8246ZM12.8246 15.75V16.125C13.0317 16.125 13.1996 15.9571 13.1996 15.75H12.8246ZM11.1746 15.75H10.7996C10.7996 15.9571 10.9675 16.125 11.1746 16.125V15.75ZM11.1746 13.054H11.5496C11.5496 12.92 11.4781 12.7962 11.3621 12.7292C11.2461 12.6622 11.1031 12.6622 10.9871 12.7292L11.1746 13.054ZM8.83975 14.402L8.51499 14.5895C8.61854 14.7688 8.84789 14.8303 9.02725 14.7267L8.83975 14.402ZM8.01475 12.973L7.82725 12.6483C7.74112 12.698 7.67827 12.7799 7.65253 12.876C7.62678 12.972 7.64026 13.0744 7.68999 13.1605L8.01475 12.973ZM10.3496 11.625L10.5371 11.9498C10.6531 11.8828 10.7246 11.759 10.7246 11.625C10.7246 11.4911 10.6531 11.3673 10.5371 11.3003L10.3496 11.625ZM8.01465 10.277L7.68989 10.0895C7.64016 10.1756 7.62669 10.278 7.65243 10.374C7.67817 10.4701 7.74102 10.552 7.82715 10.6017L8.01465 10.277ZM8.83965 8.84803L9.02715 8.52327C8.84779 8.41972 8.61844 8.48117 8.51489 8.66053L8.83965 8.84803ZM11.1746 10.1961L10.9871 10.5209C11.1031 10.5878 11.2461 10.5878 11.3621 10.5209C11.4781 10.4539 11.5496 10.3301 11.5496 10.1961H11.1746ZM12.8246 7.125H11.1746V7.875H12.8246V7.125ZM13.1996 10.1961V7.5H12.4496V10.1961H13.1996ZM14.972 8.52327L12.6371 9.87132L13.0121 10.5208L15.347 9.17279L14.972 8.52327ZM16.3092 10.0895L15.4842 8.66053L14.8347 9.03553L15.6597 10.4645L16.3092 10.0895ZM13.8371 11.9498L16.172 10.6017L15.797 9.95221L13.4621 11.3003L13.8371 11.9498ZM13.4621 11.9498L15.7969 13.2978L16.1719 12.6483L13.8371 11.3003L13.4621 11.9498ZM15.6596 12.7855L14.8346 14.2145L15.4841 14.5895L16.3091 13.1605L15.6596 12.7855ZM15.3469 14.0772L13.0121 12.7292L12.6371 13.3787L14.9719 14.7267L15.3469 14.0772ZM13.1996 15.75V13.054H12.4496V15.75H13.1996ZM11.1746 16.125H12.8246V15.375H11.1746V16.125ZM10.7996 13.054V15.75H11.5496V13.054H10.7996ZM9.02725 14.7267L11.3621 13.3787L10.9871 12.7292L8.65225 14.0772L9.02725 14.7267ZM7.68999 13.1605L8.51499 14.5895L9.16451 14.2145L8.33951 12.7855L7.68999 13.1605ZM10.1621 11.3003L7.82725 12.6483L8.20225 13.2978L10.5371 11.9498L10.1621 11.3003ZM10.5371 11.3003L8.20215 9.95221L7.82715 10.6017L10.1621 11.9498L10.5371 11.3003ZM8.33941 10.4645L9.16441 9.03553L8.51489 8.66053L7.68989 10.0895L8.33941 10.4645ZM8.65215 9.17279L10.9871 10.5209L11.3621 9.87134L9.02715 8.52327L8.65215 9.17279ZM10.7996 7.5V10.1961H11.5496V7.5H10.7996Z" fill="#152827"/>
</svg>
