<svg width="24" height="24" viewBox="0 0 24 24" fill="none" xmlns="http://www.w3.org/2000/svg">
<path d="M3.94804 11.0909C2.87429 11.0909 2 12.0325 2 13.1888V19.9021C2 21.0585 2.87429 22 3.94804 22H6.2857C6.72442 22 7.12803 21.8406 7.45453 21.5754V11.0909H3.94804Z" fill="#152827"/>
<path d="M22.0001 13.9318C22.0001 13.4103 21.7973 12.9243 21.4453 12.5659C21.8433 12.1225 22.0461 11.5281 21.9907 10.9094C21.891 9.80642 20.9152 8.94213 19.768 8.94213H14.5035C14.7643 8.13595 15.1819 6.65817 15.1819 5.47106C15.1819 3.58887 13.6112 2 12.6251 2C11.7396 2 11.1072 2.50765 11.0799 2.52847C10.9794 2.61092 10.9206 2.73588 10.9206 2.86776V5.81035L8.46604 11.2244L8.36377 11.2773V20.5781C9.05751 20.9113 9.93533 21.0909 10.4944 21.0909H18.3175C19.2456 21.0909 20.0578 20.454 20.2487 19.5749C20.3467 19.1228 20.2896 18.6672 20.0945 18.2715C20.7243 17.9487 21.1479 17.2883 21.1479 16.5351C21.1479 16.2279 21.0788 15.9338 20.9476 15.6674C21.5774 15.3446 22.0001 14.6842 22.0001 13.9318Z" fill="#152827"/>
</svg>
