<svg width="32" height="32" viewBox="0 0 32 32" fill="none" xmlns="http://www.w3.org/2000/svg">
<path d="M11.6519 20.3404H14.2871L13.7601 28H11.6519V20.3404Z" stroke="#152827" stroke-linecap="round" stroke-linejoin="round"/>
<path d="M13.76 9.10638C13.76 9.10638 11.6343 9.38285 10.5977 10.6383C8.48945 13.1915 9.54355 20.3404 9.54355 20.3404H14.8141L15.126 14.0738L20.0847 17.2766L21.1389 16.2553L13.76 9.10638Z" fill="#F0A337"/>
<path d="M15.126 14.0738L20.0847 17.2766L21.1389 16.2553L13.76 9.10638C13.76 9.10638 11.6343 9.38285 10.5977 10.6383C8.48945 13.1915 9.54355 20.3404 9.54355 20.3404H14.8141L15.126 14.0738ZM15.126 14.0738L13.76 13.1915" stroke="#152827" stroke-linecap="round" stroke-linejoin="round"/>
<ellipse cx="14.8138" cy="6.04255" rx="2.10824" ry="2.04255" stroke="#152827"/>
<path d="M22.7204 28L22.2681 19.6732C22.2262 18.9018 21.5885 18.2979 20.816 18.2979V18.2979C19.8947 18.2979 19.2056 19.1438 19.3919 20.046L19.5581 20.8511" stroke="#152827" stroke-linecap="round" stroke-linejoin="round"/>
</svg>
