<svg width="32" height="32" viewBox="0 0 32 32" fill="none" xmlns="http://www.w3.org/2000/svg">
<path d="M3.5 18C3.5 17.4477 3.94772 17 4.5 17H7C7.55228 17 8 17.4477 8 18V19V25V26C8 26.5523 7.55228 27 7 27H4.5C3.94772 27 3.5 26.5523 3.5 26V18Z" fill="#F0A337"/>
<path d="M14.5498 22.5025C14.275 22.475 14.03 22.6755 14.0025 22.9502C13.975 23.225 14.1755 23.47 14.4502 23.4975L14.5498 22.5025ZM28 18.5L27.6464 18.8536L28 18.5ZM26 18.3125L26.265 18.7365L26 18.3125ZM22 19L21.7428 18.5713C21.736 18.5753 21.7292 18.5796 21.7227 18.584L22 19ZM22.8333 18.5L23.0906 18.9287V18.9287L22.8333 18.5ZM23.035 19.576C22.8008 19.7224 22.7296 20.0308 22.876 20.265C23.0224 20.4992 23.3308 20.5704 23.565 20.424L23.035 19.576ZM21.2227 18.9173C20.9929 19.0705 20.9308 19.3809 21.084 19.6107C21.2372 19.8404 21.5476 19.9025 21.7773 19.7494L21.2227 18.9173ZM22.0184 17.8888L22.3184 17.4888L22.0184 17.8888ZM20.9333 17.8143L21.1759 18.2516L20.9333 17.8143ZM26.2292 18.1692L26.4942 18.5932L26.2292 18.1692ZM19.6985 23.422L19.5003 22.9629L19.6985 23.422ZM19.2872 23.4787L19.2374 23.9762L19.2872 23.4787ZM25.0016 17.7717L25.2397 17.3321L25.0016 17.7717ZM20.07 20.5392L19.8138 20.9686L20.07 20.5392ZM19.9231 20.476L20.0722 19.9987L19.9231 20.476ZM28.4148 19.4184L28.9032 19.3117L28.4148 19.4184ZM17.8439 26.7811L17.5755 26.3593L17.8439 26.7811ZM4.5 17.5H7V16.5H4.5V17.5ZM7 26.5H4.5V27.5H7V26.5ZM4 26V18H3V26H4ZM7.5 18V19H8.5V18H7.5ZM8.12127 19.4851L11.8487 18.5532L11.6061 17.5831L7.87873 18.5149L8.12127 19.4851ZM19.8138 20.9686C20.0275 21.096 20.5 21.4538 20.5 22H21.5C21.5 20.8695 20.5669 20.2534 20.3261 20.1098L19.8138 20.9686ZM20.5 22C20.5 22.178 20.3982 22.3635 20.1753 22.556C19.9562 22.7452 19.6835 22.8838 19.5003 22.9629L19.8967 23.881C20.1211 23.7841 20.4992 23.5977 20.8289 23.3129C21.1548 23.0314 21.5 22.5939 21.5 22H20.5ZM19.3369 22.9812L14.5498 22.5025L14.4502 23.4975L19.2374 23.9762L19.3369 22.9812ZM12.1191 18.5611L17.3509 20.196L17.6491 19.2415L12.4173 17.6066L12.1191 18.5611ZM17.3509 20.196L19.774 20.9532L20.0722 19.9987L17.6491 19.2415L17.3509 20.196ZM7.5 19V25H8.5V19H7.5ZM7.5 25V26H8.5V25H7.5ZM7.89699 25.4893L16.9981 27.4053L17.2041 26.4267L8.10301 24.5107L7.89699 25.4893ZM18.1124 27.203L28.2721 20.7377L27.7352 19.894L17.5755 26.3593L18.1124 27.203ZM28.9032 19.3117C28.831 18.9811 28.683 18.4759 28.3536 18.1464L27.6464 18.8536C27.7557 18.9628 27.858 19.2128 27.9263 19.5251L28.9032 19.3117ZM28.3536 18.1464C28.1322 17.9251 27.8396 17.7919 27.5939 17.7083C27.3395 17.6217 27.0835 17.5713 26.8925 17.5421L26.7414 18.5306C26.8996 18.5548 27.093 18.5941 27.2718 18.655C27.4593 18.7188 27.5836 18.7907 27.6464 18.8536L28.3536 18.1464ZM25.9642 17.7452L25.735 17.8885L26.265 18.7365L26.4942 18.5932L25.9642 17.7452ZM26.2381 17.8729L25.2397 17.3321L24.7635 18.2114L25.7619 18.7521L26.2381 17.8729ZM23.7536 17.3648L22.5761 18.0713L23.0906 18.9287L24.2681 18.2222L23.7536 17.3648ZM22.5761 18.0713L21.7428 18.5713L22.2572 19.4287L23.0906 18.9287L22.5761 18.0713ZM23.1333 18.1L22.3184 17.4888L21.7184 18.2888L22.5333 18.9L23.1333 18.1ZM20.6908 17.3771L17.2575 19.2815L17.7425 20.156L21.1759 18.2516L20.6908 17.3771ZM26 18.3125C25.735 17.8885 25.735 17.8885 25.735 17.8885C25.735 17.8885 25.735 17.8885 25.7349 17.8885C25.7348 17.8886 25.7349 17.8886 25.7347 17.8887C25.7345 17.8888 25.7342 17.889 25.7338 17.8892C25.733 17.8897 25.7318 17.8905 25.7302 17.8915C25.7271 17.8934 25.7224 17.8964 25.7163 17.9002C25.704 17.9079 25.6858 17.9193 25.6622 17.934C25.6152 17.9634 25.5468 18.0061 25.4614 18.0595C25.2907 18.1662 25.052 18.3154 24.7804 18.4851C24.2372 18.8246 23.5622 19.2465 23.035 19.576L23.565 20.424C24.0922 20.0945 24.7672 19.6726 25.3104 19.3331C25.582 19.1634 25.8207 19.0142 25.9914 18.9075C26.0768 18.8541 26.1452 18.8114 26.1922 18.782C26.2158 18.7673 26.2339 18.7559 26.2463 18.7482C26.2524 18.7444 26.2571 18.7414 26.2602 18.7395C26.2618 18.7385 26.263 18.7378 26.2638 18.7372C26.2642 18.737 26.2645 18.7368 26.2647 18.7367C26.2649 18.7366 26.2648 18.7366 26.2649 18.7365C26.2649 18.7365 26.265 18.7365 26.265 18.7365C26.265 18.7365 26.265 18.7365 26 18.3125ZM21.7227 18.584L21.2227 18.9173L21.7773 19.7494L22.2773 19.416L21.7227 18.584ZM22.3184 17.4888C21.8453 17.134 21.2079 17.0902 20.6908 17.3771L21.1759 18.2516C21.3482 18.1559 21.5607 18.1705 21.7184 18.2888L22.3184 17.4888ZM26.8925 17.5421C26.55 17.4897 26.2244 17.5827 25.9642 17.7452L26.4942 18.5932C26.5864 18.5356 26.6732 18.5202 26.7414 18.5306L26.8925 17.5421ZM19.5003 22.9629C19.464 22.9786 19.4107 22.9886 19.3369 22.9812L19.2374 23.9762C19.4442 23.9969 19.6741 23.9771 19.8967 23.881L19.5003 22.9629ZM25.2397 17.3321C24.7734 17.0795 24.2084 17.0919 23.7536 17.3648L24.2681 18.2222C24.4197 18.1313 24.608 18.1272 24.7635 18.2114L25.2397 17.3321ZM20.3261 20.1098C20.2355 20.0558 20.1465 20.0219 20.0722 19.9987L19.774 20.9532C19.8021 20.962 19.8123 20.9677 19.8138 20.9686L20.3261 20.1098ZM4.5 26.5C4.22386 26.5 4 26.2761 4 26H3C3 26.8284 3.67157 27.5 4.5 27.5V26.5ZM28.2721 20.7377C28.7197 20.4528 29.0339 19.9098 28.9032 19.3117L27.9263 19.5251C27.9506 19.6366 27.9003 19.789 27.7352 19.894L28.2721 20.7377ZM7 27.5C7.82843 27.5 8.5 26.8284 8.5 26H7.5C7.5 26.2761 7.27614 26.5 7 26.5V27.5ZM16.9981 27.4053C17.3817 27.486 17.7817 27.4134 18.1124 27.203L17.5755 26.3593C17.4653 26.4294 17.3319 26.4537 17.2041 26.4267L16.9981 27.4053ZM7 17.5C7.27614 17.5 7.5 17.7239 7.5 18H8.5C8.5 17.1716 7.82843 16.5 7 16.5V17.5ZM11.8487 18.5532C11.9378 18.5309 12.0314 18.5336 12.1191 18.5611L12.4173 17.6066C12.1542 17.5244 11.8736 17.5162 11.6061 17.5831L11.8487 18.5532ZM4.5 16.5C3.67157 16.5 3 17.1716 3 18H4C4 17.7239 4.22386 17.5 4.5 17.5V16.5Z" fill="#152827"/>
<path d="M18.1031 9.69131C17.6752 9.36939 17.1793 9.19241 16.687 9.04945C16.6201 9.03011 16.5544 9.0145 16.4875 8.99644V5.94491C16.9629 6.01791 17.3145 6.16989 17.5484 6.35748C17.7141 6.48948 17.8282 6.63745 17.9065 6.80371C17.9836 6.97003 18.0248 7.15761 18.0251 7.37287C18.0251 7.64882 18.2435 7.87275 18.5126 7.87275C18.7816 7.87275 19 7.64882 19 7.37287C19.0003 7.02392 18.9305 6.68237 18.7862 6.3728C18.5704 5.90658 18.1863 5.52472 17.6869 5.27608C17.3414 5.10341 16.9385 4.99378 16.4878 4.93948V4.49989C16.4878 4.22358 16.2694 4 16.0004 4C15.7309 4 15.5129 4.22358 15.5129 4.49989V4.91181C15.1597 4.93977 14.8425 5.01079 14.5618 5.12042C14.01 5.3344 13.6061 5.6996 13.3562 6.10983C13.1053 6.52036 13.0007 6.96659 13.0004 7.37287C12.9991 7.8004 13.0994 8.18535 13.2883 8.49894C13.4524 8.77356 13.6753 8.98683 13.9184 9.15047C14.3457 9.43673 14.8338 9.5907 15.3202 9.72399C15.3842 9.741 15.4485 9.75766 15.5126 9.77397V13.0565C15.0384 13.0029 14.6748 12.8469 14.4308 12.6343C14.1315 12.3703 13.9782 12.034 13.9749 11.6048C13.9749 11.3285 13.7565 11.1049 13.4875 11.1049C13.2184 11.1049 13 11.3285 13 11.6048C12.9965 12.3037 13.2869 12.9555 13.801 13.3974C14.242 13.78 14.8301 14.0093 15.5125 14.0659V14.5001C15.5125 14.7761 15.7305 15 16 15C16.269 15 16.4874 14.7761 16.4874 14.5001V14.0479C17.0392 13.9908 17.5545 13.8513 17.9952 13.5713C18.2961 13.3787 18.557 13.1121 18.7332 12.7752C18.9106 12.4393 19.0003 12.0421 18.9996 11.6048C19.0002 11.1486 18.9047 10.744 18.7234 10.4067C18.5656 10.1116 18.3465 9.87522 18.1031 9.69131ZM15.5122 8.74053C15.0378 8.61021 14.6288 8.45764 14.3788 8.26097C14.2443 8.15663 14.1513 8.047 14.0847 7.91336C14.0187 7.77873 13.9755 7.61171 13.9748 7.37281C13.9745 7.06557 14.0847 6.69763 14.3537 6.41742C14.4893 6.2758 14.666 6.1495 14.9081 6.05484C15.0748 5.98988 15.2762 5.94182 15.5122 5.91689L15.5122 8.74053ZM17.8753 12.3001C17.8064 12.4301 17.7177 12.5371 17.602 12.633C17.4291 12.7757 17.1893 12.8906 16.8904 12.9669C16.7656 12.9989 16.6294 13.0226 16.4874 13.0409V10.032C16.7854 10.1202 17.0584 10.2176 17.2794 10.3395C17.526 10.4734 17.7037 10.6254 17.8246 10.8128C17.9442 11.0011 18.0231 11.2373 18.0248 11.6046C18.0241 11.9069 17.9656 12.1271 17.8753 12.3001Z" fill="#152827"/>
</svg>
