<svg width="24" height="24" viewBox="0 0 24 24" fill="none" xmlns="http://www.w3.org/2000/svg">
<path d="M19.6413 16.6552L17.1704 14.1784C16.6782 13.6871 15.8632 13.702 15.3538 14.2127L14.109 15.4601C14.0303 15.4167 13.9489 15.3713 13.8633 15.3231C13.0772 14.8866 12.0012 14.2882 10.869 13.1526C9.73347 12.0146 9.1359 10.9345 8.69898 10.1461C8.65288 10.0626 8.6087 9.98207 8.56508 9.90559L9.40057 9.06945L9.81134 8.65725C10.3214 8.14586 10.3355 7.32921 9.84448 6.83648L7.37353 4.35937C6.88251 3.86733 6.0671 3.88226 5.55701 4.39365L4.86061 5.09563L4.87964 5.11457C4.64613 5.4132 4.451 5.75763 4.30579 6.12905C4.17193 6.4826 4.08859 6.81998 4.05049 7.15805C3.72421 9.86906 4.96026 12.3467 8.31474 15.7088C12.9517 20.3559 16.6884 20.0049 16.8496 19.9877C17.2007 19.9457 17.5372 19.8616 17.8791 19.7285C18.2465 19.5847 18.5899 19.3894 18.8877 19.1558L18.9029 19.1694L19.6084 18.477C20.1174 17.9657 20.1321 17.1487 19.6413 16.6552Z" fill="#D0AF71"/>
</svg>
