<svg width="24" height="24" viewBox="0 0 24 24" fill="none" xmlns="http://www.w3.org/2000/svg">
<path fill-rule="evenodd" clip-rule="evenodd" d="M12.0001 3C11.5859 3 11.2501 3.33579 11.2501 3.75V11.25H3.75C3.33579 11.25 3 11.5858 3 12C3 12.4142 3.33579 12.75 3.75 12.75H11.2501V20.25C11.2501 20.6642 11.5859 21 12.0001 21C12.4143 21 12.7501 20.6642 12.7501 20.25V12.75H20.25C20.6642 12.75 21 12.4142 21 12C21 11.5858 20.6642 11.25 20.25 11.25H12.7501V3.75C12.7501 3.33579 12.4143 3 12.0001 3Z" fill="#152827"/>
</svg>
