<svg width="32" height="32" viewBox="0 0 32 32" fill="none" xmlns="http://www.w3.org/2000/svg">
<path d="M16 17C17.6569 17 19 15.6569 19 14C19 12.3431 17.6569 11 16 11C14.3431 11 13 12.3431 13 14C13 15.6569 14.3431 17 16 17Z" fill="#F0A337" stroke="#152827"/>
<path d="M16 19C13.2386 19 11 21.2944 11 24.1248V29.6078C11 29.8248 11.1864 30 11.4164 30H20.5836C20.8136 30 21 29.8242 21 29.6072V24.1248C21 21.2944 18.7614 19 16 19Z" stroke="#152827"/>
<path d="M22.6998 27C23.3753 26.5954 24.0108 26.1314 24.5989 25.6154C27.2978 23.2474 29 19.7829 29 15.9231C29 8.78586 23.1797 3 16 3C8.8203 3 3 8.78586 3 15.9231C3 19.7829 4.7022 23.2474 7.40107 25.6154C7.98921 26.1314 8.62469 26.5954 9.3002 27" stroke="#152827" stroke-linecap="round" stroke-linejoin="round"/>
<path d="M22.6146 23C24.6906 21.22 26 18.6157 26 15.7143C26 10.3492 21.5228 6 16 6C10.4772 6 6 10.3492 6 15.7143C6 18.6157 7.30939 21.22 9.38544 23" stroke="#152827" stroke-linecap="round" stroke-linejoin="round"/>
</svg>
