<svg width="32" height="32" viewBox="0 0 32 32" fill="none" xmlns="http://www.w3.org/2000/svg">
<path d="M6.55138 8.77404L15.5513 4.22672C15.8349 4.08344 16.1651 4.08344 16.4487 4.22672L25.4486 8.77404C25.7853 8.94417 26.0016 9.29038 25.9923 9.66753C25.8379 15.911 23.3366 25.2726 16.3189 27.8869C16.1141 27.9632 15.8859 27.9632 15.6811 27.8869C8.66339 25.2726 6.16208 15.911 6.0077 9.66753C5.99837 9.29038 6.21466 8.94417 6.55138 8.77404Z" stroke="#152827"/>
<path d="M21.5791 14.4244C22.1403 13.8697 22.1403 12.9706 21.5791 12.416C21.0188 11.8613 20.1089 11.8613 19.5476 12.416L15.4838 16.4328C15.297 16.6177 14.9944 16.6177 14.8067 16.4328L13.4524 15.0938C12.8911 14.5392 11.9822 14.5392 11.4209 15.0938C10.8597 15.6485 10.8597 16.5476 11.4209 17.1022L13.7914 19.4454C13.7943 19.4483 13.7972 19.4512 13.8 19.454C14.549 20.1848 15.7549 20.182 16.5 19.4454L21.5791 14.4244Z" fill="#F0A337" stroke="#152827"/>
</svg>
