<svg width="32" height="32" viewBox="0 0 32 32" fill="none" xmlns="http://www.w3.org/2000/svg">
<path d="M2.54297 8.16992H4.92596V22.325C6.08296 22.15 7.25096 22.059 8.42096 22.053C10.055 22.027 11.6819 22.272 13.2349 22.78L14.554 23.833C13.778 23.747 11.4379 23.703 10.6729 23.703C8.14491 23.681 5.63892 24.168 3.30292 25.136L2.54297 25.462V8.16992Z" fill="#F0A337"/>
<path d="M28.6912 25.136C26.3552 24.168 23.8492 23.681 21.3212 23.703C20.5502 23.703 18.3462 23.79 17.5762 23.877L18.7592 22.791C20.3182 22.278 21.9532 22.028 23.5952 22.053C24.7652 22.059 25.9331 22.15 27.0901 22.325V8.16992H29.4731V25.467L28.6912 25.136Z" fill="#F0A337"/>
<path d="M29.452 7.62721H27.612V6.99771C27.622 6.74851 27.461 6.52452 27.221 6.45492C25.944 6.12022 24.628 5.95231 23.308 5.95561C21.137 5.95561 18.179 6.44411 15.992 8.66931C13.821 6.42231 10.841 5.95561 8.67603 5.95561C7.35503 5.95231 6.04 6.12022 4.763 6.45492C4.523 6.52452 4.36201 6.74851 4.37201 6.99771V7.62181H2.54303C2.24303 7.62181 2 7.86481 2 8.16451V25.5001C2 25.7991 2.24303 26.0421 2.54303 26.0421C2.63603 26.0421 2.72802 26.0181 2.80902 25.9721C2.86302 25.9451 8.29 22.9761 15.867 24.8861H15.948H15.997C16.041 24.8921 16.084 24.8921 16.128 24.8861C23.726 22.9601 29.153 25.9231 29.186 25.9721C29.354 26.0691 29.561 26.0691 29.729 25.9721C29.896 25.8751 29.999 25.6981 30 25.5051V8.17002C30 7.87022 29.757 7.62721 29.457 7.62721C29.455 7.62721 29.454 7.62721 29.452 7.62721ZM3.08502 24.6371V8.71272H4.383V22.3251C4.379 22.6241 4.61901 22.8701 4.91901 22.8731C4.94901 22.8741 4.97802 22.8721 5.00702 22.8671C6.13002 22.6961 7.26299 22.6051 8.39899 22.5961C9.97199 22.5691 11.539 22.8051 13.034 23.2961C9.658 22.8881 6.23302 23.3491 3.08502 24.6371ZM15.455 23.2471C14.326 22.5091 12.122 21.5161 8.39899 21.5161C7.41199 21.5181 6.42598 21.5821 5.44598 21.7061V7.42642C6.50298 7.19102 7.58198 7.07092 8.66498 7.06822C10.695 7.06822 13.495 7.53502 15.438 9.72762L15.455 23.2471ZM16.54 9.72762C18.483 7.55672 21.284 7.06822 23.313 7.06822C24.396 7.07142 25.475 7.19152 26.532 7.42642V21.7061C25.558 21.5801 24.577 21.5151 23.596 21.5101C19.894 21.5101 17.685 22.5041 16.54 23.2421V9.72762ZM28.909 24.6371C25.755 23.3461 22.322 22.8841 18.939 23.2961C20.441 22.8041 22.015 22.5671 23.596 22.5961C24.739 22.6021 25.879 22.6911 27.009 22.8621C27.306 22.9071 27.583 22.7031 27.628 22.4071C27.632 22.3781 27.634 22.3481 27.634 22.3191V8.71272H28.931L28.909 24.6371Z" fill="#152827"/>
</svg>
