<svg width="32" height="32" viewBox="0 0 32 32" fill="none" xmlns="http://www.w3.org/2000/svg">
<rect x="3" y="7" width="26" height="18" rx="1" stroke="#152827"/>
<path d="M21.8328 19.5443L23.4309 22.5968C23.5544 22.8106 23.8699 22.7867 23.9601 22.5568L24.3371 21.5908C24.3875 21.4626 24.52 21.3862 24.6557 21.4069L25.6812 21.5631C25.9251 21.6002 26.1038 21.3386 25.9803 21.1248L24.3371 18.0507" stroke="#152827"/>
<path d="M20.7722 19.5443C23.4078 19.5443 25.5444 17.4077 25.5444 14.7721C25.5444 12.1366 23.4078 10 20.7722 10C18.1367 10 16.0001 12.1366 16.0001 14.7721C16.0001 17.4077 18.1367 19.5443 20.7722 19.5443Z" fill="#F0A337" stroke="#152827"/>
<path d="M17.5908 18.2187L16.5014 19.924C16.2867 20.26 16.5325 20.6998 16.9311 20.6931L17.2458 20.6878C17.4304 20.6847 17.6017 20.7836 17.6913 20.9451L17.8641 21.2563C18.0534 21.5974 18.5431 21.5999 18.7359 21.2607L19.7119 19.5443" stroke="#152827"/>
<line x1="5.5" y1="11.5" x2="13.5" y2="11.5" stroke="#152827" stroke-linecap="round" stroke-linejoin="round"/>
<line x1="5.5" y1="15.5" x2="13.5" y2="15.5" stroke="#152827" stroke-linecap="round" stroke-linejoin="round"/>
<line x1="5.5" y1="19.5" x2="13.5" y2="19.5" stroke="#152827" stroke-linecap="round" stroke-linejoin="round"/>
</svg>
