<svg width="32" height="32" viewBox="0 0 32 32" fill="none" xmlns="http://www.w3.org/2000/svg">
<path d="M15.774 3C12.033 3 9 5.95708 9 9.60483V15.7693C9 18.8105 11.108 21.3715 13.977 22.1392C14.46 22.2686 14.833 22.6842 14.833 23.1846V25.75C14.833 26.1148 14.53 26.4105 14.156 26.4105H10.677C10.303 26.4105 10 26.7062 10 27.071V28.3395C10 28.7043 10.303 29 10.677 29H21.322C21.696 29 22 28.7043 22 28.3395V27.071C22 26.7062 21.696 26.4105 21.322 26.4105H17.844C17.47 26.4105 17.167 26.1148 17.167 25.75V23.1847C17.167 22.6843 17.539 22.2686 18.023 22.1393C20.892 21.3715 23 18.8105 23 15.7693V9.60484C23 5.95709 19.967 3 16.226 3H15.774Z" stroke="#152827"/>
<path d="M19.63 8H12.3701C12.1657 8 12 8.22932 12 8.5122V9.4878C12 9.77068 12.1657 10 12.3701 10H19.63C19.8344 10 20 9.77068 20 9.4878V8.5122C20 8.22932 19.8344 8 19.63 8Z" fill="#F0A337" stroke="#152827"/>
<path d="M19.63 12H12.3701C12.1657 12 12 12.2293 12 12.5122V13.4878C12 13.7707 12.1657 14 12.3701 14H19.63C19.8344 14 20 13.7707 20 13.4878V12.5122C20 12.2293 19.8344 12 19.63 12Z" fill="#F0A337" stroke="#152827"/>
<path d="M19.63 16H12.3701C12.1657 16 12 16.2293 12 16.5122V17.4878C12 17.7707 12.1657 18 12.3701 18H19.63C19.8344 18 20 17.7707 20 17.4878V16.5122C20 16.2293 19.8344 16 19.63 16Z" fill="#F0A337" stroke="#152827"/>
</svg>
