<svg width="32" height="32" viewBox="0 0 32 32" fill="none" xmlns="http://www.w3.org/2000/svg">
<path d="M27.0001 14.2467C27.0001 20.4583 22.0752 25.4934 16 25.4934C14.9295 25.4934 9.96825 27.75 7.4038 28.9518C6.95035 29.1636 6.48166 28.6346 6.72892 28.1949C7.78631 26.3132 9.35627 23.253 8.724 22.6815C6.44033 20.6214 5 17.6058 5 14.2467C5 8.03533 9.92488 3 16 3C22.0752 3 27.0001 8.03533 27.0001 14.2467Z" stroke="#152827"/>
<path d="M15.3095 19.3199C15.696 19.6888 16.304 19.6888 16.6905 19.3199L20.6207 15.5684C22.322 13.9435 22.4698 11.4517 20.9508 10.0016C19.711 8.81807 17.1485 8.51752 16.0878 9.87664C16.0439 9.93283 15.9561 9.93283 15.9122 9.87664C14.8515 8.51752 12.289 8.81807 11.0492 10.0016C9.53022 11.4517 9.67799 13.9435 11.3793 15.5684L15.3095 19.3199Z" fill="#F0A337" stroke="#152827"/>
</svg>
