<svg width="32" height="32" viewBox="0 0 32 32" fill="none" xmlns="http://www.w3.org/2000/svg">
<path d="M32 16C32 24.8366 24.8366 32 16 32C7.16344 32 0 24.8366 0 16C0 7.16344 7.16344 0 16 0C24.8366 0 32 7.16344 32 16Z" fill="white"/>
<g clip-path="url(#clip0)">
<path d="M26.6666 10.783C25.9394 11.1043 25.1645 11.3172 24.3566 11.4206C25.1877 10.9209 25.8221 10.1357 26.1203 9.18919C25.3454 9.65442 24.4899 9.98304 23.5781 10.1664C22.8423 9.3775 21.7936 8.88889 20.6496 8.88889C18.4301 8.88889 16.6432 10.703 16.6432 12.927C16.6432 13.247 16.6701 13.5547 16.7361 13.8477C13.4031 13.684 10.4539 12.0753 8.47264 9.62489C8.12675 10.2292 7.92386 10.9209 7.92386 11.6655C7.92386 13.0637 8.63886 14.303 9.70464 15.0206C9.06053 15.0083 8.42864 14.82 7.89331 14.5233C7.89331 14.5357 7.89331 14.5517 7.89331 14.5677C7.89331 16.5295 9.28297 18.159 11.1053 18.5344C10.779 18.6243 10.4233 18.6673 10.0542 18.6673C9.79753 18.6673 9.53842 18.6526 9.29519 18.5984C9.81464 20.1972 11.2886 21.3726 13.0413 21.4107C11.6773 22.4852 9.94542 23.1326 8.07053 23.1326C7.74175 23.1326 7.42642 23.1178 7.11108 23.0772C8.88697 24.2304 10.9916 24.8889 13.2613 24.8889C20.6386 24.8889 24.672 18.735 24.672 13.4009C24.672 13.2224 24.6659 13.0501 24.6573 12.879C25.453 12.3104 26.1215 11.6003 26.6666 10.783Z" fill="#356F6C"/>
</g>
<defs>
<clipPath id="clip0">
<rect width="21.3333" height="21.3333" fill="white" transform="translate(5.33325 5.33334)"/>
</clipPath>
</defs>
</svg>
