<svg width="32" height="32" viewBox="0 0 32 32" fill="none" xmlns="http://www.w3.org/2000/svg">
<path d="M32 16C32 24.8366 24.8366 32 16 32C7.16344 32 0 24.8366 0 16C0 7.16344 7.16344 0 16 0C24.8366 0 32 7.16344 32 16Z" fill="white"/>
<g clip-path="url(#clip0)">
<path d="M24.8844 23.1111L24.8889 23.1104V16.5904C24.8889 13.4008 24.2022 10.9437 20.4733 10.9437C18.6807 10.9437 17.4778 11.9274 16.9866 12.86H16.9348V11.2415H13.3992V23.1104H17.0807V17.2334C17.0807 15.6859 17.3741 14.1897 19.2903 14.1897C21.1785 14.1897 21.2066 15.9556 21.2066 17.3326V23.1111H24.8844Z" fill="#356F6C"/>
<path d="M7.40442 11.2422H11.0903V23.1111H7.40442V11.2422Z" fill="#356F6C"/>
<path d="M9.2459 5.33334C8.06738 5.33334 7.11108 6.28964 7.11108 7.46815C7.11108 8.64667 8.06738 9.62297 9.2459 9.62297C10.4244 9.62297 11.3807 8.64667 11.3807 7.46815C11.38 6.28964 10.4237 5.33334 9.2459 5.33334Z" fill="#356F6C"/>
</g>
<defs>
<clipPath id="clip0">
<rect width="21.3333" height="21.3333" fill="white" transform="translate(5.33325 5.33334)"/>
</clipPath>
</defs>
</svg>
