<svg width="32" height="32" viewBox="0 0 32 32" fill="none" xmlns="http://www.w3.org/2000/svg">
<path d="M32 16C32 24.8366 24.8366 32 16 32C7.16344 32 0 24.8366 0 16C0 7.16344 7.16344 0 16 0C24.8366 0 32 7.16344 32 16Z" fill="white"/>
<path fill-rule="evenodd" clip-rule="evenodd" d="M22.9557 10.1584C23.7172 10.3635 24.3176 10.9636 24.5226 11.725C24.9034 13.1158 24.8888 16.0147 24.8888 16.0147C24.8888 16.0147 24.8888 18.8988 24.5227 20.2896C24.3176 21.0509 23.7173 21.6512 22.9557 21.8561C21.5646 22.2222 15.9999 22.2222 15.9999 22.2222C15.9999 22.2222 10.4498 22.2222 9.04413 21.8416C8.28255 21.6366 7.68224 21.0363 7.47716 20.275C7.11108 18.8988 7.11108 16 7.11108 16C7.11108 16 7.11108 13.1158 7.47716 11.725C7.6821 10.9638 8.2972 10.3488 9.04399 10.1439C10.4352 9.7778 15.9998 9.7778 15.9998 9.7778C15.9998 9.7778 21.5646 9.7778 22.9557 10.1584ZM18.8555 16L14.2281 18.6646V13.3355L18.8555 16Z" fill="#356F6C"/>
</svg>
