<svg width="32" height="32" viewBox="0 0 32 32" fill="none" xmlns="http://www.w3.org/2000/svg">
<path d="M15.94 4C13.3549 4 12.2548 5.66223 12 7.88889C12 7.88889 13.44 7 15.94 7C18.44 7 18.815 5.14422 18.815 5.14422C18.1843 4.42946 17.254 4 15.94 4Z" fill="#F0A337"/>
<path d="M11.5675 8.27778C11.5215 8.67086 11.5 9.07993 11.5 9.5C11.5 12.5376 12.625 15 16 15C19.375 15 20.5 12.5376 20.5 9.5C20.5 7.7929 20.1447 6.26745 19.2344 5.25864M11.5675 8.27778C11.8542 5.82846 13.0917 4 16 4C17.4783 4 18.5249 4.47241 19.2344 5.25864M11.5675 8.27778C11.5675 8.27778 13.1875 7.3 16 7.3C18.8125 7.3 19.2344 5.25864 19.2344 5.25864" stroke="#152827"/>
<path d="M7.05125 27.5H24.9488C25.5206 27.5 25.9673 27.0253 25.8722 26.4614C25.4407 23.9023 23.6014 17.5 16 17.5C8.39864 17.5 6.55934 23.9023 6.12777 26.4614C6.03266 27.0253 6.47935 27.5 7.05125 27.5Z" stroke="#152827"/>
</svg>
