<svg width="32" height="32" viewBox="0 0 32 32" fill="none" xmlns="http://www.w3.org/2000/svg">
<path d="M15.5 6C15.5 6.27614 15.7239 6.5 16 6.5C16.2761 6.5 16.5 6.27614 16.5 6H15.5ZM26 15.5C25.7239 15.5 25.5 15.7239 25.5 16C25.5 16.2761 25.7239 16.5 26 16.5V15.5ZM6 16.5C6.27614 16.5 6.5 16.2761 6.5 16C6.5 15.7239 6.27614 15.5 6 15.5V16.5ZM16.5 26C16.5 25.7239 16.2761 25.5 16 25.5C15.7239 25.5 15.5 25.7239 15.5 26H16.5ZM27.5 16C27.5 22.3513 22.3513 27.5 16 27.5V28.5C22.9036 28.5 28.5 22.9036 28.5 16H27.5ZM16 27.5C9.64873 27.5 4.5 22.3513 4.5 16H3.5C3.5 22.9036 9.09644 28.5 16 28.5V27.5ZM4.5 16C4.5 9.64873 9.64873 4.5 16 4.5V3.5C9.09644 3.5 3.5 9.09644 3.5 16H4.5ZM16 4.5C22.3513 4.5 27.5 9.64873 27.5 16H28.5C28.5 9.09644 22.9036 3.5 16 3.5V4.5ZM16 4C15.5 4 15.5 4 15.5 4.00001C15.5 4.00002 15.5 4.00004 15.5 4.00006C15.5 4.00007 15.5 4.0001 15.5 4.00013C15.5 4.00015 15.5 4.00019 15.5 4.00022C15.5 4.00026 15.5 4.0003 15.5 4.00035C15.5 4.00039 15.5 4.00044 15.5 4.0005C15.5 4.00055 15.5 4.00061 15.5 4.00068C15.5 4.00074 15.5 4.00081 15.5 4.00089C15.5 4.00096 15.5 4.00104 15.5 4.00112C15.5 4.0012 15.5 4.00129 15.5 4.00138C15.5 4.00147 15.5 4.00157 15.5 4.00167C15.5 4.00177 15.5 4.00188 15.5 4.00199C15.5 4.0021 15.5 4.00221 15.5 4.00233C15.5 4.00245 15.5 4.00257 15.5 4.0027C15.5 4.00283 15.5 4.00296 15.5 4.0031C15.5 4.00323 15.5 4.00337 15.5 4.00352C15.5 4.00367 15.5 4.00382 15.5 4.00397C15.5 4.00413 15.5 4.00428 15.5 4.00445C15.5 4.00461 15.5 4.00478 15.5 4.00495C15.5 4.00512 15.5 4.0053 15.5 4.00548C15.5 4.00566 15.5 4.00585 15.5 4.00604C15.5 4.00623 15.5 4.00642 15.5 4.00662C15.5 4.00682 15.5 4.00702 15.5 4.00723C15.5 4.00744 15.5 4.00765 15.5 4.00786C15.5 4.00808 15.5 4.0083 15.5 4.00853C15.5 4.00875 15.5 4.00898 15.5 4.00921C15.5 4.00945 15.5 4.00968 15.5 4.00993C15.5 4.01017 15.5 4.01041 15.5 4.01067C15.5 4.01092 15.5 4.01117 15.5 4.01143C15.5 4.01169 15.5 4.01195 15.5 4.01222C15.5 4.01249 15.5 4.01276 15.5 4.01304C15.5 4.01331 15.5 4.0136 15.5 4.01388C15.5 4.01417 15.5 4.01445 15.5 4.01475C15.5 4.01504 15.5 4.01534 15.5 4.01564C15.5 4.01594 15.5 4.01625 15.5 4.01656C15.5 4.01687 15.5 4.01718 15.5 4.0175C15.5 4.01782 15.5 4.01814 15.5 4.01847C15.5 4.0188 15.5 4.01913 15.5 4.01947C15.5 4.0198 15.5 4.02014 15.5 4.02049C15.5 4.02083 15.5 4.02118 15.5 4.02153C15.5 4.02188 15.5 4.02224 15.5 4.0226C15.5 4.02296 15.5 4.02332 15.5 4.02369C15.5 4.02406 15.5 4.02443 15.5 4.02481C15.5 4.02519 15.5 4.02557 15.5 4.02596C15.5 4.02634 15.5 4.02673 15.5 4.02712C15.5 4.02752 15.5 4.02791 15.5 4.02832C15.5 4.02872 15.5 4.02912 15.5 4.02953C15.5 4.02994 15.5 4.03036 15.5 4.03078C15.5 4.03119 15.5 4.03162 15.5 4.03204C15.5 4.03247 15.5 4.0329 15.5 4.03333C15.5 4.03377 15.5 4.0342 15.5 4.03465C15.5 4.03509 15.5 4.03553 15.5 4.03598C15.5 4.03643 15.5 4.03689 15.5 4.03735C15.5 4.03781 15.5 4.03827 15.5 4.03873C15.5 4.0392 15.5 4.03967 15.5 4.04014C15.5 4.04062 15.5 4.0411 15.5 4.04158C15.5 4.04206 15.5 4.04255 15.5 4.04304C15.5 4.04353 15.5 4.04402 15.5 4.04452C15.5 4.04502 15.5 4.04552 15.5 4.04602C15.5 4.04653 15.5 4.04704 15.5 4.04755C15.5 4.04807 15.5 4.04858 15.5 4.04911C15.5 4.04963 15.5 4.05015 15.5 4.05068C15.5 4.05121 15.5 4.05174 15.5 4.05228C15.5 4.05282 15.5 4.05336 15.5 4.0539C15.5 4.05445 15.5 4.055 15.5 4.05555C15.5 4.0561 15.5 4.05666 15.5 4.05722C15.5 4.05778 15.5 4.05834 15.5 4.05891C15.5 4.05948 15.5 4.06005 15.5 4.06062C15.5 4.0612 15.5 4.06178 15.5 4.06236C15.5 4.06294 15.5 4.06353 15.5 4.06412C15.5 4.06471 15.5 4.0653 15.5 4.0659C15.5 4.0665 15.5 4.0671 15.5 4.06771C15.5 4.06831 15.5 4.06892 15.5 4.06954C15.5 4.07015 15.5 4.07077 15.5 4.07139C15.5 4.07201 15.5 4.07263 15.5 4.07326C15.5 4.07389 15.5 4.07452 15.5 4.07516C15.5 4.07579 15.5 4.07643 15.5 4.07707C15.5 4.07772 15.5 4.07836 15.5 4.07901C15.5 4.07966 15.5 4.08032 15.5 4.08097C15.5 4.08163 15.5 4.08229 15.5 4.08296C15.5 4.08362 15.5 4.08429 15.5 4.08496C15.5 4.08564 15.5 4.08631 15.5 4.08699C15.5 4.08767 15.5 4.08835 15.5 4.08904C15.5 4.08973 15.5 4.09042 15.5 4.09111C15.5 4.09181 15.5 4.0925 15.5 4.09321C15.5 4.09391 15.5 4.09461 15.5 4.09532C15.5 4.09603 15.5 4.09674 15.5 4.09746C15.5 4.09817 15.5 4.09889 15.5 4.09961C15.5 4.10034 15.5 4.10106 15.5 4.10179C15.5 4.10252 15.5 4.10326 15.5 4.10399C15.5 4.10473 15.5 4.10547 15.5 4.10622C15.5 4.10696 15.5 4.10771 15.5 4.10846C15.5 4.10921 15.5 4.10996 15.5 4.11072C15.5 4.11148 15.5 4.11224 15.5 4.11301C15.5 4.11377 15.5 4.11454 15.5 4.11531C15.5 4.11609 15.5 4.11686 15.5 4.11764C15.5 4.11842 15.5 4.1192 15.5 4.11999C15.5 4.12077 15.5 4.12156 15.5 4.12236C15.5 4.12315 15.5 4.12394 15.5 4.12474C15.5 4.12554 15.5 4.12635 15.5 4.12715C15.5 4.12796 15.5 4.12877 15.5 4.12958C15.5 4.1304 15.5 4.13121 15.5 4.13203C15.5 4.13285 15.5 4.13368 15.5 4.1345C15.5 4.13533 15.5 4.13616 15.5 4.137C15.5 4.13783 15.5 4.13867 15.5 4.13951C15.5 4.14035 15.5 4.14119 15.5 4.14204C15.5 4.14288 15.5 4.14373 15.5 4.14459C15.5 4.14544 15.5 4.1463 15.5 4.14716C15.5 4.14802 15.5 4.14888 15.5 4.14975C15.5 4.15062 15.5 4.15149 15.5 4.15236C15.5 4.15324 15.5 4.15411 15.5 4.15499C15.5 4.15587 15.5 4.15676 15.5 4.15764C15.5 4.15853 15.5 4.15942 15.5 4.16031C15.5 4.16121 15.5 4.1621 15.5 4.163C15.5 4.1639 15.5 4.16481 15.5 4.16571C15.5 4.16662 15.5 4.16753 15.5 4.16844C15.5 4.16935 15.5 4.17027 15.5 4.17119C15.5 4.17211 15.5 4.17303 15.5 4.17395C15.5 4.17488 15.5 4.17581 15.5 4.17674C15.5 4.17767 15.5 4.17861 15.5 4.17955C15.5 4.18048 15.5 4.18143 15.5 4.18237C15.5 4.18331 15.5 4.18426 15.5 4.18521C15.5 4.18616 15.5 4.18712 15.5 4.18807C15.5 4.18903 15.5 4.18999 15.5 4.19096C15.5 4.19192 15.5 4.19289 15.5 4.19386C15.5 4.19482 15.5 4.1958 15.5 4.19677C15.5 4.19775 15.5 4.19873 15.5 4.19971C15.5 4.20069 15.5 4.20168 15.5 4.20267C15.5 4.20365 15.5 4.20464 15.5 4.20564C15.5 4.20663 15.5 4.20763 15.5 4.20863C15.5 4.20963 15.5 4.21063 15.5 4.21164C15.5 4.21265 15.5 4.21366 15.5 4.21467C15.5 4.21568 15.5 4.2167 15.5 4.21772C15.5 4.21873 15.5 4.21976 15.5 4.22078C15.5 4.2218 15.5 4.22283 15.5 4.22386C15.5 4.22489 15.5 4.22593 15.5 4.22696C15.5 4.228 15.5 4.22904 15.5 4.23008C15.5 4.23112 15.5 4.23217 15.5 4.23322C15.5 4.23427 15.5 4.23532 15.5 4.23637C15.5 4.23743 15.5 4.23848 15.5 4.23954C15.5 4.2406 15.5 4.24167 15.5 4.24273C15.5 4.2438 15.5 4.24487 15.5 4.24594C15.5 4.24701 15.5 4.24808 15.5 4.24916C15.5 4.25024 15.5 4.25132 15.5 4.2524C15.5 4.25349 15.5 4.25457 15.5 4.25566C15.5 4.25675 15.5 4.25784 15.5 4.25894C15.5 4.26003 15.5 4.26113 15.5 4.26223C15.5 4.26333 15.5 4.26443 15.5 4.26554C15.5 4.26664 15.5 4.26775 15.5 4.26886C15.5 4.26998 15.5 4.27109 15.5 4.27221C15.5 4.27332 15.5 4.27444 15.5 4.27557C15.5 4.27669 15.5 4.27782 15.5 4.27894C15.5 4.28007 15.5 4.2812 15.5 4.28234C15.5 4.28347 15.5 4.28461 15.5 4.28575C15.5 4.28689 15.5 4.28803 15.5 4.28917C15.5 4.29032 15.5 4.29147 15.5 4.29262C15.5 4.29377 15.5 4.29492 15.5 4.29608C15.5 4.29723 15.5 4.29839 15.5 4.29955C15.5 4.30071 15.5 4.30188 15.5 4.30304C15.5 4.30421 15.5 4.30538 15.5 4.30655C15.5 4.30772 15.5 4.3089 15.5 4.31008C15.5 4.31125 15.5 4.31243 15.5 4.31362C15.5 4.3148 15.5 4.31598 15.5 4.31717C15.5 4.31836 15.5 4.31955 15.5 4.32074C15.5 4.32194 15.5 4.32313 15.5 4.32433C15.5 4.32553 15.5 4.32673 15.5 4.32793C15.5 4.32914 15.5 4.33034 15.5 4.33155C15.5 4.33276 15.5 4.33397 15.5 4.33519C15.5 4.3364 15.5 4.33762 15.5 4.33884C15.5 4.34005 15.5 4.34128 15.5 4.3425C15.5 4.34372 15.5 4.34495 15.5 4.34618C15.5 4.34741 15.5 4.34864 15.5 4.34988C15.5 4.35111 15.5 4.35235 15.5 4.35359C15.5 4.35483 15.5 4.35607 15.5 4.35731C15.5 4.35856 15.5 4.3598 15.5 4.36105C15.5 4.3623 15.5 4.36355 15.5 4.36481C15.5 4.36606 15.5 4.36732 15.5 4.36858C15.5 4.36984 15.5 4.3711 15.5 4.37237C15.5 4.37363 15.5 4.3749 15.5 4.37617C15.5 4.37743 15.5 4.37871 15.5 4.37998C15.5 4.38125 15.5 4.38253 15.5 4.38381C15.5 4.38509 15.5 4.38637 15.5 4.38765C15.5 4.38894 15.5 4.39022 15.5 4.39151C15.5 4.3928 15.5 4.39409 15.5 4.39538C15.5 4.39668 15.5 4.39797 15.5 4.39927C15.5 4.40057 15.5 4.40187 15.5 4.40317C15.5 4.40447 15.5 4.40578 15.5 4.40709C15.5 4.40839 15.5 4.4097 15.5 4.41102C15.5 4.41233 15.5 4.41364 15.5 4.41496C15.5 4.41628 15.5 4.4176 15.5 4.41892C15.5 4.42024 15.5 4.42156 15.5 4.42289C15.5 4.42421 15.5 4.42554 15.5 4.42687C15.5 4.4282 15.5 4.42954 15.5 4.43087C15.5 4.43221 15.5 4.43354 15.5 4.43488C15.5 4.43622 15.5 4.43756 15.5 4.43891C15.5 4.44025 15.5 4.4416 15.5 4.44295C15.5 4.4443 15.5 4.44565 15.5 4.447C15.5 4.44835 15.5 4.44971 15.5 4.45106C15.5 4.45242 15.5 4.45378 15.5 4.45514C15.5 4.45651 15.5 4.45787 15.5 4.45924C15.5 4.4606 15.5 4.46197 15.5 4.46334C15.5 4.46471 15.5 4.46608 15.5 4.46746C15.5 4.46883 15.5 4.47021 15.5 4.47159C15.5 4.47297 15.5 4.47435 15.5 4.47573C15.5 4.47712 15.5 4.4785 15.5 4.47989C15.5 4.48128 15.5 4.48267 15.5 4.48406C15.5 4.48545 15.5 4.48685 15.5 4.48824C15.5 4.48964 15.5 4.49104 15.5 4.49244C15.5 4.49384 15.5 4.49524 15.5 4.49664C15.5 4.49805 15.5 4.49945 15.5 4.50086C15.5 4.50227 15.5 4.50368 15.5 4.5051C15.5 4.50651 15.5 4.50792 15.5 4.50934C15.5 4.51076 15.5 4.51217 15.5 4.5136C15.5 4.51502 15.5 4.51644 15.5 4.51786C15.5 4.51929 15.5 4.52072 15.5 4.52214C15.5 4.52357 15.5 4.525 15.5 4.52644C15.5 4.52787 15.5 4.5293 15.5 4.53074C15.5 4.53218 15.5 4.53362 15.5 4.53506C15.5 4.5365 15.5 4.53794 15.5 4.53939C15.5 4.54083 15.5 4.54228 15.5 4.54373C15.5 4.54517 15.5 4.54662 15.5 4.54808C15.5 4.54953 15.5 4.55098 15.5 4.55244C15.5 4.5539 15.5 4.55535 15.5 4.55681C15.5 4.55827 15.5 4.55974 15.5 4.5612C15.5 4.56266 15.5 4.56413 15.5 4.5656C15.5 4.56706 15.5 4.56853 15.5 4.57C15.5 4.57148 15.5 4.57295 15.5 4.57442C15.5 4.5759 15.5 4.57738 15.5 4.57885C15.5 4.58033 15.5 4.58181 15.5 4.5833C15.5 4.58478 15.5 4.58626 15.5 4.58775C15.5 4.58923 15.5 4.59072 15.5 4.59221C15.5 4.5937 15.5 4.59519 15.5 4.59669C15.5 4.59818 15.5 4.59967 15.5 4.60117C15.5 4.60267 15.5 4.60417 15.5 4.60567C15.5 4.60717 15.5 4.60867 15.5 4.61017C15.5 4.61168 15.5 4.61318 15.5 4.61469C15.5 4.6162 15.5 4.6177 15.5 4.61921C15.5 4.62073 15.5 4.62224 15.5 4.62375C15.5 4.62527 15.5 4.62678 15.5 4.6283C15.5 4.62982 15.5 4.63134 15.5 4.63286C15.5 4.63438 15.5 4.6359 15.5 4.63743C15.5 4.63895 15.5 4.64048 15.5 4.642C15.5 4.64353 15.5 4.64506 15.5 4.64659C15.5 4.64812 15.5 4.64965 15.5 4.65119C15.5 4.65272 15.5 4.65426 15.5 4.6558C15.5 4.65733 15.5 4.65887 15.5 4.66041C15.5 4.66195 15.5 4.6635 15.5 4.66504C15.5 4.66658 15.5 4.66813 15.5 4.66968C15.5 4.67122 15.5 4.67277 15.5 4.67432C15.5 4.67587 15.5 4.67743 15.5 4.67898C15.5 4.68053 15.5 4.68209 15.5 4.68364C15.5 4.6852 15.5 4.68676 15.5 4.68832C15.5 4.68988 15.5 4.69144 15.5 4.693C15.5 4.69456 15.5 4.69613 15.5 4.69769C15.5 4.69926 15.5 4.70083 15.5 4.7024C15.5 4.70396 15.5 4.70553 15.5 4.70711C15.5 4.70868 15.5 4.71025 15.5 4.71183C15.5 4.7134 15.5 4.71498 15.5 4.71656C15.5 4.71813 15.5 4.71971 15.5 4.72129C15.5 4.72287 15.5 4.72446 15.5 4.72604C15.5 4.72762 15.5 4.72921 15.5 4.73079C15.5 4.73238 15.5 4.73397 15.5 4.73556C15.5 4.73715 15.5 4.73874 15.5 4.74033C15.5 4.74192 15.5 4.74351 15.5 4.74511C15.5 4.7467 15.5 4.7483 15.5 4.7499C15.5 4.75149 15.5 4.75309 15.5 4.75469C15.5 4.75629 15.5 4.7579 15.5 4.7595C15.5 4.7611 15.5 4.76271 15.5 4.76431C15.5 4.76592 15.5 4.76752 15.5 4.76913C15.5 4.77074 15.5 4.77235 15.5 4.77396C15.5 4.77557 15.5 4.77719 15.5 4.7788C15.5 4.78041 15.5 4.78203 15.5 4.78364C15.5 4.78526 15.5 4.78688 15.5 4.7885C15.5 4.79012 15.5 4.79174 15.5 4.79336C15.5 4.79498 15.5 4.7966 15.5 4.79823C15.5 4.79985 15.5 4.80147 15.5 4.8031C15.5 4.80473 15.5 4.80635 15.5 4.80798C15.5 4.80961 15.5 4.81124 15.5 4.81287C15.5 4.81451 15.5 4.81614 15.5 4.81777C15.5 4.81941 15.5 4.82104 15.5 4.82268C15.5 4.82431 15.5 4.82595 15.5 4.82759C15.5 4.82923 15.5 4.83087 15.5 4.83251C15.5 4.83415 15.5 4.83579 15.5 4.83743C15.5 4.83908 15.5 4.84072 15.5 4.84237C15.5 4.84401 15.5 4.84566 15.5 4.84731C15.5 4.84895 15.5 4.8506 15.5 4.85225C15.5 4.8539 15.5 4.85555 15.5 4.85721C15.5 4.85886 15.5 4.86051 15.5 4.86217C15.5 4.86382 15.5 4.86548 15.5 4.86713C15.5 4.86879 15.5 4.87045 15.5 4.87211C15.5 4.87377 15.5 4.87543 15.5 4.87709C15.5 4.87875 15.5 4.88041 15.5 4.88207C15.5 4.88374 15.5 4.8854 15.5 4.88706C15.5 4.88873 15.5 4.8904 15.5 4.89206C15.5 4.89373 15.5 4.8954 15.5 4.89707C15.5 4.89874 15.5 4.90041 15.5 4.90208C15.5 4.90375 15.5 4.90542 15.5 4.90709C15.5 4.90877 15.5 4.91044 15.5 4.91212C15.5 4.91379 15.5 4.91547 15.5 4.91715C15.5 4.91882 15.5 4.9205 15.5 4.92218C15.5 4.92386 15.5 4.92554 15.5 4.92722C15.5 4.9289 15.5 4.93058 15.5 4.93226C15.5 4.93395 15.5 4.93563 15.5 4.93731C15.5 4.939 15.5 4.94068 15.5 4.94237C15.5 4.94406 15.5 4.94574 15.5 4.94743C15.5 4.94912 15.5 4.95081 15.5 4.9525C15.5 4.95419 15.5 4.95588 15.5 4.95757C15.5 4.95926 15.5 4.96096 15.5 4.96265C15.5 4.96434 15.5 4.96604 15.5 4.96773C15.5 4.96943 15.5 4.97112 15.5 4.97282C15.5 4.97452 15.5 4.97621 15.5 4.97791C15.5 4.97961 15.5 4.98131 15.5 4.98301C15.5 4.98471 15.5 4.98641 15.5 4.98811C15.5 4.98981 15.5 4.99151 15.5 4.99322C15.5 4.99492 15.5 4.99662 15.5 4.99833C15.5 5.00003 15.5 5.00174 15.5 5.00345C15.5 5.00515 15.5 5.00686 15.5 5.00857C15.5 5.01027 15.5 5.01198 15.5 5.01369C15.5 5.0154 15.5 5.01711 15.5 5.01882C15.5 5.02053 15.5 5.02224 15.5 5.02395C15.5 5.02567 15.5 5.02738 15.5 5.02909C15.5 5.0308 15.5 5.03252 15.5 5.03423C15.5 5.03595 15.5 5.03766 15.5 5.03938C15.5 5.04109 15.5 5.04281 15.5 5.04453C15.5 5.04625 15.5 5.04796 15.5 5.04968C15.5 5.0514 15.5 5.05312 15.5 5.05484C15.5 5.05656 15.5 5.05828 15.5 5.06C15.5 5.06172 15.5 5.06344 15.5 5.06517C15.5 5.06689 15.5 5.06861 15.5 5.07033C15.5 5.07206 15.5 5.07378 15.5 5.07551C15.5 5.07723 15.5 5.07896 15.5 5.08068C15.5 5.08241 15.5 5.08413 15.5 5.08586C15.5 5.08759 15.5 5.08932 15.5 5.09104C15.5 5.09277 15.5 5.0945 15.5 5.09623C15.5 5.09796 15.5 5.09969 15.5 5.10142C15.5 5.10315 15.5 5.10488 15.5 5.10661C15.5 5.10834 15.5 5.11007 15.5 5.1118C15.5 5.11354 15.5 5.11527 15.5 5.117C15.5 5.11874 15.5 5.12047 15.5 5.1222C15.5 5.12394 15.5 5.12567 15.5 5.12741C15.5 5.12914 15.5 5.13088 15.5 5.13261C15.5 5.13435 15.5 5.13608 15.5 5.13782C15.5 5.13956 15.5 5.1413 15.5 5.14303C15.5 5.14477 15.5 5.14651 15.5 5.14825C15.5 5.14999 15.5 5.15172 15.5 5.15346C15.5 5.1552 15.5 5.15694 15.5 5.15868C15.5 5.16042 15.5 5.16216 15.5 5.1639C15.5 5.16564 15.5 5.16738 15.5 5.16913C15.5 5.17087 15.5 5.17261 15.5 5.17435C15.5 5.17609 15.5 5.17784 15.5 5.17958C15.5 5.18132 15.5 5.18306 15.5 5.18481C15.5 5.18655 15.5 5.18829 15.5 5.19004C15.5 5.19178 15.5 5.19353 15.5 5.19527C15.5 5.19702 15.5 5.19876 15.5 5.20051C15.5 5.20225 15.5 5.204 15.5 5.20574C15.5 5.20749 15.5 5.20923 15.5 5.21098C15.5 5.21273 15.5 5.21447 15.5 5.21622C15.5 5.21797 15.5 5.21971 15.5 5.22146C15.5 5.22321 15.5 5.22496 15.5 5.2267C15.5 5.22845 15.5 5.2302 15.5 5.23195C15.5 5.23369 15.5 5.23544 15.5 5.23719C15.5 5.23894 15.5 5.24069 15.5 5.24244C15.5 5.24419 15.5 5.24594 15.5 5.24768C15.5 5.24943 15.5 5.25118 15.5 5.25293C15.5 5.25468 15.5 5.25643 15.5 5.25818C15.5 5.25993 15.5 5.26168 15.5 5.26343C15.5 5.26518 15.5 5.26693 15.5 5.26868C15.5 5.27043 15.5 5.27218 15.5 5.27393C15.5 5.27569 15.5 5.27744 15.5 5.27919C15.5 5.28094 15.5 5.28269 15.5 5.28444C15.5 5.28619 15.5 5.28794 15.5 5.28969C15.5 5.29144 15.5 5.29319 15.5 5.29495C15.5 5.2967 15.5 5.29845 15.5 5.3002C15.5 5.30195 15.5 5.3037 15.5 5.30545C15.5 5.30721 15.5 5.30896 15.5 5.31071C15.5 5.31246 15.5 5.31421 15.5 5.31596C15.5 5.31771 15.5 5.31947 15.5 5.32122C15.5 5.32297 15.5 5.32472 15.5 5.32647C15.5 5.32822 15.5 5.32998 15.5 5.33173C15.5 5.33348 15.5 5.33523 15.5 5.33698C15.5 5.33873 15.5 5.34048 15.5 5.34224C15.5 5.34399 15.5 5.34574 15.5 5.34749C15.5 5.34924 15.5 5.35099 15.5 5.35274C15.5 5.35449 15.5 5.35624 15.5 5.358C15.5 5.35975 15.5 5.3615 15.5 5.36325C15.5 5.365 15.5 5.36675 15.5 5.3685C15.5 5.37025 15.5 5.372 15.5 5.37375C15.5 5.3755 15.5 5.37725 15.5 5.379C15.5 5.38075 15.5 5.3825 15.5 5.38425C15.5 5.386 15.5 5.38775 15.5 5.3895C15.5 5.39125 15.5 5.393 15.5 5.39475C15.5 5.39649 15.5 5.39824 15.5 5.39999C15.5 5.40174 15.5 5.40349 15.5 5.40524C15.5 5.40699 15.5 5.40873 15.5 5.41048C15.5 5.41223 15.5 5.41398 15.5 5.41572C15.5 5.41747 15.5 5.41922 15.5 5.42097C15.5 5.42271 15.5 5.42446 15.5 5.42621C15.5 5.42795 15.5 5.4297 15.5 5.43144C15.5 5.43319 15.5 5.43494 15.5 5.43668C15.5 5.43843 15.5 5.44017 15.5 5.44192C15.5 5.44366 15.5 5.44541 15.5 5.44715C15.5 5.44889 15.5 5.45064 15.5 5.45238C15.5 5.45413 15.5 5.45587 15.5 5.45761C15.5 5.45936 15.5 5.4611 15.5 5.46284C15.5 5.46458 15.5 5.46632 15.5 5.46807C15.5 5.46981 15.5 5.47155 15.5 5.47329C15.5 5.47503 15.5 5.47677 15.5 5.47851C15.5 5.48025 15.5 5.48199 15.5 5.48373C15.5 5.48547 15.5 5.48721 15.5 5.48895C15.5 5.49069 15.5 5.49243 15.5 5.49416C15.5 5.4959 15.5 5.49764 15.5 5.49938C15.5 5.50111 15.5 5.50285 15.5 5.50458C15.5 5.50632 15.5 5.50806 15.5 5.50979C15.5 5.51153 15.5 5.51326 15.5 5.515C15.5 5.51673 15.5 5.51846 15.5 5.5202C15.5 5.52193 15.5 5.52366 15.5 5.5254C15.5 5.52713 15.5 5.52886 15.5 5.53059C15.5 5.53232 15.5 5.53406 15.5 5.53579C15.5 5.53752 15.5 5.53925 15.5 5.54098C15.5 5.5427 15.5 5.54443 15.5 5.54616C15.5 5.54789 15.5 5.54962 15.5 5.55135C15.5 5.55307 15.5 5.5548 15.5 5.55653C15.5 5.55825 15.5 5.55998 15.5 5.5617C15.5 5.56343 15.5 5.56515 15.5 5.56688C15.5 5.5686 15.5 5.57032 15.5 5.57205C15.5 5.57377 15.5 5.57549 15.5 5.57721C15.5 5.57893 15.5 5.58065 15.5 5.58237C15.5 5.5841 15.5 5.58581 15.5 5.58753C15.5 5.58925 15.5 5.59097 15.5 5.59269C15.5 5.59441 15.5 5.59612 15.5 5.59784C15.5 5.59956 15.5 5.60127 15.5 5.60299C15.5 5.6047 15.5 5.60642 15.5 5.60813C15.5 5.60984 15.5 5.61156 15.5 5.61327C15.5 5.61498 15.5 5.61669 15.5 5.61841C15.5 5.62012 15.5 5.62183 15.5 5.62354C15.5 5.62525 15.5 5.62695 15.5 5.62866C15.5 5.63037 15.5 5.63208 15.5 5.63378C15.5 5.63549 15.5 5.6372 15.5 5.6389C15.5 5.64061 15.5 5.64231 15.5 5.64402C15.5 5.64572 15.5 5.64742 15.5 5.64912C15.5 5.65083 15.5 5.65253 15.5 5.65423C15.5 5.65593 15.5 5.65763 15.5 5.65933C15.5 5.66103 15.5 5.66272 15.5 5.66442C15.5 5.66612 15.5 5.66781 15.5 5.66951C15.5 5.67121 15.5 5.6729 15.5 5.67459C15.5 5.67629 15.5 5.67798 15.5 5.67967C15.5 5.68137 15.5 5.68306 15.5 5.68475C15.5 5.68644 15.5 5.68813 15.5 5.68982C15.5 5.6915 15.5 5.69319 15.5 5.69488C15.5 5.69657 15.5 5.69825 15.5 5.69994C15.5 5.70162 15.5 5.70331 15.5 5.70499C15.5 5.70667 15.5 5.70836 15.5 5.71004C15.5 5.71172 15.5 5.7134 15.5 5.71508C15.5 5.71676 15.5 5.71844 15.5 5.72012C15.5 5.72179 15.5 5.72347 15.5 5.72515C15.5 5.72682 15.5 5.7285 15.5 5.73017C15.5 5.73184 15.5 5.73352 15.5 5.73519C15.5 5.73686 15.5 5.73853 15.5 5.7402C15.5 5.74187 15.5 5.74354 15.5 5.74521C15.5 5.74688 15.5 5.74854 15.5 5.75021C15.5 5.75188 15.5 5.75354 15.5 5.7552C15.5 5.75687 15.5 5.75853 15.5 5.76019C15.5 5.76185 15.5 5.76351 15.5 5.76517C15.5 5.76683 15.5 5.76849 15.5 5.77015C15.5 5.77181 15.5 5.77346 15.5 5.77512C15.5 5.77677 15.5 5.77843 15.5 5.78008C15.5 5.78173 15.5 5.78339 15.5 5.78504C15.5 5.78669 15.5 5.78834 15.5 5.78999C15.5 5.79163 15.5 5.79328 15.5 5.79493C15.5 5.79657 15.5 5.79822 15.5 5.79986C15.5 5.80151 15.5 5.80315 15.5 5.80479C15.5 5.80643 15.5 5.80807 15.5 5.80971C15.5 5.81135 15.5 5.81299 15.5 5.81463C15.5 5.81627 15.5 5.8179 15.5 5.81954C15.5 5.82117 15.5 5.8228 15.5 5.82444C15.5 5.82607 15.5 5.8277 15.5 5.82933C15.5 5.83096 15.5 5.83259 15.5 5.83421C15.5 5.83584 15.5 5.83747 15.5 5.83909C15.5 5.84072 15.5 5.84234 15.5 5.84396C15.5 5.84559 15.5 5.84721 15.5 5.84883C15.5 5.85045 15.5 5.85206 15.5 5.85368C15.5 5.8553 15.5 5.85691 15.5 5.85853C15.5 5.86014 15.5 5.86176 15.5 5.86337C15.5 5.86498 15.5 5.86659 15.5 5.8682C15.5 5.86981 15.5 5.87142 15.5 5.87303C15.5 5.87463 15.5 5.87624 15.5 5.87784C15.5 5.87945 15.5 5.88105 15.5 5.88265C15.5 5.88425 15.5 5.88585 15.5 5.88745C15.5 5.88905 15.5 5.89064 15.5 5.89224C15.5 5.89384 15.5 5.89543 15.5 5.89702C15.5 5.89862 15.5 5.90021 15.5 5.9018C15.5 5.90339 15.5 5.90498 15.5 5.90657C15.5 5.90815 15.5 5.90974 15.5 5.91132C15.5 5.91291 15.5 5.91449 15.5 5.91607C15.5 5.91765 15.5 5.91923 15.5 5.92081C15.5 5.92239 15.5 5.92397 15.5 5.92554C15.5 5.92712 15.5 5.92869 15.5 5.93027C15.5 5.93184 15.5 5.93341 15.5 5.93498C15.5 5.93655 15.5 5.93812 15.5 5.93969C15.5 5.94125 15.5 5.94282 15.5 5.94438C15.5 5.94595 15.5 5.94751 15.5 5.94907C15.5 5.95063 15.5 5.95219 15.5 5.95375C15.5 5.9553 15.5 5.95686 15.5 5.95841C15.5 5.95997 15.5 5.96152 15.5 5.96307C15.5 5.96463 15.5 5.96618 15.5 5.96772C15.5 5.96927 15.5 5.97082 15.5 5.97236C15.5 5.97391 15.5 5.97545 15.5 5.97699C15.5 5.97854 15.5 5.98008 15.5 5.98161C15.5 5.98315 15.5 5.98469 15.5 5.98623C15.5 5.98776 15.5 5.9893 15.5 5.99083C15.5 5.99236 15.5 5.99389 15.5 5.99542C15.5 5.99695 15.5 5.99847 15.5 6H16.5C16.5 5.99847 16.5 5.99695 16.5 5.99542C16.5 5.99389 16.5 5.99236 16.5 5.99083C16.5 5.9893 16.5 5.98776 16.5 5.98623C16.5 5.98469 16.5 5.98315 16.5 5.98161C16.5 5.98008 16.5 5.97854 16.5 5.97699C16.5 5.97545 16.5 5.97391 16.5 5.97236C16.5 5.97082 16.5 5.96927 16.5 5.96772C16.5 5.96618 16.5 5.96463 16.5 5.96307C16.5 5.96152 16.5 5.95997 16.5 5.95841C16.5 5.95686 16.5 5.9553 16.5 5.95375C16.5 5.95219 16.5 5.95063 16.5 5.94907C16.5 5.94751 16.5 5.94595 16.5 5.94438C16.5 5.94282 16.5 5.94125 16.5 5.93969C16.5 5.93812 16.5 5.93655 16.5 5.93498C16.5 5.93341 16.5 5.93184 16.5 5.93027C16.5 5.92869 16.5 5.92712 16.5 5.92554C16.5 5.92397 16.5 5.92239 16.5 5.92081C16.5 5.91923 16.5 5.91765 16.5 5.91607C16.5 5.91449 16.5 5.91291 16.5 5.91132C16.5 5.90974 16.5 5.90815 16.5 5.90657C16.5 5.90498 16.5 5.90339 16.5 5.9018C16.5 5.90021 16.5 5.89862 16.5 5.89702C16.5 5.89543 16.5 5.89384 16.5 5.89224C16.5 5.89064 16.5 5.88905 16.5 5.88745C16.5 5.88585 16.5 5.88425 16.5 5.88265C16.5 5.88105 16.5 5.87945 16.5 5.87784C16.5 5.87624 16.5 5.87463 16.5 5.87303C16.5 5.87142 16.5 5.86981 16.5 5.8682C16.5 5.86659 16.5 5.86498 16.5 5.86337C16.5 5.86176 16.5 5.86014 16.5 5.85853C16.5 5.85691 16.5 5.8553 16.5 5.85368C16.5 5.85206 16.5 5.85045 16.5 5.84883C16.5 5.84721 16.5 5.84559 16.5 5.84396C16.5 5.84234 16.5 5.84072 16.5 5.83909C16.5 5.83747 16.5 5.83584 16.5 5.83421C16.5 5.83259 16.5 5.83096 16.5 5.82933C16.5 5.8277 16.5 5.82607 16.5 5.82444C16.5 5.8228 16.5 5.82117 16.5 5.81954C16.5 5.8179 16.5 5.81627 16.5 5.81463C16.5 5.81299 16.5 5.81135 16.5 5.80971C16.5 5.80807 16.5 5.80643 16.5 5.80479C16.5 5.80315 16.5 5.80151 16.5 5.79986C16.5 5.79822 16.5 5.79657 16.5 5.79493C16.5 5.79328 16.5 5.79163 16.5 5.78999C16.5 5.78834 16.5 5.78669 16.5 5.78504C16.5 5.78339 16.5 5.78173 16.5 5.78008C16.5 5.77843 16.5 5.77677 16.5 5.77512C16.5 5.77346 16.5 5.77181 16.5 5.77015C16.5 5.76849 16.5 5.76683 16.5 5.76517C16.5 5.76351 16.5 5.76185 16.5 5.76019C16.5 5.75853 16.5 5.75687 16.5 5.7552C16.5 5.75354 16.5 5.75188 16.5 5.75021C16.5 5.74854 16.5 5.74688 16.5 5.74521C16.5 5.74354 16.5 5.74187 16.5 5.7402C16.5 5.73853 16.5 5.73686 16.5 5.73519C16.5 5.73352 16.5 5.73184 16.5 5.73017C16.5 5.7285 16.5 5.72682 16.5 5.72515C16.5 5.72347 16.5 5.72179 16.5 5.72012C16.5 5.71844 16.5 5.71676 16.5 5.71508C16.5 5.7134 16.5 5.71172 16.5 5.71004C16.5 5.70836 16.5 5.70667 16.5 5.70499C16.5 5.70331 16.5 5.70162 16.5 5.69994C16.5 5.69825 16.5 5.69657 16.5 5.69488C16.5 5.69319 16.5 5.6915 16.5 5.68982C16.5 5.68813 16.5 5.68644 16.5 5.68475C16.5 5.68306 16.5 5.68137 16.5 5.67967C16.5 5.67798 16.5 5.67629 16.5 5.67459C16.5 5.6729 16.5 5.67121 16.5 5.66951C16.5 5.66781 16.5 5.66612 16.5 5.66442C16.5 5.66272 16.5 5.66103 16.5 5.65933C16.5 5.65763 16.5 5.65593 16.5 5.65423C16.5 5.65253 16.5 5.65083 16.5 5.64912C16.5 5.64742 16.5 5.64572 16.5 5.64402C16.5 5.64231 16.5 5.64061 16.5 5.6389C16.5 5.6372 16.5 5.63549 16.5 5.63378C16.5 5.63208 16.5 5.63037 16.5 5.62866C16.5 5.62695 16.5 5.62525 16.5 5.62354C16.5 5.62183 16.5 5.62012 16.5 5.61841C16.5 5.61669 16.5 5.61498 16.5 5.61327C16.5 5.61156 16.5 5.60984 16.5 5.60813C16.5 5.60642 16.5 5.6047 16.5 5.60299C16.5 5.60127 16.5 5.59956 16.5 5.59784C16.5 5.59612 16.5 5.59441 16.5 5.59269C16.5 5.59097 16.5 5.58925 16.5 5.58753C16.5 5.58581 16.5 5.5841 16.5 5.58237C16.5 5.58065 16.5 5.57893 16.5 5.57721C16.5 5.57549 16.5 5.57377 16.5 5.57205C16.5 5.57032 16.5 5.5686 16.5 5.56688C16.5 5.56515 16.5 5.56343 16.5 5.5617C16.5 5.55998 16.5 5.55825 16.5 5.55653C16.5 5.5548 16.5 5.55307 16.5 5.55135C16.5 5.54962 16.5 5.54789 16.5 5.54616C16.5 5.54443 16.5 5.5427 16.5 5.54098C16.5 5.53925 16.5 5.53752 16.5 5.53579C16.5 5.53406 16.5 5.53232 16.5 5.53059C16.5 5.52886 16.5 5.52713 16.5 5.5254C16.5 5.52366 16.5 5.52193 16.5 5.5202C16.5 5.51846 16.5 5.51673 16.5 5.515C16.5 5.51326 16.5 5.51153 16.5 5.50979C16.5 5.50806 16.5 5.50632 16.5 5.50458C16.5 5.50285 16.5 5.50111 16.5 5.49938C16.5 5.49764 16.5 5.4959 16.5 5.49416C16.5 5.49243 16.5 5.49069 16.5 5.48895C16.5 5.48721 16.5 5.48547 16.5 5.48373C16.5 5.48199 16.5 5.48025 16.5 5.47851C16.5 5.47677 16.5 5.47503 16.5 5.47329C16.5 5.47155 16.5 5.46981 16.5 5.46807C16.5 5.46632 16.5 5.46458 16.5 5.46284C16.5 5.4611 16.5 5.45936 16.5 5.45761C16.5 5.45587 16.5 5.45413 16.5 5.45238C16.5 5.45064 16.5 5.44889 16.5 5.44715C16.5 5.44541 16.5 5.44366 16.5 5.44192C16.5 5.44017 16.5 5.43843 16.5 5.43668C16.5 5.43494 16.5 5.43319 16.5 5.43144C16.5 5.4297 16.5 5.42795 16.5 5.42621C16.5 5.42446 16.5 5.42271 16.5 5.42097C16.5 5.41922 16.5 5.41747 16.5 5.41572C16.5 5.41398 16.5 5.41223 16.5 5.41048C16.5 5.40873 16.5 5.40699 16.5 5.40524C16.5 5.40349 16.5 5.40174 16.5 5.39999C16.5 5.39824 16.5 5.39649 16.5 5.39475C16.5 5.393 16.5 5.39125 16.5 5.3895C16.5 5.38775 16.5 5.386 16.5 5.38425C16.5 5.3825 16.5 5.38075 16.5 5.379C16.5 5.37725 16.5 5.3755 16.5 5.37375C16.5 5.372 16.5 5.37025 16.5 5.3685C16.5 5.36675 16.5 5.365 16.5 5.36325C16.5 5.3615 16.5 5.35975 16.5 5.358C16.5 5.35624 16.5 5.35449 16.5 5.35274C16.5 5.35099 16.5 5.34924 16.5 5.34749C16.5 5.34574 16.5 5.34399 16.5 5.34224C16.5 5.34048 16.5 5.33873 16.5 5.33698C16.5 5.33523 16.5 5.33348 16.5 5.33173C16.5 5.32998 16.5 5.32822 16.5 5.32647C16.5 5.32472 16.5 5.32297 16.5 5.32122C16.5 5.31947 16.5 5.31771 16.5 5.31596C16.5 5.31421 16.5 5.31246 16.5 5.31071C16.5 5.30896 16.5 5.30721 16.5 5.30545C16.5 5.3037 16.5 5.30195 16.5 5.3002C16.5 5.29845 16.5 5.2967 16.5 5.29495C16.5 5.29319 16.5 5.29144 16.5 5.28969C16.5 5.28794 16.5 5.28619 16.5 5.28444C16.5 5.28269 16.5 5.28094 16.5 5.27919C16.5 5.27744 16.5 5.27569 16.5 5.27393C16.5 5.27218 16.5 5.27043 16.5 5.26868C16.5 5.26693 16.5 5.26518 16.5 5.26343C16.5 5.26168 16.5 5.25993 16.5 5.25818C16.5 5.25643 16.5 5.25468 16.5 5.25293C16.5 5.25118 16.5 5.24943 16.5 5.24768C16.5 5.24594 16.5 5.24419 16.5 5.24244C16.5 5.24069 16.5 5.23894 16.5 5.23719C16.5 5.23544 16.5 5.23369 16.5 5.23195C16.5 5.2302 16.5 5.22845 16.5 5.2267C16.5 5.22496 16.5 5.22321 16.5 5.22146C16.5 5.21971 16.5 5.21797 16.5 5.21622C16.5 5.21447 16.5 5.21273 16.5 5.21098C16.5 5.20923 16.5 5.20749 16.5 5.20574C16.5 5.204 16.5 5.20225 16.5 5.20051C16.5 5.19876 16.5 5.19702 16.5 5.19527C16.5 5.19353 16.5 5.19178 16.5 5.19004C16.5 5.18829 16.5 5.18655 16.5 5.18481C16.5 5.18306 16.5 5.18132 16.5 5.17958C16.5 5.17784 16.5 5.17609 16.5 5.17435C16.5 5.17261 16.5 5.17087 16.5 5.16913C16.5 5.16738 16.5 5.16564 16.5 5.1639C16.5 5.16216 16.5 5.16042 16.5 5.15868C16.5 5.15694 16.5 5.1552 16.5 5.15346C16.5 5.15172 16.5 5.14999 16.5 5.14825C16.5 5.14651 16.5 5.14477 16.5 5.14303C16.5 5.1413 16.5 5.13956 16.5 5.13782C16.5 5.13608 16.5 5.13435 16.5 5.13261C16.5 5.13088 16.5 5.12914 16.5 5.12741C16.5 5.12567 16.5 5.12394 16.5 5.1222C16.5 5.12047 16.5 5.11874 16.5 5.117C16.5 5.11527 16.5 5.11354 16.5 5.1118C16.5 5.11007 16.5 5.10834 16.5 5.10661C16.5 5.10488 16.5 5.10315 16.5 5.10142C16.5 5.09969 16.5 5.09796 16.5 5.09623C16.5 5.0945 16.5 5.09277 16.5 5.09104C16.5 5.08932 16.5 5.08759 16.5 5.08586C16.5 5.08413 16.5 5.08241 16.5 5.08068C16.5 5.07896 16.5 5.07723 16.5 5.07551C16.5 5.07378 16.5 5.07206 16.5 5.07033C16.5 5.06861 16.5 5.06689 16.5 5.06517C16.5 5.06344 16.5 5.06172 16.5 5.06C16.5 5.05828 16.5 5.05656 16.5 5.05484C16.5 5.05312 16.5 5.0514 16.5 5.04968C16.5 5.04796 16.5 5.04625 16.5 5.04453C16.5 5.04281 16.5 5.04109 16.5 5.03938C16.5 5.03766 16.5 5.03595 16.5 5.03423C16.5 5.03252 16.5 5.0308 16.5 5.02909C16.5 5.02738 16.5 5.02567 16.5 5.02395C16.5 5.02224 16.5 5.02053 16.5 5.01882C16.5 5.01711 16.5 5.0154 16.5 5.01369C16.5 5.01198 16.5 5.01027 16.5 5.00857C16.5 5.00686 16.5 5.00515 16.5 5.00345C16.5 5.00174 16.5 5.00003 16.5 4.99833C16.5 4.99662 16.5 4.99492 16.5 4.99322C16.5 4.99151 16.5 4.98981 16.5 4.98811C16.5 4.98641 16.5 4.98471 16.5 4.98301C16.5 4.98131 16.5 4.97961 16.5 4.97791C16.5 4.97621 16.5 4.97452 16.5 4.97282C16.5 4.97112 16.5 4.96943 16.5 4.96773C16.5 4.96604 16.5 4.96434 16.5 4.96265C16.5 4.96096 16.5 4.95926 16.5 4.95757C16.5 4.95588 16.5 4.95419 16.5 4.9525C16.5 4.95081 16.5 4.94912 16.5 4.94743C16.5 4.94574 16.5 4.94406 16.5 4.94237C16.5 4.94068 16.5 4.939 16.5 4.93731C16.5 4.93563 16.5 4.93395 16.5 4.93226C16.5 4.93058 16.5 4.9289 16.5 4.92722C16.5 4.92554 16.5 4.92386 16.5 4.92218C16.5 4.9205 16.5 4.91882 16.5 4.91715C16.5 4.91547 16.5 4.91379 16.5 4.91212C16.5 4.91044 16.5 4.90877 16.5 4.90709C16.5 4.90542 16.5 4.90375 16.5 4.90208C16.5 4.90041 16.5 4.89874 16.5 4.89707C16.5 4.8954 16.5 4.89373 16.5 4.89206C16.5 4.8904 16.5 4.88873 16.5 4.88706C16.5 4.8854 16.5 4.88374 16.5 4.88207C16.5 4.88041 16.5 4.87875 16.5 4.87709C16.5 4.87543 16.5 4.87377 16.5 4.87211C16.5 4.87045 16.5 4.86879 16.5 4.86713C16.5 4.86548 16.5 4.86382 16.5 4.86217C16.5 4.86051 16.5 4.85886 16.5 4.85721C16.5 4.85555 16.5 4.8539 16.5 4.85225C16.5 4.8506 16.5 4.84895 16.5 4.84731C16.5 4.84566 16.5 4.84401 16.5 4.84237C16.5 4.84072 16.5 4.83908 16.5 4.83743C16.5 4.83579 16.5 4.83415 16.5 4.83251C16.5 4.83087 16.5 4.82923 16.5 4.82759C16.5 4.82595 16.5 4.82431 16.5 4.82268C16.5 4.82104 16.5 4.81941 16.5 4.81777C16.5 4.81614 16.5 4.81451 16.5 4.81287C16.5 4.81124 16.5 4.80961 16.5 4.80798C16.5 4.80635 16.5 4.80473 16.5 4.8031C16.5 4.80147 16.5 4.79985 16.5 4.79823C16.5 4.7966 16.5 4.79498 16.5 4.79336C16.5 4.79174 16.5 4.79012 16.5 4.7885C16.5 4.78688 16.5 4.78526 16.5 4.78364C16.5 4.78203 16.5 4.78041 16.5 4.7788C16.5 4.77719 16.5 4.77557 16.5 4.77396C16.5 4.77235 16.5 4.77074 16.5 4.76913C16.5 4.76752 16.5 4.76592 16.5 4.76431C16.5 4.76271 16.5 4.7611 16.5 4.7595C16.5 4.7579 16.5 4.75629 16.5 4.75469C16.5 4.75309 16.5 4.75149 16.5 4.7499C16.5 4.7483 16.5 4.7467 16.5 4.74511C16.5 4.74351 16.5 4.74192 16.5 4.74033C16.5 4.73874 16.5 4.73715 16.5 4.73556C16.5 4.73397 16.5 4.73238 16.5 4.73079C16.5 4.72921 16.5 4.72762 16.5 4.72604C16.5 4.72446 16.5 4.72287 16.5 4.72129C16.5 4.71971 16.5 4.71813 16.5 4.71656C16.5 4.71498 16.5 4.7134 16.5 4.71183C16.5 4.71025 16.5 4.70868 16.5 4.70711C16.5 4.70553 16.5 4.70396 16.5 4.7024C16.5 4.70083 16.5 4.69926 16.5 4.69769C16.5 4.69613 16.5 4.69456 16.5 4.693C16.5 4.69144 16.5 4.68988 16.5 4.68832C16.5 4.68676 16.5 4.6852 16.5 4.68364C16.5 4.68209 16.5 4.68053 16.5 4.67898C16.5 4.67743 16.5 4.67587 16.5 4.67432C16.5 4.67277 16.5 4.67122 16.5 4.66968C16.5 4.66813 16.5 4.66658 16.5 4.66504C16.5 4.6635 16.5 4.66195 16.5 4.66041C16.5 4.65887 16.5 4.65733 16.5 4.6558C16.5 4.65426 16.5 4.65272 16.5 4.65119C16.5 4.64965 16.5 4.64812 16.5 4.64659C16.5 4.64506 16.5 4.64353 16.5 4.642C16.5 4.64048 16.5 4.63895 16.5 4.63743C16.5 4.6359 16.5 4.63438 16.5 4.63286C16.5 4.63134 16.5 4.62982 16.5 4.6283C16.5 4.62678 16.5 4.62527 16.5 4.62375C16.5 4.62224 16.5 4.62073 16.5 4.61921C16.5 4.6177 16.5 4.6162 16.5 4.61469C16.5 4.61318 16.5 4.61168 16.5 4.61017C16.5 4.60867 16.5 4.60717 16.5 4.60567C16.5 4.60417 16.5 4.60267 16.5 4.60117C16.5 4.59967 16.5 4.59818 16.5 4.59669C16.5 4.59519 16.5 4.5937 16.5 4.59221C16.5 4.59072 16.5 4.58923 16.5 4.58775C16.5 4.58626 16.5 4.58478 16.5 4.5833C16.5 4.58181 16.5 4.58033 16.5 4.57885C16.5 4.57738 16.5 4.5759 16.5 4.57442C16.5 4.57295 16.5 4.57148 16.5 4.57C16.5 4.56853 16.5 4.56706 16.5 4.5656C16.5 4.56413 16.5 4.56266 16.5 4.5612C16.5 4.55974 16.5 4.55827 16.5 4.55681C16.5 4.55535 16.5 4.5539 16.5 4.55244C16.5 4.55098 16.5 4.54953 16.5 4.54808C16.5 4.54662 16.5 4.54517 16.5 4.54373C16.5 4.54228 16.5 4.54083 16.5 4.53939C16.5 4.53794 16.5 4.5365 16.5 4.53506C16.5 4.53362 16.5 4.53218 16.5 4.53074C16.5 4.5293 16.5 4.52787 16.5 4.52644C16.5 4.525 16.5 4.52357 16.5 4.52214C16.5 4.52072 16.5 4.51929 16.5 4.51786C16.5 4.51644 16.5 4.51502 16.5 4.5136C16.5 4.51217 16.5 4.51076 16.5 4.50934C16.5 4.50792 16.5 4.50651 16.5 4.5051C16.5 4.50368 16.5 4.50227 16.5 4.50086C16.5 4.49945 16.5 4.49805 16.5 4.49664C16.5 4.49524 16.5 4.49384 16.5 4.49244C16.5 4.49104 16.5 4.48964 16.5 4.48824C16.5 4.48685 16.5 4.48545 16.5 4.48406C16.5 4.48267 16.5 4.48128 16.5 4.47989C16.5 4.4785 16.5 4.47712 16.5 4.47573C16.5 4.47435 16.5 4.47297 16.5 4.47159C16.5 4.47021 16.5 4.46883 16.5 4.46746C16.5 4.46608 16.5 4.46471 16.5 4.46334C16.5 4.46197 16.5 4.4606 16.5 4.45924C16.5 4.45787 16.5 4.45651 16.5 4.45514C16.5 4.45378 16.5 4.45242 16.5 4.45106C16.5 4.44971 16.5 4.44835 16.5 4.447C16.5 4.44565 16.5 4.4443 16.5 4.44295C16.5 4.4416 16.5 4.44025 16.5 4.43891C16.5 4.43756 16.5 4.43622 16.5 4.43488C16.5 4.43354 16.5 4.43221 16.5 4.43087C16.5 4.42954 16.5 4.4282 16.5 4.42687C16.5 4.42554 16.5 4.42421 16.5 4.42289C16.5 4.42156 16.5 4.42024 16.5 4.41892C16.5 4.4176 16.5 4.41628 16.5 4.41496C16.5 4.41364 16.5 4.41233 16.5 4.41102C16.5 4.4097 16.5 4.40839 16.5 4.40709C16.5 4.40578 16.5 4.40447 16.5 4.40317C16.5 4.40187 16.5 4.40057 16.5 4.39927C16.5 4.39797 16.5 4.39668 16.5 4.39538C16.5 4.39409 16.5 4.3928 16.5 4.39151C16.5 4.39022 16.5 4.38894 16.5 4.38765C16.5 4.38637 16.5 4.38509 16.5 4.38381C16.5 4.38253 16.5 4.38125 16.5 4.37998C16.5 4.37871 16.5 4.37743 16.5 4.37617C16.5 4.3749 16.5 4.37363 16.5 4.37237C16.5 4.3711 16.5 4.36984 16.5 4.36858C16.5 4.36732 16.5 4.36606 16.5 4.36481C16.5 4.36355 16.5 4.3623 16.5 4.36105C16.5 4.3598 16.5 4.35856 16.5 4.35731C16.5 4.35607 16.5 4.35483 16.5 4.35359C16.5 4.35235 16.5 4.35111 16.5 4.34988C16.5 4.34864 16.5 4.34741 16.5 4.34618C16.5 4.34495 16.5 4.34372 16.5 4.3425C16.5 4.34128 16.5 4.34005 16.5 4.33884C16.5 4.33762 16.5 4.3364 16.5 4.33519C16.5 4.33397 16.5 4.33276 16.5 4.33155C16.5 4.33034 16.5 4.32914 16.5 4.32793C16.5 4.32673 16.5 4.32553 16.5 4.32433C16.5 4.32313 16.5 4.32194 16.5 4.32074C16.5 4.31955 16.5 4.31836 16.5 4.31717C16.5 4.31598 16.5 4.3148 16.5 4.31362C16.5 4.31243 16.5 4.31125 16.5 4.31008C16.5 4.3089 16.5 4.30772 16.5 4.30655C16.5 4.30538 16.5 4.30421 16.5 4.30304C16.5 4.30188 16.5 4.30071 16.5 4.29955C16.5 4.29839 16.5 4.29723 16.5 4.29608C16.5 4.29492 16.5 4.29377 16.5 4.29262C16.5 4.29147 16.5 4.29032 16.5 4.28917C16.5 4.28803 16.5 4.28689 16.5 4.28575C16.5 4.28461 16.5 4.28347 16.5 4.28234C16.5 4.2812 16.5 4.28007 16.5 4.27894C16.5 4.27782 16.5 4.27669 16.5 4.27557C16.5 4.27444 16.5 4.27332 16.5 4.27221C16.5 4.27109 16.5 4.26998 16.5 4.26886C16.5 4.26775 16.5 4.26664 16.5 4.26554C16.5 4.26443 16.5 4.26333 16.5 4.26223C16.5 4.26113 16.5 4.26003 16.5 4.25894C16.5 4.25784 16.5 4.25675 16.5 4.25566C16.5 4.25457 16.5 4.25349 16.5 4.2524C16.5 4.25132 16.5 4.25024 16.5 4.24916C16.5 4.24808 16.5 4.24701 16.5 4.24594C16.5 4.24487 16.5 4.2438 16.5 4.24273C16.5 4.24167 16.5 4.2406 16.5 4.23954C16.5 4.23848 16.5 4.23743 16.5 4.23637C16.5 4.23532 16.5 4.23427 16.5 4.23322C16.5 4.23217 16.5 4.23112 16.5 4.23008C16.5 4.22904 16.5 4.228 16.5 4.22696C16.5 4.22593 16.5 4.22489 16.5 4.22386C16.5 4.22283 16.5 4.2218 16.5 4.22078C16.5 4.21976 16.5 4.21873 16.5 4.21772C16.5 4.2167 16.5 4.21568 16.5 4.21467C16.5 4.21366 16.5 4.21265 16.5 4.21164C16.5 4.21063 16.5 4.20963 16.5 4.20863C16.5 4.20763 16.5 4.20663 16.5 4.20564C16.5 4.20464 16.5 4.20365 16.5 4.20267C16.5 4.20168 16.5 4.20069 16.5 4.19971C16.5 4.19873 16.5 4.19775 16.5 4.19677C16.5 4.1958 16.5 4.19482 16.5 4.19386C16.5 4.19289 16.5 4.19192 16.5 4.19096C16.5 4.18999 16.5 4.18903 16.5 4.18807C16.5 4.18712 16.5 4.18616 16.5 4.18521C16.5 4.18426 16.5 4.18331 16.5 4.18237C16.5 4.18143 16.5 4.18048 16.5 4.17955C16.5 4.17861 16.5 4.17767 16.5 4.17674C16.5 4.17581 16.5 4.17488 16.5 4.17395C16.5 4.17303 16.5 4.17211 16.5 4.17119C16.5 4.17027 16.5 4.16935 16.5 4.16844C16.5 4.16753 16.5 4.16662 16.5 4.16571C16.5 4.16481 16.5 4.1639 16.5 4.163C16.5 4.1621 16.5 4.16121 16.5 4.16031C16.5 4.15942 16.5 4.15853 16.5 4.15764C16.5 4.15676 16.5 4.15587 16.5 4.15499C16.5 4.15411 16.5 4.15324 16.5 4.15236C16.5 4.15149 16.5 4.15062 16.5 4.14975C16.5 4.14888 16.5 4.14802 16.5 4.14716C16.5 4.1463 16.5 4.14544 16.5 4.14459C16.5 4.14373 16.5 4.14288 16.5 4.14204C16.5 4.14119 16.5 4.14035 16.5 4.13951C16.5 4.13867 16.5 4.13783 16.5 4.137C16.5 4.13616 16.5 4.13533 16.5 4.1345C16.5 4.13368 16.5 4.13285 16.5 4.13203C16.5 4.13121 16.5 4.1304 16.5 4.12958C16.5 4.12877 16.5 4.12796 16.5 4.12715C16.5 4.12635 16.5 4.12554 16.5 4.12474C16.5 4.12394 16.5 4.12315 16.5 4.12236C16.5 4.12156 16.5 4.12077 16.5 4.11999C16.5 4.1192 16.5 4.11842 16.5 4.11764C16.5 4.11686 16.5 4.11609 16.5 4.11531C16.5 4.11454 16.5 4.11377 16.5 4.11301C16.5 4.11224 16.5 4.11148 16.5 4.11072C16.5 4.10996 16.5 4.10921 16.5 4.10846C16.5 4.10771 16.5 4.10696 16.5 4.10622C16.5 4.10547 16.5 4.10473 16.5 4.10399C16.5 4.10326 16.5 4.10252 16.5 4.10179C16.5 4.10106 16.5 4.10034 16.5 4.09961C16.5 4.09889 16.5 4.09817 16.5 4.09746C16.5 4.09674 16.5 4.09603 16.5 4.09532C16.5 4.09461 16.5 4.09391 16.5 4.09321C16.5 4.0925 16.5 4.09181 16.5 4.09111C16.5 4.09042 16.5 4.08973 16.5 4.08904C16.5 4.08835 16.5 4.08767 16.5 4.08699C16.5 4.08631 16.5 4.08564 16.5 4.08496C16.5 4.08429 16.5 4.08362 16.5 4.08296C16.5 4.08229 16.5 4.08163 16.5 4.08097C16.5 4.08032 16.5 4.07966 16.5 4.07901C16.5 4.07836 16.5 4.07772 16.5 4.07707C16.5 4.07643 16.5 4.07579 16.5 4.07516C16.5 4.07452 16.5 4.07389 16.5 4.07326C16.5 4.07263 16.5 4.07201 16.5 4.07139C16.5 4.07077 16.5 4.07015 16.5 4.06954C16.5 4.06892 16.5 4.06831 16.5 4.06771C16.5 4.0671 16.5 4.0665 16.5 4.0659C16.5 4.0653 16.5 4.06471 16.5 4.06412C16.5 4.06353 16.5 4.06294 16.5 4.06236C16.5 4.06178 16.5 4.0612 16.5 4.06062C16.5 4.06005 16.5 4.05948 16.5 4.05891C16.5 4.05834 16.5 4.05778 16.5 4.05722C16.5 4.05666 16.5 4.0561 16.5 4.05555C16.5 4.055 16.5 4.05445 16.5 4.0539C16.5 4.05336 16.5 4.05282 16.5 4.05228C16.5 4.05174 16.5 4.05121 16.5 4.05068C16.5 4.05015 16.5 4.04963 16.5 4.04911C16.5 4.04858 16.5 4.04807 16.5 4.04755C16.5 4.04704 16.5 4.04653 16.5 4.04602C16.5 4.04552 16.5 4.04502 16.5 4.04452C16.5 4.04402 16.5 4.04353 16.5 4.04304C16.5 4.04255 16.5 4.04206 16.5 4.04158C16.5 4.0411 16.5 4.04062 16.5 4.04014C16.5 4.03967 16.5 4.0392 16.5 4.03873C16.5 4.03827 16.5 4.03781 16.5 4.03735C16.5 4.03689 16.5 4.03643 16.5 4.03598C16.5 4.03553 16.5 4.03509 16.5 4.03465C16.5 4.0342 16.5 4.03377 16.5 4.03333C16.5 4.0329 16.5 4.03247 16.5 4.03204C16.5 4.03162 16.5 4.03119 16.5 4.03078C16.5 4.03036 16.5 4.02994 16.5 4.02953C16.5 4.02912 16.5 4.02872 16.5 4.02832C16.5 4.02791 16.5 4.02752 16.5 4.02712C16.5 4.02673 16.5 4.02634 16.5 4.02596C16.5 4.02557 16.5 4.02519 16.5 4.02481C16.5 4.02443 16.5 4.02406 16.5 4.02369C16.5 4.02332 16.5 4.02296 16.5 4.0226C16.5 4.02224 16.5 4.02188 16.5 4.02153C16.5 4.02118 16.5 4.02083 16.5 4.02049C16.5 4.02014 16.5 4.0198 16.5 4.01947C16.5 4.01913 16.5 4.0188 16.5 4.01847C16.5 4.01814 16.5 4.01782 16.5 4.0175C16.5 4.01718 16.5 4.01687 16.5 4.01656C16.5 4.01625 16.5 4.01594 16.5 4.01564C16.5 4.01534 16.5 4.01504 16.5 4.01475C16.5 4.01445 16.5 4.01417 16.5 4.01388C16.5 4.0136 16.5 4.01331 16.5 4.01304C16.5 4.01276 16.5 4.01249 16.5 4.01222C16.5 4.01195 16.5 4.01169 16.5 4.01143C16.5 4.01117 16.5 4.01092 16.5 4.01067C16.5 4.01041 16.5 4.01017 16.5 4.00993C16.5 4.00968 16.5 4.00945 16.5 4.00921C16.5 4.00898 16.5 4.00875 16.5 4.00853C16.5 4.0083 16.5 4.00808 16.5 4.00786C16.5 4.00765 16.5 4.00744 16.5 4.00723C16.5 4.00702 16.5 4.00682 16.5 4.00662C16.5 4.00642 16.5 4.00623 16.5 4.00604C16.5 4.00585 16.5 4.00566 16.5 4.00548C16.5 4.0053 16.5 4.00512 16.5 4.00495C16.5 4.00478 16.5 4.00461 16.5 4.00445C16.5 4.00428 16.5 4.00413 16.5 4.00397C16.5 4.00382 16.5 4.00367 16.5 4.00352C16.5 4.00337 16.5 4.00323 16.5 4.0031C16.5 4.00296 16.5 4.00283 16.5 4.0027C16.5 4.00257 16.5 4.00245 16.5 4.00233C16.5 4.00221 16.5 4.0021 16.5 4.00199C16.5 4.00188 16.5 4.00177 16.5 4.00167C16.5 4.00157 16.5 4.00147 16.5 4.00138C16.5 4.00129 16.5 4.0012 16.5 4.00112C16.5 4.00104 16.5 4.00096 16.5 4.00089C16.5 4.00081 16.5 4.00074 16.5 4.00068C16.5 4.00061 16.5 4.00055 16.5 4.0005C16.5 4.00044 16.5 4.00039 16.5 4.00035C16.5 4.0003 16.5 4.00026 16.5 4.00022C16.5 4.00019 16.5 4.00015 16.5 4.00013C16.5 4.0001 16.5 4.00007 16.5 4.00006C16.5 4.00004 16.5 4.00002 16.5 4.00001C16.5 4 16.5 4 16 4ZM28 15.5H26V16.5H28V15.5ZM4 16C4 16.5 4 16.5 4.00001 16.5C4.00002 16.5 4.00004 16.5 4.00006 16.5C4.00007 16.5 4.0001 16.5 4.00013 16.5C4.00015 16.5 4.00019 16.5 4.00022 16.5C4.00026 16.5 4.0003 16.5 4.00035 16.5C4.00039 16.5 4.00044 16.5 4.0005 16.5C4.00055 16.5 4.00061 16.5 4.00068 16.5C4.00074 16.5 4.00081 16.5 4.00089 16.5C4.00096 16.5 4.00104 16.5 4.00112 16.5C4.0012 16.5 4.00129 16.5 4.00138 16.5C4.00147 16.5 4.00157 16.5 4.00167 16.5C4.00177 16.5 4.00188 16.5 4.00199 16.5C4.0021 16.5 4.00221 16.5 4.00233 16.5C4.00245 16.5 4.00257 16.5 4.0027 16.5C4.00283 16.5 4.00296 16.5 4.0031 16.5C4.00323 16.5 4.00337 16.5 4.00352 16.5C4.00367 16.5 4.00382 16.5 4.00397 16.5C4.00413 16.5 4.00428 16.5 4.00445 16.5C4.00461 16.5 4.00478 16.5 4.00495 16.5C4.00512 16.5 4.0053 16.5 4.00548 16.5C4.00566 16.5 4.00585 16.5 4.00604 16.5C4.00623 16.5 4.00642 16.5 4.00662 16.5C4.00682 16.5 4.00702 16.5 4.00723 16.5C4.00744 16.5 4.00765 16.5 4.00786 16.5C4.00808 16.5 4.0083 16.5 4.00853 16.5C4.00875 16.5 4.00898 16.5 4.00921 16.5C4.00945 16.5 4.00968 16.5 4.00993 16.5C4.01017 16.5 4.01041 16.5 4.01067 16.5C4.01092 16.5 4.01117 16.5 4.01143 16.5C4.01169 16.5 4.01195 16.5 4.01222 16.5C4.01249 16.5 4.01276 16.5 4.01304 16.5C4.01331 16.5 4.0136 16.5 4.01388 16.5C4.01417 16.5 4.01445 16.5 4.01475 16.5C4.01504 16.5 4.01534 16.5 4.01564 16.5C4.01594 16.5 4.01625 16.5 4.01656 16.5C4.01687 16.5 4.01718 16.5 4.0175 16.5C4.01782 16.5 4.01814 16.5 4.01847 16.5C4.0188 16.5 4.01913 16.5 4.01947 16.5C4.0198 16.5 4.02014 16.5 4.02049 16.5C4.02083 16.5 4.02118 16.5 4.02153 16.5C4.02188 16.5 4.02224 16.5 4.0226 16.5C4.02296 16.5 4.02332 16.5 4.02369 16.5C4.02406 16.5 4.02443 16.5 4.02481 16.5C4.02519 16.5 4.02557 16.5 4.02596 16.5C4.02634 16.5 4.02673 16.5 4.02712 16.5C4.02752 16.5 4.02791 16.5 4.02832 16.5C4.02872 16.5 4.02912 16.5 4.02953 16.5C4.02994 16.5 4.03036 16.5 4.03078 16.5C4.03119 16.5 4.03162 16.5 4.03204 16.5C4.03247 16.5 4.0329 16.5 4.03333 16.5C4.03377 16.5 4.0342 16.5 4.03465 16.5C4.03509 16.5 4.03553 16.5 4.03598 16.5C4.03643 16.5 4.03689 16.5 4.03735 16.5C4.03781 16.5 4.03827 16.5 4.03873 16.5C4.0392 16.5 4.03967 16.5 4.04014 16.5C4.04062 16.5 4.0411 16.5 4.04158 16.5C4.04206 16.5 4.04255 16.5 4.04304 16.5C4.04353 16.5 4.04402 16.5 4.04452 16.5C4.04502 16.5 4.04552 16.5 4.04602 16.5C4.04653 16.5 4.04704 16.5 4.04755 16.5C4.04807 16.5 4.04858 16.5 4.04911 16.5C4.04963 16.5 4.05015 16.5 4.05068 16.5C4.05121 16.5 4.05174 16.5 4.05228 16.5C4.05282 16.5 4.05336 16.5 4.0539 16.5C4.05445 16.5 4.055 16.5 4.05555 16.5C4.0561 16.5 4.05666 16.5 4.05722 16.5C4.05778 16.5 4.05834 16.5 4.05891 16.5C4.05948 16.5 4.06005 16.5 4.06062 16.5C4.0612 16.5 4.06178 16.5 4.06236 16.5C4.06294 16.5 4.06353 16.5 4.06412 16.5C4.06471 16.5 4.0653 16.5 4.0659 16.5C4.0665 16.5 4.0671 16.5 4.06771 16.5C4.06831 16.5 4.06892 16.5 4.06954 16.5C4.07015 16.5 4.07077 16.5 4.07139 16.5C4.07201 16.5 4.07263 16.5 4.07326 16.5C4.07389 16.5 4.07452 16.5 4.07516 16.5C4.07579 16.5 4.07643 16.5 4.07707 16.5C4.07772 16.5 4.07836 16.5 4.07901 16.5C4.07966 16.5 4.08032 16.5 4.08097 16.5C4.08163 16.5 4.08229 16.5 4.08296 16.5C4.08362 16.5 4.08429 16.5 4.08496 16.5C4.08564 16.5 4.08631 16.5 4.08699 16.5C4.08767 16.5 4.08835 16.5 4.08904 16.5C4.08973 16.5 4.09042 16.5 4.09111 16.5C4.09181 16.5 4.0925 16.5 4.09321 16.5C4.09391 16.5 4.09461 16.5 4.09532 16.5C4.09603 16.5 4.09674 16.5 4.09746 16.5C4.09817 16.5 4.09889 16.5 4.09961 16.5C4.10034 16.5 4.10106 16.5 4.10179 16.5C4.10252 16.5 4.10326 16.5 4.10399 16.5C4.10473 16.5 4.10547 16.5 4.10622 16.5C4.10696 16.5 4.10771 16.5 4.10846 16.5C4.10921 16.5 4.10996 16.5 4.11072 16.5C4.11148 16.5 4.11224 16.5 4.11301 16.5C4.11377 16.5 4.11454 16.5 4.11531 16.5C4.11609 16.5 4.11686 16.5 4.11764 16.5C4.11842 16.5 4.1192 16.5 4.11999 16.5C4.12077 16.5 4.12156 16.5 4.12236 16.5C4.12315 16.5 4.12394 16.5 4.12474 16.5C4.12554 16.5 4.12635 16.5 4.12715 16.5C4.12796 16.5 4.12877 16.5 4.12958 16.5C4.1304 16.5 4.13121 16.5 4.13203 16.5C4.13285 16.5 4.13368 16.5 4.1345 16.5C4.13533 16.5 4.13616 16.5 4.137 16.5C4.13783 16.5 4.13867 16.5 4.13951 16.5C4.14035 16.5 4.14119 16.5 4.14204 16.5C4.14288 16.5 4.14373 16.5 4.14459 16.5C4.14544 16.5 4.1463 16.5 4.14716 16.5C4.14802 16.5 4.14888 16.5 4.14975 16.5C4.15062 16.5 4.15149 16.5 4.15236 16.5C4.15324 16.5 4.15411 16.5 4.15499 16.5C4.15587 16.5 4.15676 16.5 4.15764 16.5C4.15853 16.5 4.15942 16.5 4.16031 16.5C4.16121 16.5 4.1621 16.5 4.163 16.5C4.1639 16.5 4.16481 16.5 4.16571 16.5C4.16662 16.5 4.16753 16.5 4.16844 16.5C4.16935 16.5 4.17027 16.5 4.17119 16.5C4.17211 16.5 4.17303 16.5 4.17395 16.5C4.17488 16.5 4.17581 16.5 4.17674 16.5C4.17767 16.5 4.17861 16.5 4.17955 16.5C4.18048 16.5 4.18143 16.5 4.18237 16.5C4.18331 16.5 4.18426 16.5 4.18521 16.5C4.18616 16.5 4.18712 16.5 4.18807 16.5C4.18903 16.5 4.18999 16.5 4.19096 16.5C4.19192 16.5 4.19289 16.5 4.19386 16.5C4.19482 16.5 4.1958 16.5 4.19677 16.5C4.19775 16.5 4.19873 16.5 4.19971 16.5C4.20069 16.5 4.20168 16.5 4.20267 16.5C4.20365 16.5 4.20464 16.5 4.20564 16.5C4.20663 16.5 4.20763 16.5 4.20863 16.5C4.20963 16.5 4.21063 16.5 4.21164 16.5C4.21265 16.5 4.21366 16.5 4.21467 16.5C4.21568 16.5 4.2167 16.5 4.21772 16.5C4.21873 16.5 4.21976 16.5 4.22078 16.5C4.2218 16.5 4.22283 16.5 4.22386 16.5C4.22489 16.5 4.22593 16.5 4.22696 16.5C4.228 16.5 4.22904 16.5 4.23008 16.5C4.23112 16.5 4.23217 16.5 4.23322 16.5C4.23427 16.5 4.23532 16.5 4.23637 16.5C4.23743 16.5 4.23848 16.5 4.23954 16.5C4.2406 16.5 4.24167 16.5 4.24273 16.5C4.2438 16.5 4.24487 16.5 4.24594 16.5C4.24701 16.5 4.24808 16.5 4.24916 16.5C4.25024 16.5 4.25132 16.5 4.2524 16.5C4.25349 16.5 4.25457 16.5 4.25566 16.5C4.25675 16.5 4.25784 16.5 4.25894 16.5C4.26003 16.5 4.26113 16.5 4.26223 16.5C4.26333 16.5 4.26443 16.5 4.26554 16.5C4.26664 16.5 4.26775 16.5 4.26886 16.5C4.26998 16.5 4.27109 16.5 4.27221 16.5C4.27332 16.5 4.27444 16.5 4.27557 16.5C4.27669 16.5 4.27782 16.5 4.27894 16.5C4.28007 16.5 4.2812 16.5 4.28234 16.5C4.28347 16.5 4.28461 16.5 4.28575 16.5C4.28689 16.5 4.28803 16.5 4.28917 16.5C4.29032 16.5 4.29147 16.5 4.29262 16.5C4.29377 16.5 4.29492 16.5 4.29608 16.5C4.29723 16.5 4.29839 16.5 4.29955 16.5C4.30071 16.5 4.30188 16.5 4.30304 16.5C4.30421 16.5 4.30538 16.5 4.30655 16.5C4.30772 16.5 4.3089 16.5 4.31008 16.5C4.31125 16.5 4.31243 16.5 4.31362 16.5C4.3148 16.5 4.31598 16.5 4.31717 16.5C4.31836 16.5 4.31955 16.5 4.32074 16.5C4.32194 16.5 4.32313 16.5 4.32433 16.5C4.32553 16.5 4.32673 16.5 4.32793 16.5C4.32914 16.5 4.33034 16.5 4.33155 16.5C4.33276 16.5 4.33397 16.5 4.33519 16.5C4.3364 16.5 4.33762 16.5 4.33884 16.5C4.34005 16.5 4.34128 16.5 4.3425 16.5C4.34372 16.5 4.34495 16.5 4.34618 16.5C4.34741 16.5 4.34864 16.5 4.34988 16.5C4.35111 16.5 4.35235 16.5 4.35359 16.5C4.35483 16.5 4.35607 16.5 4.35731 16.5C4.35856 16.5 4.3598 16.5 4.36105 16.5C4.3623 16.5 4.36355 16.5 4.36481 16.5C4.36606 16.5 4.36732 16.5 4.36858 16.5C4.36984 16.5 4.3711 16.5 4.37237 16.5C4.37363 16.5 4.3749 16.5 4.37617 16.5C4.37743 16.5 4.37871 16.5 4.37998 16.5C4.38125 16.5 4.38253 16.5 4.38381 16.5C4.38509 16.5 4.38637 16.5 4.38765 16.5C4.38894 16.5 4.39022 16.5 4.39151 16.5C4.3928 16.5 4.39409 16.5 4.39538 16.5C4.39668 16.5 4.39797 16.5 4.39927 16.5C4.40057 16.5 4.40187 16.5 4.40317 16.5C4.40447 16.5 4.40578 16.5 4.40709 16.5C4.40839 16.5 4.4097 16.5 4.41102 16.5C4.41233 16.5 4.41364 16.5 4.41496 16.5C4.41628 16.5 4.4176 16.5 4.41892 16.5C4.42024 16.5 4.42156 16.5 4.42289 16.5C4.42421 16.5 4.42554 16.5 4.42687 16.5C4.4282 16.5 4.42954 16.5 4.43087 16.5C4.43221 16.5 4.43354 16.5 4.43488 16.5C4.43622 16.5 4.43756 16.5 4.43891 16.5C4.44025 16.5 4.4416 16.5 4.44295 16.5C4.4443 16.5 4.44565 16.5 4.447 16.5C4.44835 16.5 4.44971 16.5 4.45106 16.5C4.45242 16.5 4.45378 16.5 4.45514 16.5C4.45651 16.5 4.45787 16.5 4.45924 16.5C4.4606 16.5 4.46197 16.5 4.46334 16.5C4.46471 16.5 4.46608 16.5 4.46746 16.5C4.46883 16.5 4.47021 16.5 4.47159 16.5C4.47297 16.5 4.47435 16.5 4.47573 16.5C4.47712 16.5 4.4785 16.5 4.47989 16.5C4.48128 16.5 4.48267 16.5 4.48406 16.5C4.48545 16.5 4.48685 16.5 4.48824 16.5C4.48964 16.5 4.49104 16.5 4.49244 16.5C4.49384 16.5 4.49524 16.5 4.49664 16.5C4.49805 16.5 4.49945 16.5 4.50086 16.5C4.50227 16.5 4.50368 16.5 4.5051 16.5C4.50651 16.5 4.50792 16.5 4.50934 16.5C4.51076 16.5 4.51217 16.5 4.5136 16.5C4.51502 16.5 4.51644 16.5 4.51786 16.5C4.51929 16.5 4.52072 16.5 4.52214 16.5C4.52357 16.5 4.525 16.5 4.52644 16.5C4.52787 16.5 4.5293 16.5 4.53074 16.5C4.53218 16.5 4.53362 16.5 4.53506 16.5C4.5365 16.5 4.53794 16.5 4.53939 16.5C4.54083 16.5 4.54228 16.5 4.54373 16.5C4.54517 16.5 4.54662 16.5 4.54808 16.5C4.54953 16.5 4.55098 16.5 4.55244 16.5C4.5539 16.5 4.55535 16.5 4.55681 16.5C4.55827 16.5 4.55974 16.5 4.5612 16.5C4.56266 16.5 4.56413 16.5 4.5656 16.5C4.56706 16.5 4.56853 16.5 4.57 16.5C4.57148 16.5 4.57295 16.5 4.57442 16.5C4.5759 16.5 4.57738 16.5 4.57885 16.5C4.58033 16.5 4.58181 16.5 4.5833 16.5C4.58478 16.5 4.58626 16.5 4.58775 16.5C4.58923 16.5 4.59072 16.5 4.59221 16.5C4.5937 16.5 4.59519 16.5 4.59669 16.5C4.59818 16.5 4.59967 16.5 4.60117 16.5C4.60267 16.5 4.60417 16.5 4.60567 16.5C4.60717 16.5 4.60867 16.5 4.61017 16.5C4.61168 16.5 4.61318 16.5 4.61469 16.5C4.6162 16.5 4.6177 16.5 4.61921 16.5C4.62073 16.5 4.62224 16.5 4.62375 16.5C4.62527 16.5 4.62678 16.5 4.6283 16.5C4.62982 16.5 4.63134 16.5 4.63286 16.5C4.63438 16.5 4.6359 16.5 4.63743 16.5C4.63895 16.5 4.64048 16.5 4.642 16.5C4.64353 16.5 4.64506 16.5 4.64659 16.5C4.64812 16.5 4.64965 16.5 4.65119 16.5C4.65272 16.5 4.65426 16.5 4.6558 16.5C4.65733 16.5 4.65887 16.5 4.66041 16.5C4.66195 16.5 4.6635 16.5 4.66504 16.5C4.66658 16.5 4.66813 16.5 4.66968 16.5C4.67122 16.5 4.67277 16.5 4.67432 16.5C4.67587 16.5 4.67743 16.5 4.67898 16.5C4.68053 16.5 4.68209 16.5 4.68364 16.5C4.6852 16.5 4.68676 16.5 4.68832 16.5C4.68988 16.5 4.69144 16.5 4.693 16.5C4.69456 16.5 4.69613 16.5 4.69769 16.5C4.69926 16.5 4.70083 16.5 4.7024 16.5C4.70396 16.5 4.70553 16.5 4.70711 16.5C4.70868 16.5 4.71025 16.5 4.71183 16.5C4.7134 16.5 4.71498 16.5 4.71656 16.5C4.71813 16.5 4.71971 16.5 4.72129 16.5C4.72287 16.5 4.72446 16.5 4.72604 16.5C4.72762 16.5 4.72921 16.5 4.73079 16.5C4.73238 16.5 4.73397 16.5 4.73556 16.5C4.73715 16.5 4.73874 16.5 4.74033 16.5C4.74192 16.5 4.74351 16.5 4.74511 16.5C4.7467 16.5 4.7483 16.5 4.7499 16.5C4.75149 16.5 4.75309 16.5 4.75469 16.5C4.75629 16.5 4.7579 16.5 4.7595 16.5C4.7611 16.5 4.76271 16.5 4.76431 16.5C4.76592 16.5 4.76752 16.5 4.76913 16.5C4.77074 16.5 4.77235 16.5 4.77396 16.5C4.77557 16.5 4.77719 16.5 4.7788 16.5C4.78041 16.5 4.78203 16.5 4.78364 16.5C4.78526 16.5 4.78688 16.5 4.7885 16.5C4.79012 16.5 4.79174 16.5 4.79336 16.5C4.79498 16.5 4.7966 16.5 4.79823 16.5C4.79985 16.5 4.80147 16.5 4.8031 16.5C4.80473 16.5 4.80635 16.5 4.80798 16.5C4.80961 16.5 4.81124 16.5 4.81287 16.5C4.81451 16.5 4.81614 16.5 4.81777 16.5C4.81941 16.5 4.82104 16.5 4.82268 16.5C4.82431 16.5 4.82595 16.5 4.82759 16.5C4.82923 16.5 4.83087 16.5 4.83251 16.5C4.83415 16.5 4.83579 16.5 4.83743 16.5C4.83908 16.5 4.84072 16.5 4.84237 16.5C4.84401 16.5 4.84566 16.5 4.84731 16.5C4.84895 16.5 4.8506 16.5 4.85225 16.5C4.8539 16.5 4.85555 16.5 4.85721 16.5C4.85886 16.5 4.86051 16.5 4.86217 16.5C4.86382 16.5 4.86548 16.5 4.86713 16.5C4.86879 16.5 4.87045 16.5 4.87211 16.5C4.87377 16.5 4.87543 16.5 4.87709 16.5C4.87875 16.5 4.88041 16.5 4.88207 16.5C4.88374 16.5 4.8854 16.5 4.88706 16.5C4.88873 16.5 4.8904 16.5 4.89206 16.5C4.89373 16.5 4.8954 16.5 4.89707 16.5C4.89874 16.5 4.90041 16.5 4.90208 16.5C4.90375 16.5 4.90542 16.5 4.90709 16.5C4.90877 16.5 4.91044 16.5 4.91212 16.5C4.91379 16.5 4.91547 16.5 4.91715 16.5C4.91882 16.5 4.9205 16.5 4.92218 16.5C4.92386 16.5 4.92554 16.5 4.92722 16.5C4.9289 16.5 4.93058 16.5 4.93226 16.5C4.93395 16.5 4.93563 16.5 4.93731 16.5C4.939 16.5 4.94068 16.5 4.94237 16.5C4.94406 16.5 4.94574 16.5 4.94743 16.5C4.94912 16.5 4.95081 16.5 4.9525 16.5C4.95419 16.5 4.95588 16.5 4.95757 16.5C4.95926 16.5 4.96096 16.5 4.96265 16.5C4.96434 16.5 4.96604 16.5 4.96773 16.5C4.96943 16.5 4.97112 16.5 4.97282 16.5C4.97452 16.5 4.97621 16.5 4.97791 16.5C4.97961 16.5 4.98131 16.5 4.98301 16.5C4.98471 16.5 4.98641 16.5 4.98811 16.5C4.98981 16.5 4.99151 16.5 4.99322 16.5C4.99492 16.5 4.99662 16.5 4.99833 16.5C5.00003 16.5 5.00174 16.5 5.00345 16.5C5.00515 16.5 5.00686 16.5 5.00857 16.5C5.01027 16.5 5.01198 16.5 5.01369 16.5C5.0154 16.5 5.01711 16.5 5.01882 16.5C5.02053 16.5 5.02224 16.5 5.02395 16.5C5.02567 16.5 5.02738 16.5 5.02909 16.5C5.0308 16.5 5.03252 16.5 5.03423 16.5C5.03595 16.5 5.03766 16.5 5.03938 16.5C5.04109 16.5 5.04281 16.5 5.04453 16.5C5.04625 16.5 5.04796 16.5 5.04968 16.5C5.0514 16.5 5.05312 16.5 5.05484 16.5C5.05656 16.5 5.05828 16.5 5.06 16.5C5.06172 16.5 5.06344 16.5 5.06517 16.5C5.06689 16.5 5.06861 16.5 5.07033 16.5C5.07206 16.5 5.07378 16.5 5.07551 16.5C5.07723 16.5 5.07896 16.5 5.08068 16.5C5.08241 16.5 5.08413 16.5 5.08586 16.5C5.08759 16.5 5.08932 16.5 5.09104 16.5C5.09277 16.5 5.0945 16.5 5.09623 16.5C5.09796 16.5 5.09969 16.5 5.10142 16.5C5.10315 16.5 5.10488 16.5 5.10661 16.5C5.10834 16.5 5.11007 16.5 5.1118 16.5C5.11354 16.5 5.11527 16.5 5.117 16.5C5.11874 16.5 5.12047 16.5 5.1222 16.5C5.12394 16.5 5.12567 16.5 5.12741 16.5C5.12914 16.5 5.13088 16.5 5.13261 16.5C5.13435 16.5 5.13608 16.5 5.13782 16.5C5.13956 16.5 5.1413 16.5 5.14303 16.5C5.14477 16.5 5.14651 16.5 5.14825 16.5C5.14999 16.5 5.15172 16.5 5.15346 16.5C5.1552 16.5 5.15694 16.5 5.15868 16.5C5.16042 16.5 5.16216 16.5 5.1639 16.5C5.16564 16.5 5.16738 16.5 5.16913 16.5C5.17087 16.5 5.17261 16.5 5.17435 16.5C5.17609 16.5 5.17784 16.5 5.17958 16.5C5.18132 16.5 5.18306 16.5 5.18481 16.5C5.18655 16.5 5.18829 16.5 5.19004 16.5C5.19178 16.5 5.19353 16.5 5.19527 16.5C5.19702 16.5 5.19876 16.5 5.20051 16.5C5.20225 16.5 5.204 16.5 5.20574 16.5C5.20749 16.5 5.20923 16.5 5.21098 16.5C5.21273 16.5 5.21447 16.5 5.21622 16.5C5.21797 16.5 5.21971 16.5 5.22146 16.5C5.22321 16.5 5.22496 16.5 5.2267 16.5C5.22845 16.5 5.2302 16.5 5.23195 16.5C5.23369 16.5 5.23544 16.5 5.23719 16.5C5.23894 16.5 5.24069 16.5 5.24244 16.5C5.24419 16.5 5.24594 16.5 5.24768 16.5C5.24943 16.5 5.25118 16.5 5.25293 16.5C5.25468 16.5 5.25643 16.5 5.25818 16.5C5.25993 16.5 5.26168 16.5 5.26343 16.5C5.26518 16.5 5.26693 16.5 5.26868 16.5C5.27043 16.5 5.27218 16.5 5.27393 16.5C5.27569 16.5 5.27744 16.5 5.27919 16.5C5.28094 16.5 5.28269 16.5 5.28444 16.5C5.28619 16.5 5.28794 16.5 5.28969 16.5C5.29144 16.5 5.29319 16.5 5.29495 16.5C5.2967 16.5 5.29845 16.5 5.3002 16.5C5.30195 16.5 5.3037 16.5 5.30545 16.5C5.30721 16.5 5.30896 16.5 5.31071 16.5C5.31246 16.5 5.31421 16.5 5.31596 16.5C5.31771 16.5 5.31947 16.5 5.32122 16.5C5.32297 16.5 5.32472 16.5 5.32647 16.5C5.32822 16.5 5.32998 16.5 5.33173 16.5C5.33348 16.5 5.33523 16.5 5.33698 16.5C5.33873 16.5 5.34048 16.5 5.34224 16.5C5.34399 16.5 5.34574 16.5 5.34749 16.5C5.34924 16.5 5.35099 16.5 5.35274 16.5C5.35449 16.5 5.35624 16.5 5.358 16.5C5.35975 16.5 5.3615 16.5 5.36325 16.5C5.365 16.5 5.36675 16.5 5.3685 16.5C5.37025 16.5 5.372 16.5 5.37375 16.5C5.3755 16.5 5.37725 16.5 5.379 16.5C5.38075 16.5 5.3825 16.5 5.38425 16.5C5.386 16.5 5.38775 16.5 5.3895 16.5C5.39125 16.5 5.393 16.5 5.39475 16.5C5.39649 16.5 5.39824 16.5 5.39999 16.5C5.40174 16.5 5.40349 16.5 5.40524 16.5C5.40699 16.5 5.40873 16.5 5.41048 16.5C5.41223 16.5 5.41398 16.5 5.41572 16.5C5.41747 16.5 5.41922 16.5 5.42097 16.5C5.42271 16.5 5.42446 16.5 5.42621 16.5C5.42795 16.5 5.4297 16.5 5.43144 16.5C5.43319 16.5 5.43494 16.5 5.43668 16.5C5.43843 16.5 5.44017 16.5 5.44192 16.5C5.44366 16.5 5.44541 16.5 5.44715 16.5C5.44889 16.5 5.45064 16.5 5.45238 16.5C5.45413 16.5 5.45587 16.5 5.45761 16.5C5.45936 16.5 5.4611 16.5 5.46284 16.5C5.46458 16.5 5.46632 16.5 5.46807 16.5C5.46981 16.5 5.47155 16.5 5.47329 16.5C5.47503 16.5 5.47677 16.5 5.47851 16.5C5.48025 16.5 5.48199 16.5 5.48373 16.5C5.48547 16.5 5.48721 16.5 5.48895 16.5C5.49069 16.5 5.49243 16.5 5.49416 16.5C5.4959 16.5 5.49764 16.5 5.49938 16.5C5.50111 16.5 5.50285 16.5 5.50458 16.5C5.50632 16.5 5.50806 16.5 5.50979 16.5C5.51153 16.5 5.51326 16.5 5.515 16.5C5.51673 16.5 5.51846 16.5 5.5202 16.5C5.52193 16.5 5.52366 16.5 5.5254 16.5C5.52713 16.5 5.52886 16.5 5.53059 16.5C5.53232 16.5 5.53406 16.5 5.53579 16.5C5.53752 16.5 5.53925 16.5 5.54098 16.5C5.5427 16.5 5.54443 16.5 5.54616 16.5C5.54789 16.5 5.54962 16.5 5.55135 16.5C5.55307 16.5 5.5548 16.5 5.55653 16.5C5.55825 16.5 5.55998 16.5 5.5617 16.5C5.56343 16.5 5.56515 16.5 5.56688 16.5C5.5686 16.5 5.57032 16.5 5.57205 16.5C5.57377 16.5 5.57549 16.5 5.57721 16.5C5.57893 16.5 5.58065 16.5 5.58237 16.5C5.5841 16.5 5.58581 16.5 5.58753 16.5C5.58925 16.5 5.59097 16.5 5.59269 16.5C5.59441 16.5 5.59612 16.5 5.59784 16.5C5.59956 16.5 5.60127 16.5 5.60299 16.5C5.6047 16.5 5.60642 16.5 5.60813 16.5C5.60984 16.5 5.61156 16.5 5.61327 16.5C5.61498 16.5 5.61669 16.5 5.61841 16.5C5.62012 16.5 5.62183 16.5 5.62354 16.5C5.62525 16.5 5.62695 16.5 5.62866 16.5C5.63037 16.5 5.63208 16.5 5.63378 16.5C5.63549 16.5 5.6372 16.5 5.6389 16.5C5.64061 16.5 5.64231 16.5 5.64402 16.5C5.64572 16.5 5.64742 16.5 5.64912 16.5C5.65083 16.5 5.65253 16.5 5.65423 16.5C5.65593 16.5 5.65763 16.5 5.65933 16.5C5.66103 16.5 5.66272 16.5 5.66442 16.5C5.66612 16.5 5.66781 16.5 5.66951 16.5C5.67121 16.5 5.6729 16.5 5.67459 16.5C5.67629 16.5 5.67798 16.5 5.67967 16.5C5.68137 16.5 5.68306 16.5 5.68475 16.5C5.68644 16.5 5.68813 16.5 5.68982 16.5C5.6915 16.5 5.69319 16.5 5.69488 16.5C5.69657 16.5 5.69825 16.5 5.69994 16.5C5.70162 16.5 5.70331 16.5 5.70499 16.5C5.70667 16.5 5.70836 16.5 5.71004 16.5C5.71172 16.5 5.7134 16.5 5.71508 16.5C5.71676 16.5 5.71844 16.5 5.72012 16.5C5.72179 16.5 5.72347 16.5 5.72515 16.5C5.72682 16.5 5.7285 16.5 5.73017 16.5C5.73184 16.5 5.73352 16.5 5.73519 16.5C5.73686 16.5 5.73853 16.5 5.7402 16.5C5.74187 16.5 5.74354 16.5 5.74521 16.5C5.74688 16.5 5.74854 16.5 5.75021 16.5C5.75188 16.5 5.75354 16.5 5.7552 16.5C5.75687 16.5 5.75853 16.5 5.76019 16.5C5.76185 16.5 5.76351 16.5 5.76517 16.5C5.76683 16.5 5.76849 16.5 5.77015 16.5C5.77181 16.5 5.77346 16.5 5.77512 16.5C5.77677 16.5 5.77843 16.5 5.78008 16.5C5.78173 16.5 5.78339 16.5 5.78504 16.5C5.78669 16.5 5.78834 16.5 5.78999 16.5C5.79163 16.5 5.79328 16.5 5.79493 16.5C5.79657 16.5 5.79822 16.5 5.79986 16.5C5.80151 16.5 5.80315 16.5 5.80479 16.5C5.80643 16.5 5.80807 16.5 5.80971 16.5C5.81135 16.5 5.81299 16.5 5.81463 16.5C5.81627 16.5 5.8179 16.5 5.81954 16.5C5.82117 16.5 5.8228 16.5 5.82444 16.5C5.82607 16.5 5.8277 16.5 5.82933 16.5C5.83096 16.5 5.83259 16.5 5.83421 16.5C5.83584 16.5 5.83747 16.5 5.83909 16.5C5.84072 16.5 5.84234 16.5 5.84396 16.5C5.84559 16.5 5.84721 16.5 5.84883 16.5C5.85045 16.5 5.85206 16.5 5.85368 16.5C5.8553 16.5 5.85691 16.5 5.85853 16.5C5.86014 16.5 5.86176 16.5 5.86337 16.5C5.86498 16.5 5.86659 16.5 5.8682 16.5C5.86981 16.5 5.87142 16.5 5.87303 16.5C5.87463 16.5 5.87624 16.5 5.87784 16.5C5.87945 16.5 5.88105 16.5 5.88265 16.5C5.88425 16.5 5.88585 16.5 5.88745 16.5C5.88905 16.5 5.89064 16.5 5.89224 16.5C5.89384 16.5 5.89543 16.5 5.89702 16.5C5.89862 16.5 5.90021 16.5 5.9018 16.5C5.90339 16.5 5.90498 16.5 5.90657 16.5C5.90815 16.5 5.90974 16.5 5.91132 16.5C5.91291 16.5 5.91449 16.5 5.91607 16.5C5.91765 16.5 5.91923 16.5 5.92081 16.5C5.92239 16.5 5.92397 16.5 5.92554 16.5C5.92712 16.5 5.92869 16.5 5.93027 16.5C5.93184 16.5 5.93341 16.5 5.93498 16.5C5.93655 16.5 5.93812 16.5 5.93969 16.5C5.94125 16.5 5.94282 16.5 5.94438 16.5C5.94595 16.5 5.94751 16.5 5.94907 16.5C5.95063 16.5 5.95219 16.5 5.95375 16.5C5.9553 16.5 5.95686 16.5 5.95841 16.5C5.95997 16.5 5.96152 16.5 5.96307 16.5C5.96463 16.5 5.96618 16.5 5.96772 16.5C5.96927 16.5 5.97082 16.5 5.97236 16.5C5.97391 16.5 5.97545 16.5 5.97699 16.5C5.97854 16.5 5.98008 16.5 5.98161 16.5C5.98315 16.5 5.98469 16.5 5.98623 16.5C5.98776 16.5 5.9893 16.5 5.99083 16.5C5.99236 16.5 5.99389 16.5 5.99542 16.5C5.99695 16.5 5.99847 16.5 6 16.5V15.5C5.99847 15.5 5.99695 15.5 5.99542 15.5C5.99389 15.5 5.99236 15.5 5.99083 15.5C5.9893 15.5 5.98776 15.5 5.98623 15.5C5.98469 15.5 5.98315 15.5 5.98161 15.5C5.98008 15.5 5.97854 15.5 5.97699 15.5C5.97545 15.5 5.97391 15.5 5.97236 15.5C5.97082 15.5 5.96927 15.5 5.96772 15.5C5.96618 15.5 5.96463 15.5 5.96307 15.5C5.96152 15.5 5.95997 15.5 5.95841 15.5C5.95686 15.5 5.9553 15.5 5.95375 15.5C5.95219 15.5 5.95063 15.5 5.94907 15.5C5.94751 15.5 5.94595 15.5 5.94438 15.5C5.94282 15.5 5.94125 15.5 5.93969 15.5C5.93812 15.5 5.93655 15.5 5.93498 15.5C5.93341 15.5 5.93184 15.5 5.93027 15.5C5.92869 15.5 5.92712 15.5 5.92554 15.5C5.92397 15.5 5.92239 15.5 5.92081 15.5C5.91923 15.5 5.91765 15.5 5.91607 15.5C5.91449 15.5 5.91291 15.5 5.91132 15.5C5.90974 15.5 5.90815 15.5 5.90657 15.5C5.90498 15.5 5.90339 15.5 5.9018 15.5C5.90021 15.5 5.89862 15.5 5.89702 15.5C5.89543 15.5 5.89384 15.5 5.89224 15.5C5.89064 15.5 5.88905 15.5 5.88745 15.5C5.88585 15.5 5.88425 15.5 5.88265 15.5C5.88105 15.5 5.87945 15.5 5.87784 15.5C5.87624 15.5 5.87463 15.5 5.87303 15.5C5.87142 15.5 5.86981 15.5 5.8682 15.5C5.86659 15.5 5.86498 15.5 5.86337 15.5C5.86176 15.5 5.86014 15.5 5.85853 15.5C5.85691 15.5 5.8553 15.5 5.85368 15.5C5.85206 15.5 5.85045 15.5 5.84883 15.5C5.84721 15.5 5.84559 15.5 5.84396 15.5C5.84234 15.5 5.84072 15.5 5.83909 15.5C5.83747 15.5 5.83584 15.5 5.83421 15.5C5.83259 15.5 5.83096 15.5 5.82933 15.5C5.8277 15.5 5.82607 15.5 5.82444 15.5C5.8228 15.5 5.82117 15.5 5.81954 15.5C5.8179 15.5 5.81627 15.5 5.81463 15.5C5.81299 15.5 5.81135 15.5 5.80971 15.5C5.80807 15.5 5.80643 15.5 5.80479 15.5C5.80315 15.5 5.80151 15.5 5.79986 15.5C5.79822 15.5 5.79657 15.5 5.79493 15.5C5.79328 15.5 5.79163 15.5 5.78999 15.5C5.78834 15.5 5.78669 15.5 5.78504 15.5C5.78339 15.5 5.78173 15.5 5.78008 15.5C5.77843 15.5 5.77677 15.5 5.77512 15.5C5.77346 15.5 5.77181 15.5 5.77015 15.5C5.76849 15.5 5.76683 15.5 5.76517 15.5C5.76351 15.5 5.76185 15.5 5.76019 15.5C5.75853 15.5 5.75687 15.5 5.7552 15.5C5.75354 15.5 5.75188 15.5 5.75021 15.5C5.74854 15.5 5.74688 15.5 5.74521 15.5C5.74354 15.5 5.74187 15.5 5.7402 15.5C5.73853 15.5 5.73686 15.5 5.73519 15.5C5.73352 15.5 5.73184 15.5 5.73017 15.5C5.7285 15.5 5.72682 15.5 5.72515 15.5C5.72347 15.5 5.72179 15.5 5.72012 15.5C5.71844 15.5 5.71676 15.5 5.71508 15.5C5.7134 15.5 5.71172 15.5 5.71004 15.5C5.70836 15.5 5.70667 15.5 5.70499 15.5C5.70331 15.5 5.70162 15.5 5.69994 15.5C5.69825 15.5 5.69657 15.5 5.69488 15.5C5.69319 15.5 5.6915 15.5 5.68982 15.5C5.68813 15.5 5.68644 15.5 5.68475 15.5C5.68306 15.5 5.68137 15.5 5.67967 15.5C5.67798 15.5 5.67629 15.5 5.67459 15.5C5.6729 15.5 5.67121 15.5 5.66951 15.5C5.66781 15.5 5.66612 15.5 5.66442 15.5C5.66272 15.5 5.66103 15.5 5.65933 15.5C5.65763 15.5 5.65593 15.5 5.65423 15.5C5.65253 15.5 5.65083 15.5 5.64912 15.5C5.64742 15.5 5.64572 15.5 5.64402 15.5C5.64231 15.5 5.64061 15.5 5.6389 15.5C5.6372 15.5 5.63549 15.5 5.63378 15.5C5.63208 15.5 5.63037 15.5 5.62866 15.5C5.62695 15.5 5.62525 15.5 5.62354 15.5C5.62183 15.5 5.62012 15.5 5.61841 15.5C5.61669 15.5 5.61498 15.5 5.61327 15.5C5.61156 15.5 5.60984 15.5 5.60813 15.5C5.60642 15.5 5.6047 15.5 5.60299 15.5C5.60127 15.5 5.59956 15.5 5.59784 15.5C5.59612 15.5 5.59441 15.5 5.59269 15.5C5.59097 15.5 5.58925 15.5 5.58753 15.5C5.58581 15.5 5.5841 15.5 5.58237 15.5C5.58065 15.5 5.57893 15.5 5.57721 15.5C5.57549 15.5 5.57377 15.5 5.57205 15.5C5.57032 15.5 5.5686 15.5 5.56688 15.5C5.56515 15.5 5.56343 15.5 5.5617 15.5C5.55998 15.5 5.55825 15.5 5.55653 15.5C5.5548 15.5 5.55307 15.5 5.55135 15.5C5.54962 15.5 5.54789 15.5 5.54616 15.5C5.54443 15.5 5.5427 15.5 5.54098 15.5C5.53925 15.5 5.53752 15.5 5.53579 15.5C5.53406 15.5 5.53232 15.5 5.53059 15.5C5.52886 15.5 5.52713 15.5 5.5254 15.5C5.52366 15.5 5.52193 15.5 5.5202 15.5C5.51846 15.5 5.51673 15.5 5.515 15.5C5.51326 15.5 5.51153 15.5 5.50979 15.5C5.50806 15.5 5.50632 15.5 5.50458 15.5C5.50285 15.5 5.50111 15.5 5.49938 15.5C5.49764 15.5 5.4959 15.5 5.49416 15.5C5.49243 15.5 5.49069 15.5 5.48895 15.5C5.48721 15.5 5.48547 15.5 5.48373 15.5C5.48199 15.5 5.48025 15.5 5.47851 15.5C5.47677 15.5 5.47503 15.5 5.47329 15.5C5.47155 15.5 5.46981 15.5 5.46807 15.5C5.46632 15.5 5.46458 15.5 5.46284 15.5C5.4611 15.5 5.45936 15.5 5.45761 15.5C5.45587 15.5 5.45413 15.5 5.45238 15.5C5.45064 15.5 5.44889 15.5 5.44715 15.5C5.44541 15.5 5.44366 15.5 5.44192 15.5C5.44017 15.5 5.43843 15.5 5.43668 15.5C5.43494 15.5 5.43319 15.5 5.43144 15.5C5.4297 15.5 5.42795 15.5 5.42621 15.5C5.42446 15.5 5.42271 15.5 5.42097 15.5C5.41922 15.5 5.41747 15.5 5.41572 15.5C5.41398 15.5 5.41223 15.5 5.41048 15.5C5.40873 15.5 5.40699 15.5 5.40524 15.5C5.40349 15.5 5.40174 15.5 5.39999 15.5C5.39824 15.5 5.39649 15.5 5.39475 15.5C5.393 15.5 5.39125 15.5 5.3895 15.5C5.38775 15.5 5.386 15.5 5.38425 15.5C5.3825 15.5 5.38075 15.5 5.379 15.5C5.37725 15.5 5.3755 15.5 5.37375 15.5C5.372 15.5 5.37025 15.5 5.3685 15.5C5.36675 15.5 5.365 15.5 5.36325 15.5C5.3615 15.5 5.35975 15.5 5.358 15.5C5.35624 15.5 5.35449 15.5 5.35274 15.5C5.35099 15.5 5.34924 15.5 5.34749 15.5C5.34574 15.5 5.34399 15.5 5.34224 15.5C5.34048 15.5 5.33873 15.5 5.33698 15.5C5.33523 15.5 5.33348 15.5 5.33173 15.5C5.32998 15.5 5.32822 15.5 5.32647 15.5C5.32472 15.5 5.32297 15.5 5.32122 15.5C5.31947 15.5 5.31771 15.5 5.31596 15.5C5.31421 15.5 5.31246 15.5 5.31071 15.5C5.30896 15.5 5.30721 15.5 5.30545 15.5C5.3037 15.5 5.30195 15.5 5.3002 15.5C5.29845 15.5 5.2967 15.5 5.29495 15.5C5.29319 15.5 5.29144 15.5 5.28969 15.5C5.28794 15.5 5.28619 15.5 5.28444 15.5C5.28269 15.5 5.28094 15.5 5.27919 15.5C5.27744 15.5 5.27569 15.5 5.27393 15.5C5.27218 15.5 5.27043 15.5 5.26868 15.5C5.26693 15.5 5.26518 15.5 5.26343 15.5C5.26168 15.5 5.25993 15.5 5.25818 15.5C5.25643 15.5 5.25468 15.5 5.25293 15.5C5.25118 15.5 5.24943 15.5 5.24768 15.5C5.24594 15.5 5.24419 15.5 5.24244 15.5C5.24069 15.5 5.23894 15.5 5.23719 15.5C5.23544 15.5 5.23369 15.5 5.23195 15.5C5.2302 15.5 5.22845 15.5 5.2267 15.5C5.22496 15.5 5.22321 15.5 5.22146 15.5C5.21971 15.5 5.21797 15.5 5.21622 15.5C5.21447 15.5 5.21273 15.5 5.21098 15.5C5.20923 15.5 5.20749 15.5 5.20574 15.5C5.204 15.5 5.20225 15.5 5.20051 15.5C5.19876 15.5 5.19702 15.5 5.19527 15.5C5.19353 15.5 5.19178 15.5 5.19004 15.5C5.18829 15.5 5.18655 15.5 5.18481 15.5C5.18306 15.5 5.18132 15.5 5.17958 15.5C5.17784 15.5 5.17609 15.5 5.17435 15.5C5.17261 15.5 5.17087 15.5 5.16913 15.5C5.16738 15.5 5.16564 15.5 5.1639 15.5C5.16216 15.5 5.16042 15.5 5.15868 15.5C5.15694 15.5 5.1552 15.5 5.15346 15.5C5.15172 15.5 5.14999 15.5 5.14825 15.5C5.14651 15.5 5.14477 15.5 5.14303 15.5C5.1413 15.5 5.13956 15.5 5.13782 15.5C5.13608 15.5 5.13435 15.5 5.13261 15.5C5.13088 15.5 5.12914 15.5 5.12741 15.5C5.12567 15.5 5.12394 15.5 5.1222 15.5C5.12047 15.5 5.11874 15.5 5.117 15.5C5.11527 15.5 5.11354 15.5 5.1118 15.5C5.11007 15.5 5.10834 15.5 5.10661 15.5C5.10488 15.5 5.10315 15.5 5.10142 15.5C5.09969 15.5 5.09796 15.5 5.09623 15.5C5.0945 15.5 5.09277 15.5 5.09104 15.5C5.08932 15.5 5.08759 15.5 5.08586 15.5C5.08413 15.5 5.08241 15.5 5.08068 15.5C5.07896 15.5 5.07723 15.5 5.07551 15.5C5.07378 15.5 5.07206 15.5 5.07033 15.5C5.06861 15.5 5.06689 15.5 5.06517 15.5C5.06344 15.5 5.06172 15.5 5.06 15.5C5.05828 15.5 5.05656 15.5 5.05484 15.5C5.05312 15.5 5.0514 15.5 5.04968 15.5C5.04796 15.5 5.04625 15.5 5.04453 15.5C5.04281 15.5 5.04109 15.5 5.03938 15.5C5.03766 15.5 5.03595 15.5 5.03423 15.5C5.03252 15.5 5.0308 15.5 5.02909 15.5C5.02738 15.5 5.02567 15.5 5.02395 15.5C5.02224 15.5 5.02053 15.5 5.01882 15.5C5.01711 15.5 5.0154 15.5 5.01369 15.5C5.01198 15.5 5.01027 15.5 5.00857 15.5C5.00686 15.5 5.00515 15.5 5.00345 15.5C5.00174 15.5 5.00003 15.5 4.99833 15.5C4.99662 15.5 4.99492 15.5 4.99322 15.5C4.99151 15.5 4.98981 15.5 4.98811 15.5C4.98641 15.5 4.98471 15.5 4.98301 15.5C4.98131 15.5 4.97961 15.5 4.97791 15.5C4.97621 15.5 4.97452 15.5 4.97282 15.5C4.97112 15.5 4.96943 15.5 4.96773 15.5C4.96604 15.5 4.96434 15.5 4.96265 15.5C4.96096 15.5 4.95926 15.5 4.95757 15.5C4.95588 15.5 4.95419 15.5 4.9525 15.5C4.95081 15.5 4.94912 15.5 4.94743 15.5C4.94574 15.5 4.94406 15.5 4.94237 15.5C4.94068 15.5 4.939 15.5 4.93731 15.5C4.93563 15.5 4.93395 15.5 4.93226 15.5C4.93058 15.5 4.9289 15.5 4.92722 15.5C4.92554 15.5 4.92386 15.5 4.92218 15.5C4.9205 15.5 4.91882 15.5 4.91715 15.5C4.91547 15.5 4.91379 15.5 4.91212 15.5C4.91044 15.5 4.90877 15.5 4.90709 15.5C4.90542 15.5 4.90375 15.5 4.90208 15.5C4.90041 15.5 4.89874 15.5 4.89707 15.5C4.8954 15.5 4.89373 15.5 4.89206 15.5C4.8904 15.5 4.88873 15.5 4.88706 15.5C4.8854 15.5 4.88374 15.5 4.88207 15.5C4.88041 15.5 4.87875 15.5 4.87709 15.5C4.87543 15.5 4.87377 15.5 4.87211 15.5C4.87045 15.5 4.86879 15.5 4.86713 15.5C4.86548 15.5 4.86382 15.5 4.86217 15.5C4.86051 15.5 4.85886 15.5 4.85721 15.5C4.85555 15.5 4.8539 15.5 4.85225 15.5C4.8506 15.5 4.84895 15.5 4.84731 15.5C4.84566 15.5 4.84401 15.5 4.84237 15.5C4.84072 15.5 4.83908 15.5 4.83743 15.5C4.83579 15.5 4.83415 15.5 4.83251 15.5C4.83087 15.5 4.82923 15.5 4.82759 15.5C4.82595 15.5 4.82431 15.5 4.82268 15.5C4.82104 15.5 4.81941 15.5 4.81777 15.5C4.81614 15.5 4.81451 15.5 4.81287 15.5C4.81124 15.5 4.80961 15.5 4.80798 15.5C4.80635 15.5 4.80473 15.5 4.8031 15.5C4.80147 15.5 4.79985 15.5 4.79823 15.5C4.7966 15.5 4.79498 15.5 4.79336 15.5C4.79174 15.5 4.79012 15.5 4.7885 15.5C4.78688 15.5 4.78526 15.5 4.78364 15.5C4.78203 15.5 4.78041 15.5 4.7788 15.5C4.77719 15.5 4.77557 15.5 4.77396 15.5C4.77235 15.5 4.77074 15.5 4.76913 15.5C4.76752 15.5 4.76592 15.5 4.76431 15.5C4.76271 15.5 4.7611 15.5 4.7595 15.5C4.7579 15.5 4.75629 15.5 4.75469 15.5C4.75309 15.5 4.75149 15.5 4.7499 15.5C4.7483 15.5 4.7467 15.5 4.74511 15.5C4.74351 15.5 4.74192 15.5 4.74033 15.5C4.73874 15.5 4.73715 15.5 4.73556 15.5C4.73397 15.5 4.73238 15.5 4.73079 15.5C4.72921 15.5 4.72762 15.5 4.72604 15.5C4.72446 15.5 4.72287 15.5 4.72129 15.5C4.71971 15.5 4.71813 15.5 4.71656 15.5C4.71498 15.5 4.7134 15.5 4.71183 15.5C4.71025 15.5 4.70868 15.5 4.70711 15.5C4.70553 15.5 4.70396 15.5 4.7024 15.5C4.70083 15.5 4.69926 15.5 4.69769 15.5C4.69613 15.5 4.69456 15.5 4.693 15.5C4.69144 15.5 4.68988 15.5 4.68832 15.5C4.68676 15.5 4.6852 15.5 4.68364 15.5C4.68209 15.5 4.68053 15.5 4.67898 15.5C4.67743 15.5 4.67587 15.5 4.67432 15.5C4.67277 15.5 4.67122 15.5 4.66968 15.5C4.66813 15.5 4.66658 15.5 4.66504 15.5C4.6635 15.5 4.66195 15.5 4.66041 15.5C4.65887 15.5 4.65733 15.5 4.6558 15.5C4.65426 15.5 4.65272 15.5 4.65119 15.5C4.64965 15.5 4.64812 15.5 4.64659 15.5C4.64506 15.5 4.64353 15.5 4.642 15.5C4.64048 15.5 4.63895 15.5 4.63743 15.5C4.6359 15.5 4.63438 15.5 4.63286 15.5C4.63134 15.5 4.62982 15.5 4.6283 15.5C4.62678 15.5 4.62527 15.5 4.62375 15.5C4.62224 15.5 4.62073 15.5 4.61921 15.5C4.6177 15.5 4.6162 15.5 4.61469 15.5C4.61318 15.5 4.61168 15.5 4.61017 15.5C4.60867 15.5 4.60717 15.5 4.60567 15.5C4.60417 15.5 4.60267 15.5 4.60117 15.5C4.59967 15.5 4.59818 15.5 4.59669 15.5C4.59519 15.5 4.5937 15.5 4.59221 15.5C4.59072 15.5 4.58923 15.5 4.58775 15.5C4.58626 15.5 4.58478 15.5 4.5833 15.5C4.58181 15.5 4.58033 15.5 4.57885 15.5C4.57738 15.5 4.5759 15.5 4.57442 15.5C4.57295 15.5 4.57148 15.5 4.57 15.5C4.56853 15.5 4.56706 15.5 4.5656 15.5C4.56413 15.5 4.56266 15.5 4.5612 15.5C4.55974 15.5 4.55827 15.5 4.55681 15.5C4.55535 15.5 4.5539 15.5 4.55244 15.5C4.55098 15.5 4.54953 15.5 4.54808 15.5C4.54662 15.5 4.54517 15.5 4.54373 15.5C4.54228 15.5 4.54083 15.5 4.53939 15.5C4.53794 15.5 4.5365 15.5 4.53506 15.5C4.53362 15.5 4.53218 15.5 4.53074 15.5C4.5293 15.5 4.52787 15.5 4.52644 15.5C4.525 15.5 4.52357 15.5 4.52214 15.5C4.52072 15.5 4.51929 15.5 4.51786 15.5C4.51644 15.5 4.51502 15.5 4.5136 15.5C4.51217 15.5 4.51076 15.5 4.50934 15.5C4.50792 15.5 4.50651 15.5 4.5051 15.5C4.50368 15.5 4.50227 15.5 4.50086 15.5C4.49945 15.5 4.49805 15.5 4.49664 15.5C4.49524 15.5 4.49384 15.5 4.49244 15.5C4.49104 15.5 4.48964 15.5 4.48824 15.5C4.48685 15.5 4.48545 15.5 4.48406 15.5C4.48267 15.5 4.48128 15.5 4.47989 15.5C4.4785 15.5 4.47712 15.5 4.47573 15.5C4.47435 15.5 4.47297 15.5 4.47159 15.5C4.47021 15.5 4.46883 15.5 4.46746 15.5C4.46608 15.5 4.46471 15.5 4.46334 15.5C4.46197 15.5 4.4606 15.5 4.45924 15.5C4.45787 15.5 4.45651 15.5 4.45514 15.5C4.45378 15.5 4.45242 15.5 4.45106 15.5C4.44971 15.5 4.44835 15.5 4.447 15.5C4.44565 15.5 4.4443 15.5 4.44295 15.5C4.4416 15.5 4.44025 15.5 4.43891 15.5C4.43756 15.5 4.43622 15.5 4.43488 15.5C4.43354 15.5 4.43221 15.5 4.43087 15.5C4.42954 15.5 4.4282 15.5 4.42687 15.5C4.42554 15.5 4.42421 15.5 4.42289 15.5C4.42156 15.5 4.42024 15.5 4.41892 15.5C4.4176 15.5 4.41628 15.5 4.41496 15.5C4.41364 15.5 4.41233 15.5 4.41102 15.5C4.4097 15.5 4.40839 15.5 4.40709 15.5C4.40578 15.5 4.40447 15.5 4.40317 15.5C4.40187 15.5 4.40057 15.5 4.39927 15.5C4.39797 15.5 4.39668 15.5 4.39538 15.5C4.39409 15.5 4.3928 15.5 4.39151 15.5C4.39022 15.5 4.38894 15.5 4.38765 15.5C4.38637 15.5 4.38509 15.5 4.38381 15.5C4.38253 15.5 4.38125 15.5 4.37998 15.5C4.37871 15.5 4.37743 15.5 4.37617 15.5C4.3749 15.5 4.37363 15.5 4.37237 15.5C4.3711 15.5 4.36984 15.5 4.36858 15.5C4.36732 15.5 4.36606 15.5 4.36481 15.5C4.36355 15.5 4.3623 15.5 4.36105 15.5C4.3598 15.5 4.35856 15.5 4.35731 15.5C4.35607 15.5 4.35483 15.5 4.35359 15.5C4.35235 15.5 4.35111 15.5 4.34988 15.5C4.34864 15.5 4.34741 15.5 4.34618 15.5C4.34495 15.5 4.34372 15.5 4.3425 15.5C4.34128 15.5 4.34005 15.5 4.33884 15.5C4.33762 15.5 4.3364 15.5 4.33519 15.5C4.33397 15.5 4.33276 15.5 4.33155 15.5C4.33034 15.5 4.32914 15.5 4.32793 15.5C4.32673 15.5 4.32553 15.5 4.32433 15.5C4.32313 15.5 4.32194 15.5 4.32074 15.5C4.31955 15.5 4.31836 15.5 4.31717 15.5C4.31598 15.5 4.3148 15.5 4.31362 15.5C4.31243 15.5 4.31125 15.5 4.31008 15.5C4.3089 15.5 4.30772 15.5 4.30655 15.5C4.30538 15.5 4.30421 15.5 4.30304 15.5C4.30188 15.5 4.30071 15.5 4.29955 15.5C4.29839 15.5 4.29723 15.5 4.29608 15.5C4.29492 15.5 4.29377 15.5 4.29262 15.5C4.29147 15.5 4.29032 15.5 4.28917 15.5C4.28803 15.5 4.28689 15.5 4.28575 15.5C4.28461 15.5 4.28347 15.5 4.28234 15.5C4.2812 15.5 4.28007 15.5 4.27894 15.5C4.27782 15.5 4.27669 15.5 4.27557 15.5C4.27444 15.5 4.27332 15.5 4.27221 15.5C4.27109 15.5 4.26998 15.5 4.26886 15.5C4.26775 15.5 4.26664 15.5 4.26554 15.5C4.26443 15.5 4.26333 15.5 4.26223 15.5C4.26113 15.5 4.26003 15.5 4.25894 15.5C4.25784 15.5 4.25675 15.5 4.25566 15.5C4.25457 15.5 4.25349 15.5 4.2524 15.5C4.25132 15.5 4.25024 15.5 4.24916 15.5C4.24808 15.5 4.24701 15.5 4.24594 15.5C4.24487 15.5 4.2438 15.5 4.24273 15.5C4.24167 15.5 4.2406 15.5 4.23954 15.5C4.23848 15.5 4.23743 15.5 4.23637 15.5C4.23532 15.5 4.23427 15.5 4.23322 15.5C4.23217 15.5 4.23112 15.5 4.23008 15.5C4.22904 15.5 4.228 15.5 4.22696 15.5C4.22593 15.5 4.22489 15.5 4.22386 15.5C4.22283 15.5 4.2218 15.5 4.22078 15.5C4.21976 15.5 4.21873 15.5 4.21772 15.5C4.2167 15.5 4.21568 15.5 4.21467 15.5C4.21366 15.5 4.21265 15.5 4.21164 15.5C4.21063 15.5 4.20963 15.5 4.20863 15.5C4.20763 15.5 4.20663 15.5 4.20564 15.5C4.20464 15.5 4.20365 15.5 4.20267 15.5C4.20168 15.5 4.20069 15.5 4.19971 15.5C4.19873 15.5 4.19775 15.5 4.19677 15.5C4.1958 15.5 4.19482 15.5 4.19386 15.5C4.19289 15.5 4.19192 15.5 4.19096 15.5C4.18999 15.5 4.18903 15.5 4.18807 15.5C4.18712 15.5 4.18616 15.5 4.18521 15.5C4.18426 15.5 4.18331 15.5 4.18237 15.5C4.18143 15.5 4.18048 15.5 4.17955 15.5C4.17861 15.5 4.17767 15.5 4.17674 15.5C4.17581 15.5 4.17488 15.5 4.17395 15.5C4.17303 15.5 4.17211 15.5 4.17119 15.5C4.17027 15.5 4.16935 15.5 4.16844 15.5C4.16753 15.5 4.16662 15.5 4.16571 15.5C4.16481 15.5 4.1639 15.5 4.163 15.5C4.1621 15.5 4.16121 15.5 4.16031 15.5C4.15942 15.5 4.15853 15.5 4.15764 15.5C4.15676 15.5 4.15587 15.5 4.15499 15.5C4.15411 15.5 4.15324 15.5 4.15236 15.5C4.15149 15.5 4.15062 15.5 4.14975 15.5C4.14888 15.5 4.14802 15.5 4.14716 15.5C4.1463 15.5 4.14544 15.5 4.14459 15.5C4.14373 15.5 4.14288 15.5 4.14204 15.5C4.14119 15.5 4.14035 15.5 4.13951 15.5C4.13867 15.5 4.13783 15.5 4.137 15.5C4.13616 15.5 4.13533 15.5 4.1345 15.5C4.13368 15.5 4.13285 15.5 4.13203 15.5C4.13121 15.5 4.1304 15.5 4.12958 15.5C4.12877 15.5 4.12796 15.5 4.12715 15.5C4.12635 15.5 4.12554 15.5 4.12474 15.5C4.12394 15.5 4.12315 15.5 4.12236 15.5C4.12156 15.5 4.12077 15.5 4.11999 15.5C4.1192 15.5 4.11842 15.5 4.11764 15.5C4.11686 15.5 4.11609 15.5 4.11531 15.5C4.11454 15.5 4.11377 15.5 4.11301 15.5C4.11224 15.5 4.11148 15.5 4.11072 15.5C4.10996 15.5 4.10921 15.5 4.10846 15.5C4.10771 15.5 4.10696 15.5 4.10622 15.5C4.10547 15.5 4.10473 15.5 4.10399 15.5C4.10326 15.5 4.10252 15.5 4.10179 15.5C4.10106 15.5 4.10034 15.5 4.09961 15.5C4.09889 15.5 4.09817 15.5 4.09746 15.5C4.09674 15.5 4.09603 15.5 4.09532 15.5C4.09461 15.5 4.09391 15.5 4.09321 15.5C4.0925 15.5 4.09181 15.5 4.09111 15.5C4.09042 15.5 4.08973 15.5 4.08904 15.5C4.08835 15.5 4.08767 15.5 4.08699 15.5C4.08631 15.5 4.08564 15.5 4.08496 15.5C4.08429 15.5 4.08362 15.5 4.08296 15.5C4.08229 15.5 4.08163 15.5 4.08097 15.5C4.08032 15.5 4.07966 15.5 4.07901 15.5C4.07836 15.5 4.07772 15.5 4.07707 15.5C4.07643 15.5 4.07579 15.5 4.07516 15.5C4.07452 15.5 4.07389 15.5 4.07326 15.5C4.07263 15.5 4.07201 15.5 4.07139 15.5C4.07077 15.5 4.07015 15.5 4.06954 15.5C4.06892 15.5 4.06831 15.5 4.06771 15.5C4.0671 15.5 4.0665 15.5 4.0659 15.5C4.0653 15.5 4.06471 15.5 4.06412 15.5C4.06353 15.5 4.06294 15.5 4.06236 15.5C4.06178 15.5 4.0612 15.5 4.06062 15.5C4.06005 15.5 4.05948 15.5 4.05891 15.5C4.05834 15.5 4.05778 15.5 4.05722 15.5C4.05666 15.5 4.0561 15.5 4.05555 15.5C4.055 15.5 4.05445 15.5 4.0539 15.5C4.05336 15.5 4.05282 15.5 4.05228 15.5C4.05174 15.5 4.05121 15.5 4.05068 15.5C4.05015 15.5 4.04963 15.5 4.04911 15.5C4.04858 15.5 4.04807 15.5 4.04755 15.5C4.04704 15.5 4.04653 15.5 4.04602 15.5C4.04552 15.5 4.04502 15.5 4.04452 15.5C4.04402 15.5 4.04353 15.5 4.04304 15.5C4.04255 15.5 4.04206 15.5 4.04158 15.5C4.0411 15.5 4.04062 15.5 4.04014 15.5C4.03967 15.5 4.0392 15.5 4.03873 15.5C4.03827 15.5 4.03781 15.5 4.03735 15.5C4.03689 15.5 4.03643 15.5 4.03598 15.5C4.03553 15.5 4.03509 15.5 4.03465 15.5C4.0342 15.5 4.03377 15.5 4.03333 15.5C4.0329 15.5 4.03247 15.5 4.03204 15.5C4.03162 15.5 4.03119 15.5 4.03078 15.5C4.03036 15.5 4.02994 15.5 4.02953 15.5C4.02912 15.5 4.02872 15.5 4.02832 15.5C4.02791 15.5 4.02752 15.5 4.02712 15.5C4.02673 15.5 4.02634 15.5 4.02596 15.5C4.02557 15.5 4.02519 15.5 4.02481 15.5C4.02443 15.5 4.02406 15.5 4.02369 15.5C4.02332 15.5 4.02296 15.5 4.0226 15.5C4.02224 15.5 4.02188 15.5 4.02153 15.5C4.02118 15.5 4.02083 15.5 4.02049 15.5C4.02014 15.5 4.0198 15.5 4.01947 15.5C4.01913 15.5 4.0188 15.5 4.01847 15.5C4.01814 15.5 4.01782 15.5 4.0175 15.5C4.01718 15.5 4.01687 15.5 4.01656 15.5C4.01625 15.5 4.01594 15.5 4.01564 15.5C4.01534 15.5 4.01504 15.5 4.01475 15.5C4.01445 15.5 4.01417 15.5 4.01388 15.5C4.0136 15.5 4.01331 15.5 4.01304 15.5C4.01276 15.5 4.01249 15.5 4.01222 15.5C4.01195 15.5 4.01169 15.5 4.01143 15.5C4.01117 15.5 4.01092 15.5 4.01067 15.5C4.01041 15.5 4.01017 15.5 4.00993 15.5C4.00968 15.5 4.00945 15.5 4.00921 15.5C4.00898 15.5 4.00875 15.5 4.00853 15.5C4.0083 15.5 4.00808 15.5 4.00786 15.5C4.00765 15.5 4.00744 15.5 4.00723 15.5C4.00702 15.5 4.00682 15.5 4.00662 15.5C4.00642 15.5 4.00623 15.5 4.00604 15.5C4.00585 15.5 4.00566 15.5 4.00548 15.5C4.0053 15.5 4.00512 15.5 4.00495 15.5C4.00478 15.5 4.00461 15.5 4.00445 15.5C4.00428 15.5 4.00413 15.5 4.00397 15.5C4.00382 15.5 4.00367 15.5 4.00352 15.5C4.00337 15.5 4.00323 15.5 4.0031 15.5C4.00296 15.5 4.00283 15.5 4.0027 15.5C4.00257 15.5 4.00245 15.5 4.00233 15.5C4.00221 15.5 4.0021 15.5 4.00199 15.5C4.00188 15.5 4.00177 15.5 4.00167 15.5C4.00157 15.5 4.00147 15.5 4.00138 15.5C4.00129 15.5 4.0012 15.5 4.00112 15.5C4.00104 15.5 4.00096 15.5 4.00089 15.5C4.00081 15.5 4.00074 15.5 4.00068 15.5C4.00061 15.5 4.00055 15.5 4.0005 15.5C4.00044 15.5 4.00039 15.5 4.00035 15.5C4.0003 15.5 4.00026 15.5 4.00022 15.5C4.00019 15.5 4.00015 15.5 4.00013 15.5C4.0001 15.5 4.00007 15.5 4.00006 15.5C4.00004 15.5 4.00002 15.5 4.00001 15.5C4 15.5 4 15.5 4 16ZM16.5 28V26H15.5V28H16.5Z" fill="#152827"/>
<path d="M16 10.0983V16L22.5 20.5" stroke="#152827" stroke-width="3" stroke-linecap="round" stroke-linejoin="round"/>
<path d="M16 10.0983V16L22.5 20.5" stroke="#F0A337" stroke-linecap="round" stroke-linejoin="round"/>
</svg>
