<svg width="32" height="32" viewBox="0 0 32 32" fill="none" xmlns="http://www.w3.org/2000/svg">
<path fill-rule="evenodd" clip-rule="evenodd" d="M26.1727 8.32289C27.2859 8.58649 28.1642 9.3581 28.464 10.3371C29.0211 12.1247 28.9999 15.852 28.9999 15.852C28.9999 15.852 28.9999 19.5606 28.464 21.3483C28.1642 22.3269 27.2859 23.0988 26.1727 23.3623C24.1376 23.8335 15.9994 23.8335 15.9994 23.8335C15.9994 23.8335 7.8825 23.8335 5.82718 23.3437C4.71292 23.0802 3.83569 22.3083 3.53585 21.3297C2.99999 19.5606 3 15.8334 3 15.8334C3 15.8334 2.99999 12.1247 3.53585 10.3371C3.83468 9.3583 4.73419 8.56769 5.82718 8.30428C7.86122 7.8335 15.9994 7.8335 15.9994 7.8335C15.9994 7.8335 24.1376 7.8335 26.1727 8.32289Z" stroke="#152827"/>
<path d="M14 18.5255V13.4745C14 13.116 14.4077 12.8874 14.7438 13.0572L19.7343 15.5827C20.0886 15.762 20.0886 16.238 19.7343 16.4173L14.7438 18.9428C14.4077 19.1126 14 18.884 14 18.5255Z" fill="#F0A337" stroke="#152827"/>
</svg>
