<svg width="32" height="32" viewBox="0 0 32 32" fill="none" xmlns="http://www.w3.org/2000/svg">
<g clip-path="url(#clip0)">
<path fill-rule="evenodd" clip-rule="evenodd" d="M28.5204 5.4978C29.891 5.86694 30.9718 6.9475 31.3407 8.31834C32.0262 10.8222 31.9999 16.0415 31.9999 16.0415C31.9999 16.0415 31.9999 21.2341 31.3409 23.7382C30.9718 25.1088 29.8912 26.1896 28.5204 26.5585C26.0163 27.2177 15.9999 27.2177 15.9999 27.2177C15.9999 27.2177 6.00974 27.2177 3.47948 26.5324C2.10863 26.1632 1.02807 25.0824 0.658933 23.7118C0 21.2341 0 16.0151 0 16.0151C0 16.0151 0 10.8222 0.658933 8.31834C1.02783 6.94775 2.135 5.84057 3.47923 5.47168C5.98337 4.8125 15.9997 4.8125 15.9997 4.8125C15.9997 4.8125 26.0163 4.8125 28.5204 5.4978ZM21.14 16.0151L12.8107 20.8125V11.2178L21.14 16.0151Z" fill="#FC0D1B"/>
</g>
<defs>
<clipPath id="clip0">
<rect width="32" height="32" fill="white"/>
</clipPath>
</defs>
</svg>
