<svg width="170" height="38" viewBox="0 0 170 38" fill="none" xmlns="http://www.w3.org/2000/svg">
<path d="M157.486 21.1348C157.486 20.7685 157.563 20.3979 157.72 20.0189C157.875 19.6413 158.102 19.2946 158.403 18.9774C158.701 18.6601 159.08 18.399 159.535 18.1913C159.988 17.9835 160.515 17.8797 161.115 17.8797C161.712 17.8797 162.228 17.9835 162.659 18.1913C163.091 18.399 163.449 18.6601 163.737 18.9774C164.024 19.2946 164.239 19.6413 164.383 20.0189C164.528 20.3979 164.598 20.7685 164.598 21.1348H157.486ZM167.007 26.3271C166.622 26.6205 166.011 26.9672 165.174 27.37C164.334 27.7715 163.247 27.9736 161.905 27.9736C160.539 27.9736 159.467 27.6255 158.69 26.9307C157.912 26.2358 157.509 25.4259 157.486 24.4995H169.483V23.6222C169.483 22.1834 169.305 20.8597 168.945 19.6539C168.587 18.4468 168.053 17.4108 167.347 16.5448C166.641 15.6801 165.771 15.0035 164.743 14.5164C163.713 14.0279 162.516 13.7851 161.151 13.7851C159.786 13.7851 158.564 14.035 157.486 14.5347C156.409 15.0344 155.499 15.6983 154.756 16.5265C154.014 17.3561 153.446 18.3246 153.05 19.435C152.656 20.5439 152.457 21.6963 152.457 22.8894C152.457 24.2552 152.667 25.5045 153.086 26.6387C153.505 27.7715 154.116 28.7414 154.918 29.5457C155.72 30.3501 156.697 30.9789 157.846 31.4295C158.996 31.8801 160.288 32.1061 161.726 32.1061C162.803 32.1061 163.759 32.0008 164.598 31.7945C165.438 31.5867 166.161 31.3495 166.772 31.0814C167.383 30.8133 167.879 30.5396 168.261 30.2588C168.646 29.9781 168.933 29.7774 169.125 29.6552L167.007 26.3271ZM109.752 26.9489C109.417 27.1932 109.059 27.4065 108.675 27.589C108.292 27.7715 107.837 27.8641 107.31 27.8641C106.615 27.8641 106.107 27.6381 105.784 27.1861C105.46 26.7356 105.299 26.0955 105.299 25.2673V18.5015H109.646V14.369H105.299V9.77335H100.127V14.369H97.46V18.5015H100.127V24.9739C100.127 26.0477 100.234 27.0219 100.449 27.9006C100.666 28.7779 101.024 29.5275 101.528 30.1493C102.029 30.7712 102.688 31.2583 103.502 31.612C104.317 31.9643 105.323 32.1426 106.52 32.1426C108.435 32.1426 110.209 31.4842 111.837 30.1676L109.752 26.9489ZM154.534 8.26297C153.767 7.60464 152.918 7.14143 151.984 6.87332C151.049 6.60522 150.127 6.47046 149.217 6.47046C148.357 6.47046 147.511 6.61083 146.685 6.89157C145.86 7.1723 145.123 7.59903 144.475 8.17173C143.829 8.74444 143.309 9.46874 142.914 10.3475C142.519 11.2248 142.32 12.2733 142.32 13.4917V14.369H139.591V18.5015H142.32V31.5207H147.456V18.5015H151.445V14.369H147.456V13.4187C147.456 12.5653 147.673 11.907 148.104 11.4437C148.534 10.9819 149.109 10.7489 149.828 10.7489C150.283 10.7489 150.725 10.8219 151.157 10.9679C151.589 11.1153 151.984 11.323 152.343 11.5897L154.534 8.26297ZM131.801 31.5207H136.973V14.369H134.386H131.801V31.5207ZM113.773 31.5207H129.533V27.0037H119.197V7.12879H113.773V31.5207ZM84.2246 21.1348C84.2246 20.7685 84.3018 20.3979 84.4576 20.0189C84.6134 19.6413 84.841 19.2946 85.1402 18.9774C85.4394 18.6601 85.8172 18.399 86.2722 18.1913C86.7272 17.9835 87.2539 17.8797 87.8523 17.8797C88.4507 17.8797 88.9664 17.9835 89.3966 18.1913C89.8282 18.399 90.188 18.6601 90.4748 18.9774C90.7616 19.2946 90.9781 19.6413 91.1215 20.0189C91.2649 20.3979 91.3366 20.7685 91.3366 21.1348H84.2246ZM93.744 26.3271C93.3607 26.6205 92.7499 26.9672 91.9116 27.37C91.0733 27.7715 89.984 27.9736 88.6424 27.9736C87.2773 27.9736 86.206 27.6255 85.4283 26.9307C84.6493 26.2358 84.2481 25.4259 84.2246 24.4995H96.2218V23.6222C96.2218 22.1834 96.0425 20.8597 95.6841 19.6539C95.3242 18.4468 94.7906 17.4108 94.0846 16.5448C93.3787 15.6801 92.51 15.0035 91.48 14.5164C90.4514 14.0279 89.2532 13.7851 87.8882 13.7851C86.5231 13.7851 85.3029 14.035 84.2246 14.5347C83.1478 15.0344 82.2364 15.6983 81.4945 16.5265C80.7514 17.3561 80.1833 18.3246 79.7889 19.435C79.3932 20.5439 79.196 21.6963 79.196 22.8894C79.196 24.2552 79.4042 25.5045 79.8248 26.6387C80.2426 27.7715 80.8534 28.7414 81.6559 29.5457C82.4583 30.3501 83.4345 30.9789 84.5831 31.4295C85.7331 31.8801 87.0264 32.1061 88.4631 32.1061C89.5414 32.1061 90.4983 32.0008 91.3366 31.7945C92.1749 31.5867 92.9002 31.3495 93.511 31.0814C94.1205 30.8133 94.6182 30.5396 95.0002 30.2588C95.3835 29.9781 95.6716 29.7774 95.8633 29.6552L93.744 26.3271ZM52.1104 31.5207H57.2823L57.8932 15.6857L63.1382 25.0848H65.94L70.8969 15.5762L71.5794 31.5207H77.0037L75.8896 7.12879H70.7162L64.6108 18.5745L58.3606 7.12879H53.2231L52.1104 31.5207ZM134.386 12.4081C132.79 12.4081 131.472 11.0661 131.472 9.43927C131.472 7.81239 132.79 6.47046 134.386 6.47046C136.024 6.47046 137.303 7.77168 137.303 9.43927C137.303 11.0661 135.984 12.4081 134.386 12.4081Z" fill="#231F20"/>
<path d="M20.2224 12.4991C24.2913 17.9834 26.7057 24.8137 26.7057 32.2224C26.7057 34.0093 26.5636 35.7625 26.292 37.4736H38.0727C39.0972 37.4736 39.9272 36.6258 39.9272 35.58V2.42343C39.9272 1.18818 38.7842 0.274382 37.6136 0.588808C30.5788 2.47958 24.4899 6.7468 20.2224 12.4991Z" fill="#99D538"/>
<path d="M14.1523 37.473C13.8821 35.7633 13.7387 34.0101 13.7387 32.2217C13.7387 24.8145 16.1544 17.9827 20.2219 12.4985C15.9544 6.74615 9.86554 2.47892 2.83076 0.589554C1.66014 0.275127 0.51709 1.18753 0.51709 2.42278V35.5808C0.51709 36.6251 1.34852 37.473 2.37299 37.473H14.1523Z" fill="#239DE0"/>
<path d="M20.2225 12.4991C16.1536 17.9834 13.7393 24.8137 13.7393 32.2224C13.7393 34.0093 13.8813 35.7625 14.1529 37.4736H26.2921C26.5637 35.7625 26.7057 34.0093 26.7057 32.2224C26.7057 24.8137 24.2914 17.9834 20.2225 12.4991Z" fill="#1563A9"/>
</svg>
