<svg width="170" height="128" viewBox="0 0 170 128" fill="none" xmlns="http://www.w3.org/2000/svg">
<path d="M85.138 0.951519C57.2677 0.951519 34.6577 23.436 34.6577 51.1517C34.6577 78.8673 57.2677 101.352 85.138 101.352C113.008 101.352 135.618 78.8673 135.618 51.1517C135.618 23.436 113.008 0.951519 85.138 0.951519ZM85.138 100.526C57.7291 100.526 35.4883 78.4084 35.4883 51.1517C35.4883 23.8949 57.7291 1.77748 85.138 1.77748C112.547 1.77748 134.788 23.8949 134.788 51.1517C134.788 78.4084 112.547 100.526 85.138 100.526Z" fill="#053C6F"/>
<path d="M132.389 51.1516C132.389 77.0318 111.209 98.0938 85.1382 98.0938C59.1137 98.0938 37.9341 77.0318 37.9341 51.1516C37.9341 25.2715 59.1137 4.16358 85.1382 4.16358C111.163 4.16358 132.389 25.2256 132.389 51.1516ZM59.4367 34.4947H51.1771V37.9362H62.0668L60.6825 35.1372C60.3134 34.4947 59.4367 34.4947 59.4367 34.4947ZM69.7727 85.9797L73.2334 74.508H65.3429L67.2809 79.1426L64.5585 83.1347L69.7727 85.9797ZM62.1591 40.3224H51.2694V44.0392H65.0199L63.4511 40.9648C63.1742 40.2306 62.1591 40.3224 62.1591 40.3224ZM56.1144 56.2451C56.1144 56.2451 56.2989 55.5109 55.8375 54.6849C55.2838 53.5836 53.8995 53.5836 53.8995 53.5836L55.3761 48.9491H52.3768C51.2694 51.2434 50.6234 53.6754 50.0697 56.2451H56.1144ZM68.1115 42.9379C68.1115 46.1041 70.7878 48.7655 73.9717 48.7655C77.1555 48.7655 79.8318 46.15 79.8318 42.9379C79.8318 42.7085 79.8318 42.5249 79.7857 42.2955H82.1851V64.8718H75.2175L66.7272 47.6642H61.8822L61.3285 48.8573H57.8678V53.859H59.0675L61.6054 61.2467H59.4828L58.3754 58.3559H53.2535V60.3749H57.1757L58.4677 63.4493H56.6219L55.9759 62.2562H53.4842L52.9305 62.9904L53.8534 66.1566L52.3768 68.0839L53.6688 71.8925H73.8794L75.1714 67.8085H82.2312V79.5556C82.2312 81.1157 82.9695 82.3547 83.8001 83.5477C85.9227 86.6221 89.568 87.8152 93.121 86.8974C92.7518 84.6949 92.0135 80.0603 92.0135 80.0603C92.475 80.0603 93.0287 80.1521 93.2132 80.7027C93.5824 81.8958 94.0438 82.9053 94.9667 83.7313C95.7972 84.4654 96.5355 84.8325 97.6429 84.9243C98.7504 85.0161 99.5809 84.9243 100.365 84.5572C101.196 84.2819 103.918 82.9971 103.918 82.9971L101.196 76.8941C101.473 76.8024 101.934 76.7106 102.303 77.1695C103.78 78.9132 105.257 79.9227 107.61 79.6473C110.009 79.372 111.163 77.9036 113.747 75.747L108.44 70.3782C109.086 69.9193 109.64 70.1029 110.102 70.47C111.209 71.2959 112.132 71.663 113.285 71.7548C117.208 72.2137 119.792 65.2848 119.792 65.2848L113.378 62.1186C114.024 60.5584 115.5 62.1186 116.654 62.0268C118.223 62.0268 120.484 61.0173 121.037 59.1359C121.591 57.3005 121.868 55.7862 122.329 53.859L115.731 53.2165C116.1 51.3811 117.669 52.6659 119.376 51.5646C123.022 49.6374 121.037 43.2591 120.945 41.9284L114.07 43.2132C113.885 42.6626 114.162 42.1119 114.716 41.9284C116.377 41.1942 117.254 40.7353 118.084 39.5423C119.838 35.8255 117.254 33.2558 115.962 30.5485C113.839 31.3744 109.456 33.3476 109.456 33.3476C109.363 32.9805 109.271 32.2463 109.825 31.8792C110.655 31.2368 111.855 31.145 112.593 29.0801C113.424 26.0516 110.932 23.7113 109.133 21.417L101.704 25.0421C101.242 23.9408 102.534 23.3901 102.996 22.6559C103.734 21.6464 104.011 20.6369 103.365 19.5815C102.534 18.1132 101.334 16.7824 100.135 15.3141L92.9825 19.0309C92.2442 17.8378 93.5362 17.4707 94.1822 16.4612C95.1051 15.2682 94.5514 13.295 93.5362 12.102C81.6314 16.3695 69.4497 19.6733 59.2982 28.0247C58.7445 29.7684 62.0668 32.2922 63.9587 29.0342L66.6349 30.9615L66.2197 31.2827L65.8967 31.6498C65.2045 32.4757 65.1584 33.3935 65.4814 34.1735C65.8505 35.2289 66.8657 36.0549 68.0654 36.0549C68.9421 36.0549 69.7727 35.596 70.2802 34.9077L72.1721 37.3856C69.9111 38.0739 68.1115 40.2765 68.1115 42.9379Z" fill="#053C6F"/>
<path d="M115.732 115.164V112.411H130.313C131.836 112.411 133.312 113.925 133.312 115.026V126.544H128.836V115.118C128.836 113.971 127.96 113.696 126.714 113.696V115.118V126.131V126.498H122.238V115.072C122.238 113.925 121.361 113.65 120.115 113.65V115.072V126.498H115.732V115.164Z" fill="#053C6F"/>
<path d="M146.97 112.411H150.984V114.292V118.284V118.835H153.061V118.284V114.292V112.411H157.075V114.292V118.284V122.276V126.177V126.544H153.061V126.177V122.276V120.579H150.984V122.276V126.177V126.544H146.97V126.177V122.276V118.284V114.292V112.411Z" fill="#053C6F"/>
<path d="M27.5518 112.411H31.7508V126.177V126.544H24.4141C23.9527 126.544 23.3989 126.406 22.8914 126.177C21.9224 125.718 21.1841 124.938 21.1841 123.332V122.276V112.411H25.2908V124.112C25.2908 125.259 26.3521 125.534 27.5979 125.443V112.411H27.5518Z" fill="#053C6F"/>
<path d="M49.9778 112.411H54.1768V126.177V126.544H46.8401C46.3787 126.544 45.825 126.406 45.3174 126.177C44.3484 125.764 43.6101 124.938 43.6101 123.332V122.276V112.411H47.7168V124.112C47.7168 125.259 48.7781 125.534 50.024 125.443V112.411H49.9778Z" fill="#053C6F"/>
<path d="M61.9287 114.292C61.7442 114.017 61.4673 113.741 61.052 113.741H56.2532V112.411H64.0975C65.3433 112.411 66.3123 113.374 66.3123 114.292V114.934V126.131V126.498H58.2835C57.822 126.498 57.3145 126.406 56.9453 126.131C56.207 125.672 55.6995 124.8 55.6995 123.378V122.276V119.11C55.6995 117.734 56.6685 116.678 57.7759 116.678H59.9907V124.066C60.083 125.397 60.8675 125.488 62.1133 125.397V115.623C62.1133 115.623 62.2056 114.843 61.9287 114.292Z" fill="#053C6F"/>
<path d="M141.018 114.292C140.833 114.017 140.556 113.741 140.141 113.741H135.388V112.411H143.232C144.478 112.411 145.447 113.374 145.447 114.292V114.934V126.131V126.498H137.418C136.957 126.498 136.449 126.406 136.08 126.131C135.296 125.672 134.834 124.8 134.834 123.378V122.276V119.11C134.834 117.734 135.803 116.678 136.957 116.678H139.172V124.066C139.264 125.397 140.049 125.488 141.294 125.397V115.623C141.202 115.623 141.294 114.843 141.018 114.292Z" fill="#053C6F"/>
<path d="M164.827 114.292C164.643 114.017 164.366 113.741 163.951 113.741H159.198V112.411H167.042C168.288 112.411 169.257 113.374 169.257 114.292V114.934V126.131V126.498H161.228C160.767 126.498 160.259 126.406 159.89 126.131C159.106 125.672 158.644 124.8 158.644 123.378V122.276V119.11C158.644 117.734 159.613 116.678 160.721 116.678H162.936V124.066C163.028 125.397 163.812 125.488 165.058 125.397V115.623C165.012 115.623 165.104 114.843 164.827 114.292Z" fill="#053C6F"/>
<path d="M35.4888 114.292L32.3972 114.2V112.411H43.0101V114.2H39.8724V126.544H35.4888V114.292Z" fill="#053C6F"/>
<path d="M76.6485 126.544H67.8352V112.411H72.2649V124.846H76.6485V126.544Z" fill="#053C6F"/>
<path d="M14.1707 105.573H19.6156V126.544H15.0013V109.933L10.71 126.544H7.38774L2.77345 109.933V126.544H0.789307V105.573H6.51102L10.5254 119.982L14.1707 105.573Z" fill="#053C6F"/>
<path d="M90.2147 112.869H93.7677L93.4908 114.016H89.6148C89.6148 114.016 89.1534 115.623 88.6458 116.861C88.4612 117.412 88.2767 117.917 88.0921 118.284C86.8462 121.037 85.9695 121.817 85.5081 122.276C83.9854 123.79 80.8015 125.259 78.5405 124.754C77.4331 124.525 77.6638 124.57 76.9255 124.203L77.0178 123.194C77.0178 123.194 79.1404 124.341 81.0322 123.744C83.2009 123.01 84.0777 121.083 84.5852 120.211C84.8621 119.752 85.2312 119.064 85.5542 118.33C86.2464 116.816 86.9847 115.118 87.2615 114.338C87.3538 114.154 87.4461 114.062 87.4461 114.062H84.5852L84.6775 114.338L84.7237 114.429C85.1851 116.494 84.1699 118.467 82.9241 119.248C81.3091 120.303 78.2175 120.395 77.0178 118.972C76.3256 118.192 76.3257 117.091 76.7409 116.219C77.2024 115.164 77.8484 113.604 79.9709 112.961C80.9399 112.686 81.4937 112.778 82.3704 112.869H88.0921C88.0921 112.869 88.9227 111.309 90.2608 110.024C91.1375 109.152 92.1988 108.51 93.8138 108.143V109.198C92.1988 109.152 91.8297 109.933 91.4144 110.437C91.1375 110.667 90.4915 111.814 90.2147 112.869ZM82.5549 114.292C82.4627 113.833 81.8628 113.603 81.1245 113.741C80.8015 113.787 80.4785 114.016 80.2478 114.292C80.2478 114.292 79.2327 116.173 79.0019 116.678C78.7712 117.274 78.5405 117.825 78.5405 118.284C78.5405 118.743 78.8174 118.972 79.4172 119.156C80.1094 119.339 80.6631 118.972 81.1245 118.284C81.4014 117.917 81.5859 117.504 81.8167 117.045C82.2319 116.035 82.7395 115.164 82.5549 114.292Z" fill="#053C6F"/>
<path d="M94.782 114.292C94.8743 113.42 94.9666 112.594 95.1511 111.814C95.2434 111.355 95.428 110.85 95.6126 110.392C97.043 107.18 100.088 104.885 104.795 104.977C109.086 104.977 112.224 106.675 113.793 110.392C114.07 110.942 114.254 111.722 114.485 112.365C114.577 112.915 114.67 113.604 114.67 114.246C114.762 115.485 114.762 116.908 114.67 118.238C114.485 119.661 114.208 121.083 113.701 122.23C113.516 122.597 113.331 123.01 113.008 123.378C112.039 124.571 110.701 125.442 109.179 126.131C107.933 126.681 106.502 127.003 104.887 127.003C102.995 127.094 101.334 126.819 99.8116 126.131C98.1966 125.442 96.8584 124.249 95.7048 122.23C95.6126 122.047 95.5664 121.817 95.4741 121.68C95.0588 120.762 94.8281 119.569 94.6436 118.238C94.5974 117.045 94.5974 115.623 94.782 114.292ZM100.135 110.392C99.95 111.539 99.95 112.869 99.95 114.292V115.99V118.284C99.95 119.798 100.042 121.129 100.227 122.276C100.688 124.479 101.934 125.901 104.795 125.901C107.471 125.901 108.625 124.387 109.086 122.276C109.363 121.037 109.363 119.707 109.363 118.284V115.99V114.384C109.363 112.869 109.363 111.493 109.179 110.392C108.809 108.006 107.748 106.308 104.795 106.308C101.473 106.308 100.411 107.822 100.135 110.392Z" fill="#053C6F"/>
</svg>
