<svg width="170" height="55" viewBox="0 0 170 55" fill="none" xmlns="http://www.w3.org/2000/svg">
<path fill-rule="evenodd" clip-rule="evenodd" d="M90.5769 54.1154C104.082 54.1154 107.125 45.2765 107.125 39.2081V21.3389H97.1681V38.5264C97.1681 43.2392 94.5383 45.2982 90.5769 45.2982C86.6064 45.2982 83.9777 43.2392 83.9777 38.5264V21.3389H74.0207V39.207C74.0207 45.2753 77.0613 54.1143 90.5758 54.1143L90.5769 54.1154ZM16.5585 54.1143C30.0672 54.1143 33.1101 45.2765 33.1101 39.207V21.34H23.1554V38.5275C23.1554 43.2403 20.5232 45.2994 16.5585 45.2994C12.588 45.2994 9.95698 43.2403 9.95698 38.5275V21.34H0V39.2081C0 45.2765 3.05201 54.1154 16.5585 54.1154V54.1143ZM53.5671 20.0979C40.0584 20.0979 37.0087 28.9346 37.0087 35.0029V52.871H46.9691V35.679C46.9691 30.9776 49.5989 28.914 53.5671 28.914C57.533 28.914 60.1617 30.9765 60.1617 35.679V52.871H70.1199V35.0029C70.1199 28.9346 67.0736 20.0979 53.5671 20.0979ZM136.976 25.1602C136.547 24.5839 134.007 20.0979 125.858 20.0979C117.561 20.0979 111.026 24.2688 111.026 34.3441V52.8722H120.76V34.3246C120.76 31.0773 122.413 28.5885 126.431 28.5885C130.458 28.5885 132.105 31.0784 132.105 34.3257V52.871H141.842V34.3257C141.842 31.0784 143.487 28.5897 147.512 28.5897C151.537 28.5897 153.186 31.0796 153.186 34.3269V52.8722H162.915V34.3441C162.915 24.2688 156.377 20.0991 148.083 20.0991C139.948 20.0991 137.401 24.585 136.976 25.1614" fill="#015294"/>
<path fill-rule="evenodd" clip-rule="evenodd" d="M45.3787 8.05292C45.3787 12.6099 49 16.115 53.5638 16.115C58.0842 16.115 61.6393 12.6087 61.6393 8.05292C61.6393 3.50167 58.0853 0 53.5638 0C49 0 45.3787 3.50167 45.3787 8.05292ZM82.3793 8.05292C82.3793 12.6099 86.0052 16.115 90.5713 16.115C95.0894 16.115 98.6446 12.6087 98.6446 8.05292C98.6457 3.50167 95.0894 0 90.5701 0C86.0041 0 82.3782 3.50167 82.3782 8.05292H82.3793ZM128.784 8.05292C128.784 12.6099 132.408 16.115 136.976 16.115C141.494 16.115 145.048 12.6087 145.048 8.05292C145.048 3.50167 141.495 0 136.976 0C132.41 0 128.784 3.50167 128.784 8.05292Z" fill="#5E88A1"/>
<path fill-rule="evenodd" clip-rule="evenodd" d="M165.936 26.2625C165.485 26.2637 165.038 26.1753 164.62 26.0024C164.203 25.8295 163.824 25.5755 163.505 25.255C163.186 24.9345 162.933 24.5538 162.761 24.1348C162.589 23.7158 162.501 23.2668 162.502 22.8135C162.5 22.3593 162.588 21.9092 162.76 21.4891C162.932 21.0689 163.184 20.6869 163.503 20.3649C163.822 20.0429 164.201 19.7871 164.619 19.6123C165.036 19.4376 165.484 19.3471 165.936 19.3462C166.849 19.3499 167.723 19.7169 168.367 20.3669C169.011 21.0169 169.371 21.8967 169.37 22.8135C169.371 23.2666 169.282 23.7153 169.11 24.1339C168.937 24.5526 168.684 24.9329 168.365 25.2533C168.046 25.5737 167.668 25.8277 167.251 26.0009C166.834 26.174 166.387 26.2629 165.936 26.2625ZM165.936 19.8458C164.304 19.8458 163.006 21.1818 163.006 22.8135C163.005 23.2002 163.08 23.5832 163.227 23.9406C163.374 24.298 163.59 24.6228 163.862 24.8962C164.134 25.1696 164.458 25.3863 164.814 25.5339C165.17 25.6814 165.551 25.7569 165.936 25.756C167.556 25.756 168.857 24.436 168.857 22.8135C168.857 21.1818 167.556 19.8458 165.936 19.8458ZM166.712 24.7694L165.48 22.9705H165.365V24.7694H164.811V20.8622C165.071 20.7338 165.432 20.6559 165.8 20.6559C166.614 20.6559 167.186 21.1142 167.186 21.8086C167.186 22.4812 166.712 22.8628 166.071 22.9315L167.38 24.7694H166.712ZM165.753 21.1142C165.605 21.1142 165.468 21.144 165.365 21.1715V22.5992H165.664C166.198 22.5992 166.615 22.4044 166.615 21.8086C166.615 21.2517 166.139 21.1142 165.753 21.1142Z" fill="#015294"/>
</svg>
